<svg width="5820" height="1080" viewBox="0 0 5820 1080" fill="none" xmlns="http://www.w3.org/2000/svg">
<g clip-path="url(#clip0_18_618)">
<rect width="5820" height="1080" fill="url(#paint0_linear_18_618)"/>
<path d="M-21.4359 -5.80435L584 -5.80435L1008 -5.80435C1008 -5.80435 2016 -138 896 462C-224 1062 1312 1094 1312 1094L-21.4359 1094L-21.4359 -5.80435Z" fill="url(#paint1_linear_18_618)"/>
<path d="M5848.17 230.864C5848.17 230.864 2810.94 454.359 4168.38 781.631C5525.81 1108.9 2050.06 1102.56 2050.06 1102.56L3897.81 1105.93L5856.77 1109.51L5848.17 230.864Z" fill="url(#paint2_linear_18_618)"/>
<path d="M2104.59 2123.68L1850.1 1498.66C1730.24 1204.27 1943.39 922.599 2489.94 653.171C1910.63 842.154 1561.35 789.487 1441.49 495.091L1187 -129.93L2031.15 -473.636L2336.97 277.473C2364.73 345.652 2429.79 387.336 2532.27 402.81C2634.76 418.283 2743.35 402.67 2858.05 355.968C2972.74 309.267 3066.39 242.538 3128.91 159.88C3191.44 77.222 3208.88 1.94613 3181.12 -66.2328L2875.29 -817.342L3714.41 -1159L3968.9 -533.979C4088.76 -239.583 3877.24 41.755 3334.09 309.464C3910.57 123.627 4258.46 177.193 4377.51 469.592L4632 1094.61L3792.88 1436.27L3487.06 685.162C3459.3 616.983 3394.24 575.299 3291.76 559.825C3189.27 544.352 3079.18 560.58 2960.95 608.715C2846.26 655.417 2757.64 720.096 2695.12 802.755C2632.59 885.413 2615.27 960.974 2642.91 1028.87L2948.74 1779.98L2104.59 2123.68Z" fill="url(#paint3_linear_18_618)"/>
<path d="M120.883 371.388L140.122 360.872" stroke="white" stroke-width="3" stroke-linecap="round" stroke-linejoin="round"/>
<path d="M123.954 392.727L159.825 371.388" stroke="white" stroke-width="3" stroke-linecap="round" stroke-linejoin="round"/>
<path d="M126.214 411.003L173.849 380.986" stroke="white" stroke-width="3" stroke-linecap="round" stroke-linejoin="round"/>
<path d="M128.474 431.729L189.264 391.553" stroke="white" stroke-width="3" stroke-linecap="round" stroke-linejoin="round"/>
<path d="M131.545 451.128L205.374 404.673" stroke="white" stroke-width="3" stroke-linecap="round" stroke-linejoin="round"/>
<path d="M134.385 472.314L210.3 424.48" stroke="white" stroke-width="3" stroke-linecap="round" stroke-linejoin="round"/>
<path d="M137.572 496.052L212.328 446.074" stroke="white" stroke-width="3" stroke-linecap="round" stroke-linejoin="round"/>
<path d="M189.264 391.553L196.334 478.134" stroke="white" stroke-width="3" stroke-linecap="round" stroke-linejoin="round"/>
<path d="M166.084 375.676L178.659 490.437" stroke="white" stroke-width="3" stroke-linecap="round" stroke-linejoin="round"/>
<path d="M140.122 360.872L159.304 502.638" stroke="white" stroke-width="3" stroke-linecap="round" stroke-linejoin="round"/>
<path d="M590.336 456.795L657.964 402.478" stroke="white" stroke-width="3" stroke-linecap="round" stroke-linejoin="round"/>
<path d="M588.191 478.236L655.124 424.48" stroke="white" stroke-width="3" stroke-linecap="round" stroke-linejoin="round"/>
<path d="M586.221 499.115L652.458 445.513" stroke="white" stroke-width="3" stroke-linecap="round" stroke-linejoin="round"/>
<path d="M584.367 518.055L649.966 464.708" stroke="white" stroke-width="3" stroke-linecap="round" stroke-linejoin="round"/>
<path d="M582.455 538.22L647.243 486.2" stroke="white" stroke-width="3" stroke-linecap="round" stroke-linejoin="round"/>
<path d="M580.948 557.516L644.635 506.364" stroke="white" stroke-width="3" stroke-linecap="round" stroke-linejoin="round"/>
<path d="M578.861 578.192L641.911 527.55" stroke="white" stroke-width="3" stroke-linecap="round" stroke-linejoin="round"/>
<path d="M576.833 599.275L638.898 549.399" stroke="white" stroke-width="3" stroke-linecap="round" stroke-linejoin="round"/>
<path d="M574.341 620.512L636.406 570.687" stroke="white" stroke-width="3" stroke-linecap="round" stroke-linejoin="round"/>
<path d="M640.868 397.475L614.732 605.759" stroke="white" stroke-width="3" stroke-linecap="round" stroke-linejoin="round"/>
<path d="M614.733 417.435L594.624 623.014" stroke="white" stroke-width="3" stroke-linecap="round" stroke-linejoin="round"/>
<path d="M536.153 35.326L417.065 98.1685" stroke="white" stroke-width="3" stroke-linecap="round" stroke-linejoin="round"/>
<path d="M516.334 27.8727L397.884 90.3579" stroke="white" stroke-width="3" stroke-linecap="round" stroke-linejoin="round"/>
<path d="M497.964 21.083L380.267 83.1598" stroke="white" stroke-width="3" stroke-linecap="round" stroke-linejoin="round"/>
<path d="M384.555 64.8839L462.73 95.2076" stroke="white" stroke-width="3" stroke-linecap="round" stroke-linejoin="round"/>
<path d="M405.997 53.3977L483.823 83.6193" stroke="white" stroke-width="3" stroke-linecap="round" stroke-linejoin="round"/>
<path d="M425.236 43.494L502.136 73.4093" stroke="white" stroke-width="3" stroke-linecap="round" stroke-linejoin="round"/>
<path d="M446.793 32.3651L522.476 61.8209" stroke="white" stroke-width="3" stroke-linecap="round" stroke-linejoin="round"/>
<path d="M465.627 21.5425L541.716 51.1004" stroke="white" stroke-width="3" stroke-linecap="round" stroke-linejoin="round"/>
<path d="M600.709 381.292L607.257 363.629L677.261 311.915L675.29 290.065L664.454 268.829L646.026 250.144L621.513 235.953L597.232 229.622L524.736 278.171L505.265 280.162L492.226 290.423L487.011 308.29L490.546 329.885L501.788 350.713L516.971 366.538L519.463 369.193L542.411 383.691L566.692 391.604L586.627 390.685L600.709 381.292ZM600.709 381.292L622.846 364.803L670.249 329.527L677.261 311.915" stroke="white" stroke-width="3" stroke-linecap="round" stroke-linejoin="round"/>
<path d="M524.736 278.171L549.191 285.165" stroke="white" stroke-width="3" stroke-linecap="round" stroke-linejoin="round"/>
<path d="M549.191 285.165L574.11 300.173L593.118 319.572L604.592 341.422L607.257 363.629" stroke="white" stroke-width="3" stroke-linecap="round" stroke-linejoin="round"/>
<path d="M622.846 364.803L660.571 382.109" stroke="white" stroke-width="3" stroke-linecap="round" stroke-linejoin="round"/>
<path d="M660.571 382.109L592.538 434.231L572.197 642.259" stroke="white" stroke-width="3" stroke-linecap="round" stroke-linejoin="round"/>
<path d="M505.265 280.162L513.204 274.853L577.703 232.022L597.232 229.622" stroke="white" stroke-width="3" stroke-linecap="round" stroke-linejoin="round"/>
<path d="M604.591 341.422L675.29 290.065" stroke="white" stroke-width="3" stroke-linecap="round" stroke-linejoin="round"/>
<path d="M574.11 300.173L646.026 250.144" stroke="white" stroke-width="3" stroke-linecap="round" stroke-linejoin="round"/>
<path d="M593.117 319.572L664.454 268.829" stroke="white" stroke-width="3" stroke-linecap="round" stroke-linejoin="round"/>
<path d="M549.191 285.165L621.513 235.952" stroke="white" stroke-width="3" stroke-linecap="round" stroke-linejoin="round"/>
<path d="M572.197 642.259L481.563 592.384" stroke="white" stroke-width="3" stroke-linecap="round" stroke-linejoin="round"/>
<path d="M490.835 385.018L592.538 434.231" stroke="white" stroke-width="3" stroke-linecap="round" stroke-linejoin="round"/>
<path d="M481.563 592.384L490.836 385.018L516.971 366.538" stroke="white" stroke-width="3" stroke-linecap="round" stroke-linejoin="round"/>
<path d="M660.571 382.109L634.03 589.167L572.197 642.259" stroke="white" stroke-width="3" stroke-linecap="round" stroke-linejoin="round"/>
<path d="M259.151 490.437L252.545 487.68L214.24 466.341" stroke="white" stroke-width="3" stroke-linecap="round" stroke-linejoin="round"/>
<path d="M117.927 348.977L159.825 371.388" stroke="white" stroke-width="3" stroke-linecap="round" stroke-linejoin="round"/>
<path d="M262.86 520.709L214.82 554.198" stroke="white" stroke-width="3" stroke-linecap="round" stroke-linejoin="round"/>
<path d="M200.101 399.006L263.44 375.013" stroke="white" stroke-width="3" stroke-linecap="round" stroke-linejoin="round"/>
<path d="M64.9028 524.028L140.122 515.298L214.24 466.341L208.793 408.297" stroke="white" stroke-width="3" stroke-linecap="round" stroke-linejoin="round"/>
<path d="M252.545 487.68L178.659 538.015L184.917 597.131" stroke="white" stroke-width="3" stroke-linecap="round" stroke-linejoin="round"/>
<path d="M14.1968 226.61L98.3981 182.758L235.102 248.256L345.613 322.686L389.075 369.091L421.527 418.303L441.346 467.771L447.315 514.89L439.492 552.871L419.673 576.711L346.714 633.019" stroke="white" stroke-width="3" stroke-linecap="round" stroke-linejoin="round"/>
<path d="M439.492 552.871L365.316 609.792" stroke="white" stroke-width="3" stroke-linecap="round" stroke-linejoin="round"/>
<path d="M447.315 514.89L371.574 571.964" stroke="white" stroke-width="3" stroke-linecap="round" stroke-linejoin="round"/>
<path d="M151.364 296.6L235.102 248.256" stroke="white" stroke-width="3" stroke-linecap="round" stroke-linejoin="round"/>
<path d="M441.346 467.771L363.867 524.334L264.251 511.469" stroke="white" stroke-width="3" stroke-linecap="round" stroke-linejoin="round"/>
<path d="M421.527 418.303L342.31 473.846L254.805 472.416" stroke="white" stroke-width="3" stroke-linecap="round" stroke-linejoin="round"/>
<path d="M389.075 369.091L308.235 423.204" stroke="white" stroke-width="3" stroke-linecap="round" stroke-linejoin="round"/>
<path d="M232.668 433.771L208.793 408.297L200.1 399.006L159.825 371.388L151.364 296.6" stroke="white" stroke-width="3" stroke-linecap="round" stroke-linejoin="round"/>
<path d="M14.1968 226.61L151.364 296.6L263.44 375.013L308.235 423.204L342.31 473.845L363.867 524.334L371.574 571.964L365.316 609.792L346.714 633.019L317.739 642.566L280.303 639.35L184.918 597.131L64.903 524.028L14.1968 226.61Z" stroke="white" stroke-width="3" stroke-linecap="round" stroke-linejoin="round"/>
<path d="M117.927 348.977L140.122 515.298L178.659 538.015L214.82 554.198L242.462 555.526L259.731 541.487L262.86 520.709L264.251 511.469L259.151 490.437L254.805 472.416L232.668 433.771" stroke="white" stroke-width="3" stroke-linecap="round" stroke-linejoin="round"/>
<path d="M263.44 375.013L345.613 322.686" stroke="white" stroke-width="3" stroke-linecap="round" stroke-linejoin="round"/>
<path d="M312.292 300.275L362.882 76.217L479.303 14.1913L556.551 42.6772L595.725 229.775" stroke="white" stroke-width="3" stroke-linecap="round" stroke-linejoin="round"/>
<path d="M489.271 322.431L445.75 351.989" stroke="white" stroke-width="3" stroke-linecap="round" stroke-linejoin="round"/>
<path d="M494.892 154.528L498.891 152.128" stroke="white" stroke-width="3" stroke-linecap="round" stroke-linejoin="round"/>
<path d="M476.696 226.968L521.723 246.571L525.953 266.327" stroke="white" stroke-width="3" stroke-linecap="round" stroke-linejoin="round"/>
<path d="M521.723 246.571L461.977 285.573" stroke="white" stroke-width="3" stroke-linecap="round" stroke-linejoin="round"/>
<path d="M362.824 76.4723L441.289 108.072L494.892 154.528L476.696 226.968L461.977 285.573L445.751 351.989L433.176 399.517L416.776 410.952" stroke="white" stroke-width="3" stroke-linecap="round" stroke-linejoin="round"/>
<path d="M556.551 42.6772L498.891 152.128L521.723 246.571" stroke="white" stroke-width="3" stroke-linecap="round" stroke-linejoin="round"/>
<path d="M379.166 358.319L441.288 108.072L556.551 42.6772" stroke="white" stroke-width="3" stroke-linecap="round" stroke-linejoin="round"/>
<path d="M5727.73 529.705C5727.73 529.705 5730.38 524.476 5736.07 529.705C5736.07 529.705 5738.26 531.327 5737.53 535.775" stroke="white" stroke-width="3" stroke-linecap="round" stroke-linejoin="round"/>
<path d="M5690.13 652.549C5690.13 652.549 5691.12 652.249 5691.72 651.287" stroke="white" stroke-width="3" stroke-linecap="round" stroke-linejoin="round"/>
<path d="M5687.81 651.888C5687.81 651.888 5689.2 651.527 5689.8 650.566" stroke="white" stroke-width="3" stroke-linecap="round" stroke-linejoin="round"/>
<path d="M5686.35 650.506L5688.34 649.724" stroke="white" stroke-width="3" stroke-linecap="round" stroke-linejoin="round"/>
<path d="M5532.51 391.054L5532.44 391.114V391.234L5534.36 395.261" stroke="white" stroke-width="3" stroke-linecap="round" stroke-linejoin="round"/>
<path d="M5543.63 388.891C5543.63 388.891 5549.25 385.104 5557.66 383.421L5567.06 381.919L5618.57 375.428L5642.6 372.423L5650.94 371.401L5742.69 359.862" stroke="white" stroke-width="3" stroke-linecap="round" stroke-linejoin="round"/>
<path d="M5687.61 648.583L5685.49 649.184" stroke="white" stroke-width="3" stroke-linecap="round" stroke-linejoin="round"/>
<path d="M5304.45 985.503L5308.88 977.209" stroke="white" stroke-width="3" stroke-linecap="round" stroke-linejoin="round"/>
<path d="M5553.62 384.263L5554.75 378.073V378.012" stroke="white" stroke-width="3" stroke-linecap="round" stroke-linejoin="round"/>
<path d="M5294.12 946.078L5294.25 945.597" stroke="white" stroke-width="3" stroke-linecap="round" stroke-linejoin="round"/>
<path d="M5511.92 419.361L5517.41 419.001" stroke="white" stroke-width="3" stroke-linecap="round" stroke-linejoin="round"/>
<path d="M5516.09 422.246L5464.98 545.331" stroke="white" stroke-width="3" stroke-linecap="round" stroke-linejoin="round"/>
<path d="M5356.61 806.225L5303.92 932.976L5301.67 939.226" stroke="white" stroke-width="3" stroke-linecap="round" stroke-linejoin="round"/>
<path d="M5299.28 956.715L5292.93 960.201" stroke="white" stroke-width="3" stroke-linecap="round" stroke-linejoin="round"/>
<path d="M5294.25 945.597L5295.97 938.986V938.866L5296.11 938.385L5298.55 931.714L5352.44 803.881" stroke="white" stroke-width="3" stroke-linecap="round" stroke-linejoin="round"/>
<path d="M5511.12 1040.49L5505.56 1043.44" stroke="white" stroke-width="3" stroke-linecap="round" stroke-linejoin="round"/>
<path d="M5301.14 966.812L5295.25 972.401" stroke="white" stroke-width="3" stroke-linecap="round" stroke-linejoin="round"/>
<path d="M5762.68 380.837L5771.55 377.411" stroke="white" stroke-width="3" stroke-linecap="round" stroke-linejoin="round"/>
<path d="M5312.72 979.072L5308.62 987.667" stroke="white" stroke-width="3" stroke-linecap="round" stroke-linejoin="round"/>
<path d="M5476.1 1046.56L5482.19 1048.13L5482.52 1048.19H5482.66L5488.68 1048.31H5489.54L5496.56 1046.87L5503.71 1044.22L5505.63 1043.44" stroke="white" stroke-width="3" stroke-linecap="round" stroke-linejoin="round"/>
<path d="M5748.78 360.283L5754.14 352.53" stroke="white" stroke-width="3" stroke-linecap="round" stroke-linejoin="round"/>
<path d="M5754.14 352.47L5759.57 354.153" stroke="white" stroke-width="3" stroke-linecap="round" stroke-linejoin="round"/>
<path d="M5761.49 371.221L5769.57 365.812" stroke="white" stroke-width="3" stroke-linecap="round" stroke-linejoin="round"/>
<path d="M5769.57 365.811L5770.1 365.632H5770.23" stroke="white" stroke-width="3" stroke-linecap="round" stroke-linejoin="round"/>
<path d="M5771.49 371.221L5771.55 377.411" stroke="white" stroke-width="3" stroke-linecap="round" stroke-linejoin="round"/>
<path d="M5753.08 361.785L5759.17 354.333H5759.24" stroke="white" stroke-width="3" stroke-linecap="round" stroke-linejoin="round"/>
<path d="M5510.99 1040.37L5517.88 1035.33L5524.1 1029.02L5529.66 1021.74" stroke="white" stroke-width="3" stroke-linecap="round" stroke-linejoin="round"/>
<path d="M5534.43 1013.75L5538.2 1005.22L5716.41 530.847L5718.59 524.717L5768.91 391.415L5771.09 384.323L5771.55 377.472" stroke="white" stroke-width="3" stroke-linecap="round" stroke-linejoin="round"/>
<path d="M5771.49 371.161L5770.49 365.692L5770.3 365.271L5767.71 361.064L5767.52 360.884" stroke="white" stroke-width="3" stroke-linecap="round" stroke-linejoin="round"/>
<path d="M5770.49 365.752L5770.43 365.692L5770.23 365.632" stroke="white" stroke-width="3" stroke-linecap="round" stroke-linejoin="round"/>
<path d="M5764.01 357.038L5759.57 354.153L5759.24 354.333" stroke="white" stroke-width="3" stroke-linecap="round" stroke-linejoin="round"/>
<path d="M5741.7 352.229L5714.03 355.956L5713.89 355.896L5582.69 373.745L5563.55 376.39" stroke="white" stroke-width="3" stroke-linecap="round" stroke-linejoin="round"/>
<path d="M5527.34 396.103H5527.28V396.163L5522.58 401.572L5518.34 407.341" stroke="white" stroke-width="3" stroke-linecap="round" stroke-linejoin="round"/>
<path d="M5292.99 960.201L5292.93 960.321L5293.66 966.752L5293.72 966.992L5295.24 972.522" stroke="white" stroke-width="3" stroke-linecap="round" stroke-linejoin="round"/>
<path d="M5496.56 1046.93L5496.29 1046.26V1045.78L5496.36 1036.53" stroke="white" stroke-width="3" stroke-linecap="round" stroke-linejoin="round"/>
<path d="M5496.56 1046.93L5496.69 1047.05L5496.89 1047.17L5522.97 1056H5523.1L5530.25 1053.48V1053.42H5530.39" stroke="white" stroke-width="3" stroke-linecap="round" stroke-linejoin="round"/>
<path d="M5789.49 408.363L5791.35 401.992L5791.55 401.271L5791.48 401.151L5771.09 384.383" stroke="white" stroke-width="3" stroke-linecap="round" stroke-linejoin="round"/>
<path d="M5534.23 1013.69L5529.53 1021.68" stroke="white" stroke-width="3" stroke-linecap="round" stroke-linejoin="round"/>
<path d="M5475.84 1046.44L5445.58 1035.63L5308.55 987.667" stroke="white" stroke-width="3" stroke-linecap="round" stroke-linejoin="round"/>
<path d="M5300.74 982.318L5297.56 977.931" stroke="white" stroke-width="3" stroke-linecap="round" stroke-linejoin="round"/>
<path d="M5297.56 977.931L5295.31 972.942L5295.25 972.582V972.401" stroke="white" stroke-width="3" stroke-linecap="round" stroke-linejoin="round"/>
<path d="M5292.93 960.261V959.48L5293.19 954.011L5293.26 953.23L5294.12 946.138" stroke="white" stroke-width="3" stroke-linecap="round" stroke-linejoin="round"/>
<path d="M5460.41 542.987L5511.79 419.662L5511.85 419.361L5512.12 418.82L5514.76 413.231" stroke="white" stroke-width="3" stroke-linecap="round" stroke-linejoin="round"/>
<path d="M5484.97 1037.49L5482.52 1047.47" stroke="white" stroke-width="3" stroke-linecap="round" stroke-linejoin="round"/>
<path d="M5482.52 1047.53L5482.59 1047.95L5482.79 1048.25L5485.44 1049.15L5505.43 1055.88L5508.87 1057.02L5509.07 1057.08L5515.82 1057.2H5515.96H5516.09L5523.04 1056.06" stroke="white" stroke-width="3" stroke-linecap="round" stroke-linejoin="round"/>
<path d="M5544.09 1044.4L5544.02 1044.46L5543.89 1044.4L5517.88 1035.33" stroke="white" stroke-width="3" stroke-linecap="round" stroke-linejoin="round"/>
<path d="M5510.39 1039.77L5510.46 1039.83L5510.66 1040.13L5510.79 1040.31L5510.99 1040.43L5511.12 1040.49L5512.31 1040.92L5514.83 1041.82L5537.27 1049.51" stroke="white" stroke-width="3" stroke-linecap="round" stroke-linejoin="round"/>
<path d="M5537.4 1049.51L5544.02 1044.46L5544.09 1044.4L5550.11 1038.21L5550.84 1037.13L5555.74 1031.12L5560.11 1023.73L5560.31 1023.19L5563.88 1014.77L5695.36 661.143L5699.2 650.806L5740.84 538.72L5743.95 530.727L5789.49 408.363V408.303L5789.43 408.183" stroke="white" stroke-width="3" stroke-linecap="round" stroke-linejoin="round"/>
<path d="M5791.55 401.211L5792.47 394.48" stroke="white" stroke-width="3" stroke-linecap="round" stroke-linejoin="round"/>
<path d="M5792.14 388.229L5790.22 386.607L5772.88 372.183L5771.95 371.341L5771.69 371.281L5771.49 371.221" stroke="white" stroke-width="3" stroke-linecap="round" stroke-linejoin="round"/>
<path d="M5771.42 371.221L5762.62 375.789H5762.55" stroke="white" stroke-width="3" stroke-linecap="round" stroke-linejoin="round"/>
<path d="M5490.53 1037.55H5489.74" stroke="white" stroke-width="3" stroke-linecap="round" stroke-linejoin="round"/>
<path d="M5484.97 1037.49L5479.41 1036.23L5312.79 979.072H5312.72L5308.88 977.209L5308.82 977.149L5305.7 974.505V974.445L5303.12 971.019V970.959L5301.47 967.473L5301.2 966.812L5301.14 966.752L5299.88 962.004V961.944L5299.28 956.715V956.355V955.934L5299.35 951.066L5299.42 950.645L5300.21 945.176L5301.67 939.226" stroke="white" stroke-width="3" stroke-linecap="round" stroke-linejoin="round"/>
<path d="M5516.09 422.246L5517.41 419.001L5519.13 415.395L5519.93 413.772L5521.85 410.466L5522.91 408.844L5525.29 405.538L5526.35 404.036L5530.25 399.588L5534.49 395.502L5538.99 391.895L5537.87 386.787L5538.13 386.607L5543.56 383.061L5544.16 382.76L5549.19 380.116L5554.68 378.012L5554.81 377.952L5555.54 377.832L5559.25 376.991L5564.08 376.33" stroke="white" stroke-width="3" stroke-linecap="round" stroke-linejoin="round"/>
<path d="M5764.01 357.038L5767.52 360.884" stroke="white" stroke-width="3" stroke-linecap="round" stroke-linejoin="round"/>
<path d="M5768.84 391.595L5789.43 408.183" stroke="white" stroke-width="3" stroke-linecap="round" stroke-linejoin="round"/>
<path d="M5521.91 410.466L5526.35 409.986L5533.63 409.144L5540.58 408.423L5751.3 385.224L5762.22 384.022" stroke="white" stroke-width="3" stroke-linecap="round" stroke-linejoin="round"/>
<path d="M5690.86 652.489L5691.85 652.189L5692.78 651.648L5693.37 651.287C5693.37 651.287 5694.7 650.205 5695.56 648.583L5737.46 535.715" stroke="white" stroke-width="3" stroke-linecap="round" stroke-linejoin="round"/>
<path d="M5527.28 396.103L5527.34 396.163L5530.25 399.588L5530.06 399.408" stroke="white" stroke-width="3" stroke-linecap="round" stroke-linejoin="round"/>
<path d="M5767.58 360.884L5771.88 364.189L5786.71 376.57L5788.24 377.832L5788.3 377.952V378.073L5790.75 382.7L5790.82 382.76" stroke="white" stroke-width="3" stroke-linecap="round" stroke-linejoin="round"/>
<path d="M5555.74 1031.06V1031.12H5555.68L5555.54 1031.06L5529.66 1021.74L5529.53 1021.68L5529.26 1021.56L5529.06 1021.44L5528.93 1021.32L5528.73 1021.2L5528.67 1021.14L5522.84 1015.91H5522.77" stroke="white" stroke-width="3" stroke-linecap="round" stroke-linejoin="round"/>
<path d="M5519.93 413.772V413.712L5514.83 413.291V413.171L5518.27 407.401L5518.34 407.341H5518.4L5522.91 408.844" stroke="white" stroke-width="3" stroke-linecap="round" stroke-linejoin="round"/>
<path d="M5526.35 404.036L5522.58 401.572L5522.64 401.451" stroke="white" stroke-width="3" stroke-linecap="round" stroke-linejoin="round"/>
<path d="M5527.14 396.283L5527.28 396.102H5527.34L5532.37 391.234L5532.44 391.114L5532.51 391.054L5537.87 386.787" stroke="white" stroke-width="3" stroke-linecap="round" stroke-linejoin="round"/>
<path d="M5548.33 386.126L5549.19 380.176" stroke="white" stroke-width="3" stroke-linecap="round" stroke-linejoin="round"/>
<path d="M5303.92 932.976L5298.62 931.714" stroke="white" stroke-width="3" stroke-linecap="round" stroke-linejoin="round"/>
<path d="M5301.67 939.226L5295.97 938.866" stroke="white" stroke-width="3" stroke-linecap="round" stroke-linejoin="round"/>
<path d="M5300.14 945.176L5294.12 946.078" stroke="white" stroke-width="3" stroke-linecap="round" stroke-linejoin="round"/>
<path d="M5748.78 360.343H5748.85L5753.08 361.785L5753.15 361.845L5753.48 362.086L5756.66 364.189L5759.51 367.315L5761.49 371.221V371.281L5762.42 375.248L5762.55 375.789L5762.68 380.837L5762.29 384.022L5761.95 386.306" stroke="white" stroke-width="3" stroke-linecap="round" stroke-linejoin="round"/>
<path d="M5744.01 359.682V359.742L5748.78 360.343H5748.91L5753.08 361.785V361.845" stroke="white" stroke-width="3" stroke-linecap="round" stroke-linejoin="round"/>
<path d="M5760.1 392.376L5768.84 391.595" stroke="white" stroke-width="3" stroke-linecap="round" stroke-linejoin="round"/>
<path d="M5523.17 1028.35L5518.34 1021.8" stroke="white" stroke-width="3" stroke-linecap="round" stroke-linejoin="round"/>
<path d="M5563.88 1014.77L5538.2 1005.22L5538 1005.16L5537.8 1005.1L5537.6 1004.98L5537.34 1004.92L5537.21 1004.86H5537.14L5529.92 1002.21H5529.86" stroke="white" stroke-width="3" stroke-linecap="round" stroke-linejoin="round"/>
<path d="M5560.31 1023.25L5560.18 1023.19L5534.43 1013.75L5534.23 1013.69L5534.03 1013.57L5533.83 1013.51L5533.63 1013.39" stroke="white" stroke-width="3" stroke-linecap="round" stroke-linejoin="round"/>
<path d="M5533.56 1013.39L5526.68 1009.48" stroke="white" stroke-width="3" stroke-linecap="round" stroke-linejoin="round"/>
<path d="M5537.4 1049.51L5537.27 1049.57L5537.21 1049.63L5530.59 1053.3L5530.39 1053.42" stroke="white" stroke-width="3" stroke-linecap="round" stroke-linejoin="round"/>
<path d="M5792.47 394.48L5792.21 388.65L5792.27 388.47L5792.21 388.35V388.29L5792.14 387.929L5790.82 382.76L5790.75 382.7L5790.69 382.52L5788.3 378.012L5788.24 377.892V377.832L5784.66 373.926L5772.55 363.769L5768.18 360.163L5764.27 357.218L5764.01 357.038" stroke="white" stroke-width="3" stroke-linecap="round" stroke-linejoin="round"/>
<path d="M5764.01 357.038L5763.74 357.157" stroke="white" stroke-width="3" stroke-linecap="round" stroke-linejoin="round"/>
<path d="M5754.14 352.53H5754.01L5748.12 351.809V351.869L5744.01 359.682L5742.76 359.742" stroke="white" stroke-width="3" stroke-linecap="round" stroke-linejoin="round"/>
<path d="M5297.56 977.931L5297.63 977.57" stroke="white" stroke-width="3" stroke-linecap="round" stroke-linejoin="round"/>
<path d="M5293.79 966.512L5299.88 962.004" stroke="white" stroke-width="3" stroke-linecap="round" stroke-linejoin="round"/>
<path d="M5517.88 1035.33L5517.68 1035.21L5517.54 1035.09L5517.35 1034.91L5517.21 1034.79L5517.08 1034.6L5517.01 1034.54L5513.31 1026.91V1026.85" stroke="white" stroke-width="3" stroke-linecap="round" stroke-linejoin="round"/>
<path d="M5503.77 1044.28L5503.64 1044.1L5503.51 1043.86L5503.44 1043.68L5502.19 1034.36" stroke="white" stroke-width="3" stroke-linecap="round" stroke-linejoin="round"/>
<path d="M5510.39 1039.77V1039.71L5507.88 1031.12V1031.06" stroke="white" stroke-width="3" stroke-linecap="round" stroke-linejoin="round"/>
<path d="M5737.46 535.715L5729.78 530.847L5687.94 643.775" stroke="white" stroke-width="3" stroke-linecap="round" stroke-linejoin="round"/>
<path d="M5695.23 649.184C5692.64 652.91 5689.13 650.025 5689.13 650.025C5686.02 647.501 5687.15 643.715 5687.21 643.654" stroke="white" stroke-width="3" stroke-linecap="round" stroke-linejoin="round"/>
<path d="M5729.78 530.847C5729.78 530.847 5733.09 526.279 5736.86 530.666" stroke="white" stroke-width="3" stroke-linecap="round" stroke-linejoin="round"/>
<path d="M5727.73 529.705L5686.75 639.027L5684.9 644.015L5684.77 645.337L5684.83 646.659L5685.03 647.982L5685.49 649.184L5686.09 650.265L5686.88 651.167L5687.81 651.888L5688.74 652.309L5689.8 652.549L5690.86 652.489" stroke="white" stroke-width="3" stroke-linecap="round" stroke-linejoin="round"/>
<path d="M5730.91 527.421L5733.16 528.623" stroke="white" stroke-width="3" stroke-linecap="round" stroke-linejoin="round"/>
<path d="M5729.58 528.022L5731.57 529.104" stroke="white" stroke-width="3" stroke-linecap="round" stroke-linejoin="round"/>
<path d="M5728.39 528.743L5730.31 529.885" stroke="white" stroke-width="3" stroke-linecap="round" stroke-linejoin="round"/>
<path d="M5727.73 529.705L5729.78 530.847" stroke="white" stroke-width="3" stroke-linecap="round" stroke-linejoin="round"/>
<path d="M5685.03 647.922L5687.28 647.441" stroke="white" stroke-width="3" stroke-linecap="round" stroke-linejoin="round"/>
<path d="M5684.83 646.659L5687.02 646.179" stroke="white" stroke-width="3" stroke-linecap="round" stroke-linejoin="round"/>
<path d="M5684.77 645.337L5687.02 644.917" stroke="white" stroke-width="3" stroke-linecap="round" stroke-linejoin="round"/>
<path d="M5684.9 644.015L5687.22 643.654L5687.94 643.775L5691.45 645.998L5695.62 648.583" stroke="white" stroke-width="3" stroke-linecap="round" stroke-linejoin="round"/>
<path d="M5308.62 987.667L5304.45 985.503" stroke="white" stroke-width="3" stroke-linecap="round" stroke-linejoin="round"/>
<path d="M5304.45 985.503L5301 982.498L5300.74 982.318" stroke="white" stroke-width="3" stroke-linecap="round" stroke-linejoin="round"/>
<path d="M5293.66 966.75L5293.79 966.512" stroke="white" stroke-width="3" stroke-linecap="round" stroke-linejoin="round"/>
<path d="M5293.26 953.229L5299.35 951.066" stroke="white" stroke-width="3" stroke-linecap="round" stroke-linejoin="round"/>
<path d="M5539.06 391.896L5543.63 388.891L5543.56 383.121" stroke="white" stroke-width="3" stroke-linecap="round" stroke-linejoin="round"/>
<path d="M5490.54 1037.55L5489.28 1047.29L5489.54 1048.25L5516.09 1057.14" stroke="white" stroke-width="3" stroke-linecap="round" stroke-linejoin="round"/>
<path d="M5297.63 977.57L5297.69 977.51L5303.12 971.019" stroke="white" stroke-width="3" stroke-linecap="round" stroke-linejoin="round"/>
<path d="M5300.74 982.318L5305.77 974.565" stroke="white" stroke-width="3" stroke-linecap="round" stroke-linejoin="round"/>
<path d="M5759.51 367.315L5767.12 361.064L5767.52 360.884" stroke="white" stroke-width="3" stroke-linecap="round" stroke-linejoin="round"/>
<path d="M5756.66 364.189L5763.74 357.158" stroke="white" stroke-width="3" stroke-linecap="round" stroke-linejoin="round"/>
<path d="M5771.02 384.383L5761.96 386.306L5760.1 392.376L5706.94 533.131L5529.86 1002.21L5529.53 1003.11L5526.68 1009.48L5526.42 1009.9L5522.84 1015.91L5518.34 1021.8L5513.24 1026.85L5507.81 1031.12L5502.19 1034.3H5502.12L5496.36 1036.47V1036.53H5496.16L5490.54 1037.55" stroke="white" stroke-width="3" stroke-linecap="round" stroke-linejoin="round"/>
<path d="M5489.74 1037.55L5484.97 1037.49" stroke="white" stroke-width="3" stroke-linecap="round" stroke-linejoin="round"/>
<path d="M5741.7 352.23L5743.68 352.109L5748.12 351.869" stroke="white" stroke-width="3" stroke-linecap="round" stroke-linejoin="round"/>
<path d="M5528.73 1021.14H5528.67" stroke="white" stroke-width="3" stroke-linecap="round" stroke-linejoin="round"/>
<path d="M5523.24 1028.35L5523.37 1028.47L5523.57 1028.66L5523.77 1028.78L5523.97 1028.9L5524.1 1029.02L5550.11 1038.21" stroke="white" stroke-width="3" stroke-linecap="round" stroke-linejoin="round"/>
<path d="M5518.21 662.165L5516.09 701.41L5475.04 740.896" stroke="white" stroke-width="3" stroke-linecap="round" stroke-linejoin="round"/>
<path d="M5520.46 620.155L5518.21 662.165L5475.77 702.192L5475.04 740.896L5432.21 782.125" stroke="white" stroke-width="3" stroke-linecap="round" stroke-linejoin="round"/>
<path d="M5477.43 616.129L5476.57 660.663L5475.77 702.192L5431.48 744.021L5385.21 787.714" stroke="white" stroke-width="3" stroke-linecap="round" stroke-linejoin="round"/>
<path d="M5522.84 575.14L5520.46 620.155L5476.57 660.663L5430.69 703.093L5382.63 747.447" stroke="white" stroke-width="3" stroke-linecap="round" stroke-linejoin="round"/>
<path d="M5279.56 759.167L5228.18 727.734L5220.44 688.85" stroke="white" stroke-width="3" stroke-linecap="round" stroke-linejoin="round"/>
<path d="M5463.46 544.549L5417.45 584.155L5369.26 625.564L5318.81 668.957L5323.78 712.829L5382.63 747.447L5385.21 787.714L5387.53 825.156" stroke="white" stroke-width="3" stroke-linecap="round" stroke-linejoin="round"/>
<path d="M5350.52 486.553L5406 515.04L5463.46 544.55L5522.84 575.14" stroke="white" stroke-width="3" stroke-linecap="round" stroke-linejoin="round"/>
<path d="M5522.84 575.14L5477.43 616.129L5429.83 659.04L5379.85 704.115L5382.63 747.447" stroke="white" stroke-width="3" stroke-linecap="round" stroke-linejoin="round"/>
<path d="M5332.65 791.621L5279.56 759.167L5273.47 720.703L5220.44 688.85L5212.16 647.2" stroke="white" stroke-width="3" stroke-linecap="round" stroke-linejoin="round"/>
<path d="M5303.65 523.454L5359.53 553.264L5417.45 584.155L5477.43 616.129" stroke="white" stroke-width="3" stroke-linecap="round" stroke-linejoin="round"/>
<path d="M5254.6 562.039L5310.93 593.23L5369.26 625.564L5429.83 659.04L5430.69 703.093L5431.48 744.021L5432.21 782.125L5387.53 825.156" stroke="white" stroke-width="3" stroke-linecap="round" stroke-linejoin="round"/>
<path d="M5387.53 825.156L5332.65 791.621L5328.34 753.637L5323.78 712.829L5266.98 679.414L5259.96 635.06L5310.93 593.231L5359.52 553.264L5406 515.04" stroke="white" stroke-width="3" stroke-linecap="round" stroke-linejoin="round"/>
<path d="M5385.21 787.714L5328.34 753.637L5273.46 720.703L5266.98 679.414L5212.16 647.2L5203.29 602.426L5254.6 562.039L5303.65 523.454L5350.52 486.553" stroke="white" stroke-width="3" stroke-linecap="round" stroke-linejoin="round"/>
<path d="M5379.85 704.115L5318.81 668.956L5259.96 635.06L5203.29 602.426" stroke="white" stroke-width="3" stroke-linecap="round" stroke-linejoin="round"/>
<path d="M5097.97 651.167L5082.01 606.753L5081.02 603.988L5077.51 598.279" stroke="white" stroke-width="3" stroke-linecap="round" stroke-linejoin="round"/>
<path d="M5044.15 502.419L5045.27 504.162L5047.19 505.184L5049.78 505.484L5053.02 505.064L5056.73 503.862L5060.76 501.999L5064.94 499.474L5069.17 496.469L5073.28 493.044L5077.05 489.318L5080.29 485.531L5083.01 481.745L5084.99 478.199L5086.19 474.894L5086.58 472.069L5086.12 469.845L5084.86 468.223L5082.88 467.261" stroke="white" stroke-width="3" stroke-linecap="round" stroke-linejoin="round"/>
<path d="M5136.7 482.466L5140.87 484.389L5143.65 487.635L5144.77 492.202L5144.31 497.852L5142.19 504.403L5138.48 511.615L5133.32 519.187L5126.96 526.82L5119.55 534.152L5111.47 540.943L5103 546.893L5094.59 551.761L5086.45 555.367L5079.04 557.471L5072.61 558.132L5067.32 557.291L5063.48 555.007L5061.16 551.401" stroke="white" stroke-width="3" stroke-linecap="round" stroke-linejoin="round"/>
<path d="M5188 496.95L5193.3 498.453L5236.99 510.773L5245.99 514.68" stroke="white" stroke-width="3" stroke-linecap="round" stroke-linejoin="round"/>
<path d="M5105.71 656.576L5086.85 607.715L5067.85 558.613L5067.32 557.291L5047.39 505.845L5047.19 505.184L5026.34 451.334" stroke="white" stroke-width="3" stroke-linecap="round" stroke-linejoin="round"/>
<path d="M5116.31 659.16L5094.73 609.337L5072.61 558.132L5049.78 505.484L5026.34 451.334" stroke="white" stroke-width="3" stroke-linecap="round" stroke-linejoin="round"/>
<path d="M5026.34 451.334L5082.88 467.261L5085.79 468.102L5136.7 482.466L5140.14 483.428L5142.72 484.149L5188 496.95L5194.56 499.835L5197.73 500.737L5245.99 514.68L5252.35 521.291L5255.66 530.426L5255.79 541.785L5252.68 554.947L5246.79 568.229" stroke="white" stroke-width="3" stroke-linecap="round" stroke-linejoin="round"/>
<path d="M5206.27 617.932L5194.22 628.149L5177.41 639.688L5160.53 648.823L5144.24 655.254L5129.28 658.739L5116.31 659.16L5105.71 656.576L5097.97 651.167L5093.14 643.234L5080.29 606.392L5079.04 602.666L5077.51 598.279L5063.02 556.569L5062.16 554.226L5061.16 551.401L5044.61 503.802L5044.15 502.419L5026.34 451.334" stroke="white" stroke-width="3" stroke-linecap="round" stroke-linejoin="round"/>
<path d="M5129.28 658.739L5104.46 608.676L5079.04 557.471L5053.02 505.064L5026.34 451.334" stroke="white" stroke-width="3" stroke-linecap="round" stroke-linejoin="round"/>
<path d="M5144.24 655.254L5115.64 605.791L5086.45 555.367L5056.73 503.862L5026.34 451.334" stroke="white" stroke-width="3" stroke-linecap="round" stroke-linejoin="round"/>
<path d="M5026.34 451.334L5084.86 468.222L5085.85 468.463L5140.87 484.389L5142.92 484.93L5194.56 499.835L5198.99 504.763L5201.18 511.615L5200.84 520.089L5198.06 530.005L5192.9 540.823L5185.49 552.242L5176.09 563.661L5165.16 574.72L5153.11 584.817L5140.47 593.651L5127.83 600.743L5115.64 605.791L5104.46 608.676L5094.73 609.337L5086.85 607.715L5081.02 603.988L5064.14 556.75L5063.48 555.007L5046.33 507.167L5045.61 505.004L5045.27 504.162L5026.34 451.334Z" stroke="white" stroke-width="3" stroke-linecap="round" stroke-linejoin="round"/>
<path d="M5160.53 648.823L5127.83 600.743L5094.59 551.762L5060.76 501.999L5026.34 451.334" stroke="white" stroke-width="3" stroke-linecap="round" stroke-linejoin="round"/>
<path d="M5177.41 639.688L5140.47 593.651L5103 546.893L5064.94 499.474L5026.34 451.334" stroke="white" stroke-width="3" stroke-linecap="round" stroke-linejoin="round"/>
<path d="M5194.22 628.149L5153.11 584.817L5111.47 540.943L5069.17 496.469L5026.34 451.334" stroke="white" stroke-width="3" stroke-linecap="round" stroke-linejoin="round"/>
<path d="M5026.34 451.334L5086.12 469.845L5087.84 470.386L5143.65 487.635L5198.99 504.763L5252.35 521.291" stroke="white" stroke-width="3" stroke-linecap="round" stroke-linejoin="round"/>
<path d="M5026.34 451.334L5086.58 472.069L5144.77 492.202L5201.18 511.615L5255.66 530.426" stroke="white" stroke-width="3" stroke-linecap="round" stroke-linejoin="round"/>
<path d="M5026.34 451.334L5086.19 474.894L5144.31 497.852L5200.84 520.089L5255.79 541.785" stroke="white" stroke-width="3" stroke-linecap="round" stroke-linejoin="round"/>
<path d="M5026.34 451.334L5073.28 493.044L5119.55 534.152L5159.8 569.852L5204.75 609.878" stroke="white" stroke-width="3" stroke-linecap="round" stroke-linejoin="round"/>
<path d="M5026.34 451.334L5077.05 489.318L5126.96 526.82L5166.75 556.69L5215.14 593.05" stroke="white" stroke-width="3" stroke-linecap="round" stroke-linejoin="round"/>
<path d="M5026.34 451.334L5084.99 478.199L5142.19 504.403L5198.06 530.005L5252.68 554.947" stroke="white" stroke-width="3" stroke-linecap="round" stroke-linejoin="round"/>
<path d="M5026.34 451.334L5080.29 485.531L5133.32 519.187L5185.49 552.242L5230.57 580.85" stroke="white" stroke-width="3" stroke-linecap="round" stroke-linejoin="round"/>
<path d="M5026.34 451.334L5083.01 481.745L5138.48 511.615L5192.9 540.823L5245.6 569.13" stroke="white" stroke-width="3" stroke-linecap="round" stroke-linejoin="round"/>
<path d="M5274.66 432.583L5272.14 434.927L5263.53 442.981L5262.14 444.243L5255.92 447.668L5253.67 448.87L5247.65 452.176L5238.71 456.503L5221.3 460.65L5209.25 460.349L5196.87 454.82L5184.96 444.183L5174.43 429.097L5166.09 410.527L5160.73 389.912L5158.67 368.757L5173.44 352.951L5190.78 339.428L5209.25 329.151L5227.39 322.901L5243.94 321.038L5257.58 323.562L5267.57 330.173" stroke="white" stroke-width="3" stroke-linecap="round" stroke-linejoin="round"/>
<path d="M5191.18 459.508L5181.18 455.902L5175.16 453.799L5174.5 453.558L5162.98 448.209L5154.3 438.293L5141.73 428.977L5138.81 416.717L5130.8 406.199L5125.77 393.578L5131.4 385.345L5142.59 376.871L5158.67 368.757L5178.47 361.605L5200.51 356.136L5223.02 352.65L5244.34 351.388L5262.67 352.53L5276.84 355.836L5285.98 361.004L5289.62 367.615L5292 384.323" stroke="white" stroke-width="3" stroke-linecap="round" stroke-linejoin="round"/>
<path d="M5290.15 400.37L5286.57 398.206L5277.5 394.9L5263.27 390.693L5244.8 385.825L5223.48 380.657L5200.78 375.668L5178.6 371.161L5158.67 367.555L5144.24 359.862L5134.51 353.912L5130.14 350.186" stroke="white" stroke-width="3" stroke-linecap="round" stroke-linejoin="round"/>
<path d="M5284.19 418.039L5279.89 417.979L5270.49 415.635L5256.45 410.947L5238.71 404.336L5218.45 396.103L5197.27 386.967L5176.81 377.592L5158.67 368.757L5142.46 366.233L5131.14 365.031L5125.38 365.211" stroke="white" stroke-width="3" stroke-linecap="round" stroke-linejoin="round"/>
<path d="M5178.6 372.363L5179.2 366.894L5178.47 361.605L5176.55 356.857L5173.44 352.951L5169.53 350.186L5164.96 348.744L5160.13 348.684L5155.36 350.006L5150.86 352.65L5147.09 356.436L5144.24 361.064L5142.46 366.233L5141.86 371.642L5142.59 376.87L5144.51 381.558L5147.49 385.465L5151.39 388.229L5155.89 389.792L5160.73 389.912L5165.56 388.59L5169.99 386.006L5173.9 382.279L5176.81 377.592L5178.6 372.363Z" stroke="white" stroke-width="3" stroke-linecap="round" stroke-linejoin="round"/>
<path d="M5262.14 444.243L5255.06 447.608L5244.47 446.647L5231.16 441.358L5215.87 431.862L5199.85 418.82L5184.09 403.134L5169.99 386.006L5158.67 368.757L5164.96 348.744L5174.36 331.315" stroke="white" stroke-width="3" stroke-linecap="round" stroke-linejoin="round"/>
<path d="M5125.9 400.971L5125.77 393.578L5123.92 379.575L5125.38 365.211L5130.14 351.328L5137.82 338.947L5140.47 334.861L5144.57 330.774L5148.02 327.288L5152.78 322.54" stroke="white" stroke-width="3" stroke-linecap="round" stroke-linejoin="round"/>
<path d="M5174.36 331.315L5183.17 334.139L5190.78 339.428L5196.74 346.941L5200.51 356.136L5201.9 366.353L5200.78 376.871L5197.27 386.967L5191.58 395.922L5184.09 403.134L5175.42 408.123L5166.09 410.527L5156.82 410.226L5148.15 407.281L5140.73 401.872L5135.04 394.36L5131.4 385.345L5130.08 375.308L5131.13 365.031L5134.51 355.114L5140.01 346.28L5147.22 339.008L5155.76 333.899L5165.03 331.255L5174.36 331.315ZM5174.36 331.315L5186.01 317.852L5199.06 309.258L5212.49 306.013L5229.31 311.061L5242.55 313.405L5253.14 320.437L5257.38 323.321L5257.84 323.622L5267.57 330.173L5274.86 339.188L5278.76 344.056L5285.98 361.004L5288.69 379.876L5286.57 399.348L5279.89 417.979L5269.1 434.446L5255.06 447.608L5238.71 456.503L5227.46 456.022L5214.55 450.493L5200.91 440.216L5187.54 425.792L5175.42 408.123L5165.56 388.59L5158.67 368.757L5160.13 348.684L5165.03 331.255L5172.91 317.852L5183.1 309.258L5194.75 306.013H5212.49L5225.34 308.176L5232.82 310.46L5242.55 313.405L5257.58 323.562L5269.29 338.046L5276.84 355.836L5279.69 375.669L5277.5 396.103L5270.49 415.635L5259.23 432.884L5244.47 446.647L5227.46 456.022L5209.25 460.349L5191.18 459.508L5179.26 453.979L5169.07 443.461L5161.32 428.557L5156.82 410.226L5155.89 389.792L5158.67 368.757L5155.36 350.006L5155.76 333.899L5159.93 321.579L5172.91 317.852H5186.01L5198.46 321.699L5209.25 329.151L5217.66 339.729L5223.02 352.65L5225.01 367.014L5223.48 381.859L5218.45 396.103L5210.38 408.724L5199.85 418.82L5187.54 425.792L5174.43 429.097L5161.32 428.557L5149.21 424.349L5138.81 416.717L5140.73 401.872L5147.49 385.465L5158.67 368.757L5169.53 350.186L5183.17 334.139L5198.46 321.699L5214.22 313.886L5229.31 311.061L5243.94 321.038L5255.33 335.161L5262.67 352.53L5265.39 371.882L5263.27 391.835L5256.45 410.947L5245.46 427.835L5231.16 441.358L5214.55 450.493L5196.87 454.82L5179.26 453.979L5162.98 448.209L5156.09 443.101L5149.08 437.932L5141.73 428.977L5132.06 416.236L5129.55 409.926L5125.91 400.971L5125.04 394.54L5123.65 384.022L5123.92 379.575L5130.08 375.308L5141.86 371.642L5158.67 368.757L5173.9 382.28L5191.58 395.922L5210.38 408.724L5228.78 419.602L5245.46 427.835L5259.23 432.884L5269.1 434.446L5274.66 432.583L5284.19 418.039L5290.15 401.572L5292 384.323L5288.69 379.876L5279.69 375.669L5265.39 371.882L5246.72 368.937L5225.01 367.014L5201.9 366.353L5179.2 366.894L5158.67 368.757L5147.09 356.437L5140.01 346.28L5137.82 338.947L5147.95 328.791L5152.78 322.54L5161.26 317.432L5167.28 313.826L5183.1 309.258H5199.06L5214.22 313.886L5227.39 322.901L5237.72 335.702L5244.34 351.388L5246.72 368.937L5244.8 387.027L5238.71 404.336L5228.78 419.602L5215.87 431.862L5200.91 440.216L5184.96 444.183L5169.07 443.461L5154.3 438.293L5149.21 424.349L5148.15 407.281L5151.39 388.229L5158.67 368.757L5150.86 352.65L5147.22 339.008L5147.95 328.791L5159.93 321.579L5167.28 313.826" stroke="white" stroke-width="3" stroke-linecap="round" stroke-linejoin="round"/>
<path d="M5132.06 416.236L5130.8 406.199L5135.04 394.36L5144.51 381.558L5158.67 368.757L5176.55 356.857L5196.74 346.941L5217.66 339.729L5237.72 335.702L5255.33 335.161L5269.29 338.046L5278.76 344.056L5283.2 352.59L5285.58 358.179L5287.04 361.605L5289.62 367.615" stroke="white" stroke-width="3" stroke-linecap="round" stroke-linejoin="round"/>
<path d="M5624.72 381.678L5654.71 377.832C5654.71 377.832 5657.36 377.832 5656.3 381.077C5656.3 381.077 5656.5 381.678 5654.98 382.64C5654.05 383.181 5652.99 383.542 5651.93 383.662L5622.8 387.087C5622.8 387.087 5620.68 386.607 5622.07 383.542C5622.07 383.542 5622.8 382.159 5624.79 381.678H5624.72Z" stroke="white" stroke-width="3" stroke-miterlimit="10"/>
<path d="M2595.74 562.209V210.029H2794.19V248.962H2675.2V366.355H2754.66V405.817H2675.2V523.211H2794.19V562.209H2595.74Z" fill="white"/>
<path d="M3190.6 562.209V210.029H3349.52C3371.09 210.029 3389.66 217.762 3405.21 233.296C3420.76 248.763 3428.5 267.205 3428.5 288.489V327.488C3428.5 348.773 3420.69 367.148 3405.21 382.682C3389.66 398.215 3371.09 405.949 3349.52 405.949H3270.06V562.342H3190.6V562.209ZM3270.06 366.355H3309.58C3320.68 366.355 3330.13 362.521 3337.87 354.854C3345.61 347.186 3349.52 338.064 3349.52 327.422V288.423C3349.52 277.451 3345.61 268.131 3337.87 260.463C3330.06 252.795 3320.68 248.962 3309.58 248.962H3270.06V366.355Z" fill="white"/>
<path d="M3533.3 210.029H3612.76C3634.34 210.029 3652.9 217.762 3668.45 233.296C3684 248.763 3691.74 267.205 3691.74 288.489V483.815C3691.74 505.099 3683.93 523.475 3668.45 539.008C3652.9 554.476 3634.34 562.276 3612.76 562.276H3533.3C3511.72 562.276 3493.09 554.608 3477.4 539.273C3461.72 523.938 3453.84 505.496 3453.84 483.881V288.556C3453.84 266.941 3461.72 248.499 3477.4 233.164C3493.09 217.828 3511.72 210.161 3533.3 210.161V210.029ZM3533.3 288.423V483.749C3533.3 494.391 3537.21 503.645 3544.95 511.445C3552.69 519.311 3562 523.211 3572.76 523.211C3583.51 523.211 3593.31 519.311 3601.05 511.445C3608.79 503.645 3612.69 494.391 3612.69 483.749V288.423C3612.69 277.451 3608.79 268.131 3601.05 260.463C3593.24 252.795 3583.85 248.962 3572.76 248.962C3561.66 248.962 3552.69 252.795 3544.95 260.463C3537.14 268.131 3533.3 277.451 3533.3 288.423Z" fill="white"/>
<path d="M2599.03 865.41V700.359H2714.45V719.858H2621.7V770.953H2701.98V790.453H2621.7V865.41H2599.1H2599.03Z" fill="white"/>
<path d="M2744.32 865.41V700.359H2868.03V719.858H2766.99V770.424H2861.59V789.792H2766.99V845.977H2872V865.476H2744.39L2744.32 865.41Z" fill="white"/>
<path d="M2895.5 812.398L2916.87 810.613C2917.9 818.876 2920.23 825.618 2923.92 830.906C2927.62 836.194 2933.38 840.49 2941.12 843.729C2948.93 846.968 2957.63 848.621 2967.35 848.621C2975.98 848.621 2983.59 847.365 2990.23 844.919C2996.88 842.474 3001.74 839.036 3004.96 834.74C3008.18 830.443 3009.82 825.684 3009.82 820.594C3009.82 815.505 3008.25 810.878 3005.17 807.044C3002.08 803.21 2996.95 799.905 2989.75 797.327C2985.16 795.609 2975.03 792.899 2959.27 789.263C2943.58 785.628 2932.56 782.19 2926.25 778.951C2918.1 774.853 2912.01 769.697 2907.96 763.55C2903.99 757.403 2901.94 750.595 2901.94 742.993C2901.94 734.664 2904.4 726.865 2909.27 719.594C2914.2 712.323 2921.32 706.836 2930.71 703.135C2940.09 699.433 2950.57 697.516 2962.08 697.516C2974.75 697.516 2985.92 699.499 2995.64 703.399C3005.3 707.365 3012.77 713.116 3017.98 720.783C3023.18 728.451 3025.99 737.11 3026.4 746.827L3004.69 748.413C3003.52 737.969 2999.55 730.103 2992.84 724.749C2986.12 719.395 2976.19 716.751 2963.04 716.751C2949.89 716.751 2939.41 719.197 2933.1 724.022C2926.87 728.848 2923.72 734.731 2923.72 741.539C2923.72 747.488 2925.91 752.379 2930.36 756.147C2934.75 759.981 2946.12 763.881 2964.48 767.913C2982.9 771.945 2995.51 775.448 3002.36 778.423C3012.29 782.851 3019.69 788.47 3024.41 795.278C3029.14 802.086 3031.54 809.886 3031.54 818.744C3031.54 827.601 3028.94 835.797 3023.73 843.597C3018.52 851.331 3011.06 857.412 3001.26 861.709C2991.53 866.005 2980.51 868.186 2968.31 868.186C2952.83 868.186 2939.89 866.005 2929.4 861.643C2918.92 857.28 2910.7 850.736 2904.81 842.011C2898.85 833.286 2895.7 823.371 2895.43 812.332L2895.5 812.398Z" fill="white"/>
<path d="M3106.14 865.41V719.858H3049.76V700.359H3185.32V719.858H3128.74V865.41H3106.07H3106.14Z" fill="white"/>
<path d="M3212.38 865.41V700.359H3235.05V865.41H3212.38Z" fill="white"/>
<path d="M3323.83 865.41L3257.59 700.359H3282.11L3326.57 820.264C3330.13 829.848 3333.14 838.904 3335.54 847.299C3338.21 838.309 3341.23 829.254 3344.79 820.264L3391.03 700.359H3414.11L3347.12 865.41H3323.9H3323.83Z" fill="white"/>
<path d="M3397.81 865.41L3463.5 700.359H3487.89L3557.89 865.41H3532.14L3512.2 815.439H3440.69L3421.92 865.41H3397.88H3397.81ZM3447.13 797.592H3505.15L3487.27 751.85C3481.86 737.969 3477.75 726.534 3475.14 717.611C3472.95 728.187 3469.87 738.696 3465.9 749.14L3447.13 797.526V797.592Z" fill="white"/>
<path d="M3575.02 865.41V700.359H3597.62V845.911H3681.88V865.41H3575.02Z" fill="white"/>
<path d="M2957.83 216V331.652C2957.83 339.75 2960.99 346.708 2967.83 352.837C2974.68 358.976 2982.8 362.051 2992.5 362.051C3002.27 362.051 3010.86 358.931 3017.66 352.837C3024.5 346.709 3027.66 339.75 3027.66 331.652V216H3121V313.245C3121 325.952 3114.99 337.243 3106.84 346.731C3098.68 356.235 3087.98 364.417 3077.55 371.052C3067.11 377.695 3056.71 382.938 3048.94 386.521C3056.71 390.125 3067.11 395.398 3077.56 402.062C3087.98 408.713 3098.68 416.903 3106.84 426.389C3114.98 435.855 3121 447.112 3121 459.755V557H3027.66V441.348C3027.66 433.25 3024.5 426.291 3017.66 420.163C3010.84 414.053 3002.59 410.949 2992.5 410.949C2982.8 410.949 2974.68 414.024 2967.83 420.163C2960.99 426.289 2957.83 433.287 2957.83 441.348V557H2864V459.755C2864 447.036 2870.05 435.74 2878.25 426.255C2886.45 416.753 2897.22 408.573 2907.71 401.939C2918.18 395.314 2928.61 390.081 2936.43 386.5C2928.61 382.919 2918.18 377.686 2907.71 371.061C2897.22 364.427 2886.45 356.247 2878.25 346.745C2870.05 337.26 2864 325.964 2864 313.245V216H2957.83Z" fill="url(#paint4_linear_18_618)" stroke="white" stroke-width="12"/>
<path d="M2485.71 362.184H2100.29C2086.99 362.184 2076.2 372.333 2076.2 384.854V747.515C2076.2 760.035 2086.99 770.184 2100.29 770.184H2485.71C2499.01 770.184 2509.8 760.035 2509.8 747.515V384.854C2509.8 372.333 2499.01 362.184 2485.71 362.184ZM2482.19 691.109H2103.71V529.643H2482.19V691.109Z" fill="white"/>
<path d="M2139.48 402.627V394.696C2137.55 394.212 2134.52 393.498 2130.54 393.498C2117.99 393.498 2111.46 400.714 2111.46 413.082C2111.46 424.327 2118.67 432.258 2129.42 432.258C2132 432.258 2135.44 431.977 2138.37 431.263L2138.53 420.375H2132.51V414.561H2151.92V420.375H2146.5L2146.36 436.159C2142.84 437.358 2135.9 438.48 2130.26 438.48C2111.1 438.48 2102.16 427.464 2102.16 413.362C2102.16 397.935 2113.14 387.25 2130.64 387.25C2136.8 387.25 2143.49 388.602 2147.04 389.953V402.627H2139.51H2139.48Z" fill="#231F20"/>
<path d="M2156.04 431.824H2161.24L2161.54 393.906H2156.04V388.092H2179.42C2190.26 388.092 2195.36 393.957 2195.36 401.173C2195.36 409.741 2189.51 413.617 2182.81 414.255V414.382C2185.74 414.612 2187.69 416.932 2189.51 419.763L2195.22 428.815C2196.71 431.161 2198.15 431.799 2199.88 431.799H2201.84V437.587H2196.96C2192.51 437.587 2190.48 437.179 2187.39 432.36L2180.18 420.834C2178.01 417.289 2176.88 416.524 2174.38 416.524H2169.88L2169.72 431.799H2175.82V437.587H2156.04V431.799V431.824ZM2176.42 410.328C2182.35 410.328 2186.5 407.37 2186.5 402.04C2186.5 396.711 2183.11 393.906 2177.01 393.906H2170.02L2169.88 410.302H2176.42V410.328Z" fill="#231F20"/>
<path d="M2204.11 431.824H2208.61L2227.72 388.092H2237.04L2254.71 431.824H2259.37V437.613H2240.13V431.824H2244.95L2240.45 419.508H2221.94L2217.07 431.824H2222.46V437.613H2204.11V431.824ZM2233.08 399.286C2232.24 397.093 2231.97 395.818 2231.73 394.747H2231.56C2231.35 395.742 2231.05 397.068 2230.13 399.286L2224.36 413.286H2238.26L2233.08 399.286Z" fill="#231F20"/>
<path d="M2262.21 431.824H2267.5L2267.8 393.906H2261.7V388.117H2298.69L2298.99 401.122H2292L2291.54 393.906H2276.28L2276.14 409.18H2292.51V415.428H2276.14L2275.98 431.824H2282.46V437.638H2262.21V431.824Z" fill="#231F20"/>
<path d="M2305.68 431.824H2311.02L2311.32 393.906H2305.68V388.117H2325.09V393.906H2319.75L2319.45 431.824H2325.09V437.638H2305.68V431.824Z" fill="#231F20"/>
<path d="M2341.27 423.919V430.498C2342.84 431.289 2346.6 432.258 2350.8 432.258C2357.5 432.258 2361.92 429.427 2361.92 424.123C2361.92 420.145 2359.37 418.59 2353.7 417.111L2344.38 414.637C2338.37 413.005 2332.95 409.69 2332.95 401.76C2332.95 391.993 2341.73 387.25 2352.78 387.25C2359.64 387.25 2364.76 388.602 2368.72 389.647V400.612H2360.75V394.671C2359.61 394.237 2356.93 393.472 2352.84 393.472C2345.01 393.472 2341.78 396.787 2341.78 400.612C2341.78 404.922 2345.17 406.426 2349.91 407.548L2358.01 409.537C2364.03 411.016 2370.72 414.127 2370.72 422.823C2370.72 432.666 2362.97 438.454 2350.51 438.454C2346.69 438.454 2337.36 437.536 2332.76 435.828V423.868H2341.18L2341.27 423.919Z" fill="#231F20"/>
<path d="M2414.06 402.627V394.697C2412.1 394.212 2409.1 393.498 2405.11 393.498C2392.54 393.498 2386.01 400.715 2386.01 413.082C2386.01 424.328 2393.22 432.258 2403.97 432.258C2407.61 432.258 2411.43 431.901 2413.38 431.544L2413.68 422.619H2421.18L2420.88 436.134C2417.5 437.18 2410.72 438.455 2404.49 438.455C2385.63 438.455 2376.68 427.439 2376.68 413.337C2376.68 397.91 2387.66 387.225 2405.17 387.225C2411.78 387.225 2418.01 388.577 2421.56 389.928V402.602H2414.03L2414.06 402.627Z" fill="#231F20"/>
<path d="M2462.75 431.824H2468.04L2468.17 415.912H2443.76L2443.59 431.824H2449.23V437.638H2429.83V431.824H2435.09L2435.38 393.906H2429.83V388.117H2449.23V393.906H2443.89L2443.76 409.69H2468.17L2468.31 393.906H2462.75V388.117H2482.16V393.906H2476.82L2476.52 431.824H2482.16V437.638H2462.75V431.824Z" fill="#231F20"/>
<path d="M2103.71 506.896H2110.32L2110.7 459.976H2103.71V452.785H2127.72V459.976H2121.1L2120.73 506.896H2140.07L2141.02 496.569H2149.78L2148.83 514.087H2103.71V506.896Z" fill="#231F20"/>
<path d="M2166.39 506.897H2172.89L2173.27 488.766L2150.64 459.951H2144.98V452.76H2168.8V459.951H2162.46C2163.22 460.64 2163.76 461.252 2164.3 462.042L2179.29 481.218L2194.09 462.042C2194.63 461.252 2195.3 460.64 2196.04 459.951H2188.69V452.76H2211.4V459.951H2205.63L2183.65 488.766L2183.27 506.897H2190.16V514.088H2166.33V506.897H2166.39Z" fill="#231F20"/>
<path d="M2255.82 470.738V460.92C2253.41 460.308 2249.69 459.441 2244.76 459.441C2229.21 459.441 2221.13 468.366 2221.13 483.692C2221.13 497.615 2230.07 507.432 2243.38 507.432C2247.85 507.432 2252.59 506.999 2255.01 506.54L2255.39 495.498H2264.68L2264.3 512.226C2260.13 513.526 2251.75 515.108 2244.03 515.108C2220.67 515.108 2209.61 501.465 2209.61 484.023C2209.61 464.949 2223.22 451.715 2244.87 451.715C2253.08 451.715 2260.78 453.372 2265.14 455.03V470.712H2255.85L2255.82 470.738Z" fill="#231F20"/>
<path d="M2274.41 506.896H2280.91L2281.29 459.976H2273.73V452.785H2319.53L2319.91 468.901H2311.24L2310.7 459.976H2291.81L2291.62 478.872H2310.21V486.573H2291.62L2291.43 506.896H2311.24L2312 496.926H2320.75L2319.99 514.087H2274.41V506.896Z" fill="#231F20"/>
<path d="M2327.58 452.785H2351.4V459.976H2344.82L2344.71 490.704C2344.71 495.421 2344.9 500.419 2348.34 503.479C2351.32 506.106 2354.46 506.896 2359.96 506.896C2366.31 506.896 2369.56 506.182 2372.51 503.403C2375.49 500.598 2376.14 496.824 2376.25 490.959L2376.44 459.976H2368.8V452.785H2392.62V459.976H2386.39L2386.2 492.897C2386.2 501.031 2383.38 506.539 2378.93 510.16C2374.73 513.475 2367.5 515.158 2359.86 515.158C2350.1 515.158 2344.49 513.399 2340.32 510.084C2335.57 506.31 2334.27 501.057 2334.27 493.024C2334.27 481.294 2334.36 470.61 2334.46 460.002H2327.58V452.811V452.785Z" fill="#231F20"/>
<path d="M2400.29 506.896H2406.9L2407.28 459.976H2399.91V452.785H2421.32L2440.1 498.405C2440.78 499.986 2441.13 501.72 2441.59 503.403H2441.78C2442.24 501.745 2442.62 499.986 2443.27 498.405L2461.89 452.785H2482.16V459.976H2474.71L2475.08 506.896H2482.16V514.087H2458.42V506.896H2464.84L2465.22 465.484L2464.95 465.306C2464.11 468.009 2463.57 470.814 2462.43 473.44L2445.79 514.062H2435.38L2419.1 475.021C2417.8 471.961 2417.12 468.799 2416.22 465.663H2416.03L2415.65 506.896H2423.03V514.087H2400.32V506.896H2400.29Z" fill="#231F20"/>
<path d="M2103.71 739.584H2107.85L2108.1 709.316H2103.71V704.675H2122.38C2131.02 704.675 2135.09 709.367 2135.09 715.104C2135.09 721.938 2130.4 725.049 2125.09 725.559V725.687C2127.42 725.865 2128.99 727.727 2130.43 729.971L2134.98 737.187C2136.2 739.074 2137.31 739.584 2138.72 739.584H2140.29V744.2H2136.39C2132.87 744.2 2131.24 743.868 2128.77 740.018L2123 730.812C2121.27 727.982 2120.35 727.37 2118.39 727.37H2114.79L2114.68 739.559H2119.53V744.174H2103.73V739.559L2103.71 739.584ZM2119.97 722.423C2124.71 722.423 2128.02 720.051 2128.02 715.818C2128.02 711.585 2125.31 709.341 2120.45 709.341H2114.87L2114.74 722.448H2119.97V722.423Z" fill="#231F20"/>
<path d="M2162.16 704.012C2174.27 704.012 2181.59 711.585 2181.59 723.774C2181.59 734.229 2175.11 744.888 2160.94 744.888C2148.69 744.888 2140.94 737.264 2140.94 725.126C2140.94 712.988 2149.18 704.012 2162.13 704.012M2161.19 739.584C2172.3 739.584 2174.14 729.486 2174.14 724.106C2174.14 717.042 2171.62 709.316 2161.73 709.316C2154.71 709.316 2148.39 713.829 2148.39 724.845C2148.39 732.521 2152.35 739.584 2161.19 739.584Z" fill="#231F20"/>
<path d="M2193.3 739.584H2197.63L2197.85 709.316H2189.45L2189.23 715.079H2183.22L2183.46 704.675H2218.8L2219.04 715.079H2213.05L2212.81 709.316H2204.57L2204.33 739.584H2209.21V744.225H2193.3V739.584Z" fill="#231F20"/>
<path d="M2232.78 739.584H2237.09L2237.34 709.316H2228.96L2228.72 715.079H2222.7L2222.95 704.675H2258.28L2258.53 715.079H2252.51L2252.3 709.316H2244.08L2243.81 739.584H2248.69V744.225H2232.78V739.584Z" fill="#231F20"/>
<path d="M2263.54 739.584H2267.77L2267.99 709.316H2263.14V704.675H2292.67L2292.89 715.079H2287.34L2286.96 709.316H2274.79L2274.68 721.53H2286.66V726.503H2274.68L2274.54 739.584H2287.34L2287.8 733.158H2293.43L2292.97 744.225H2263.54V739.584Z" fill="#231F20"/>
<path d="M2298.99 739.584H2303.14L2303.38 709.316H2299.02V704.675H2317.69C2326.33 704.675 2330.4 709.367 2330.4 715.104C2330.4 721.938 2325.71 725.049 2320.37 725.559V725.687C2322.7 725.865 2324.27 727.727 2325.71 729.971L2330.29 737.187C2331.48 739.074 2332.62 739.584 2334 739.584H2335.57V744.2H2331.67C2328.12 744.2 2326.52 743.868 2324.06 740.018L2318.28 730.812C2316.55 727.982 2315.66 727.37 2313.68 727.37H2310.07L2309.96 739.559H2314.82V744.174H2299.04V739.559L2298.99 739.584ZM2315.25 722.423C2319.99 722.423 2323.3 720.051 2323.3 715.818C2323.3 711.585 2320.59 709.341 2315.74 709.341H2310.15L2310.02 722.448H2315.25V722.423Z" fill="#231F20"/>
<path d="M2340.26 739.584H2344.52L2344.76 709.316H2340.26V704.675H2360.18C2373.68 704.675 2381.43 712.07 2381.43 723.545C2381.43 735.02 2373.57 744.225 2360.1 744.225H2340.24V739.61L2340.26 739.584ZM2357.99 739.584C2368.23 739.584 2374 733.694 2374 723.825C2374 714.951 2368.58 709.316 2358.28 709.316H2351.51L2351.27 739.584H2357.99Z" fill="#231F20"/>
<path d="M2381.05 739.584H2384.65L2399.91 704.675H2407.33L2421.43 739.584H2425.14V744.2H2409.77V739.584H2413.62L2410.02 729.767H2395.25L2391.35 739.584H2395.68V744.2H2381.02V739.584H2381.05ZM2404.16 713.6C2403.49 711.84 2403.27 710.846 2403.08 709.979H2402.97C2402.78 710.769 2402.54 711.84 2401.83 713.6L2397.2 724.769H2408.31L2404.16 713.6Z" fill="#231F20"/>
<path d="M2429.34 739.584H2433.6L2433.84 709.316H2429.1V704.675H2442.92L2455.03 734.102C2455.44 735.122 2455.68 736.244 2455.98 737.315H2456.09C2456.39 736.244 2456.63 735.122 2457.06 734.102L2469.07 704.675H2482.16V709.316H2477.36L2477.61 739.584H2482.16V744.2H2466.85V739.584H2470.99L2471.24 712.86L2471.07 712.758C2470.53 714.518 2470.18 716.303 2469.45 718.011L2458.69 744.225H2451.97L2441.45 719.031C2440.61 717.042 2440.18 715.028 2439.58 712.988H2439.45L2439.2 739.584H2443.95V744.2H2429.29V739.584H2429.34Z" fill="#231F20"/>
</g>
<defs>
<linearGradient id="paint0_linear_18_618" x1="0" y1="540" x2="5820" y2="540" gradientUnits="userSpaceOnUse">
<stop stop-color="#4589BB"/>
<stop offset="1" stop-color="#635195"/>
</linearGradient>
<linearGradient id="paint1_linear_18_618" x1="2662.97" y1="-111.701" x2="2733.39" y2="1207.03" gradientUnits="userSpaceOnUse">
<stop stop-color="#635195"/>
<stop offset="1" stop-color="#4287B9"/>
</linearGradient>
<linearGradient id="paint2_linear_18_618" x1="2375.02" y1="1092.47" x2="5651.16" y2="306.03" gradientUnits="userSpaceOnUse">
<stop stop-color="#635195"/>
<stop offset="1" stop-color="#4287B9"/>
</linearGradient>
<linearGradient id="paint3_linear_18_618" x1="2450.2" y1="-644.26" x2="3367.79" y2="1609.35" gradientUnits="userSpaceOnUse">
<stop stop-color="#5B4687"/>
<stop offset="1" stop-color="#4D95C4"/>
</linearGradient>
<linearGradient id="paint4_linear_18_618" x1="2992.45" y1="222" x2="2992.45" y2="551" gradientUnits="userSpaceOnUse">
<stop stop-color="#5B4687"/>
<stop offset="1" stop-color="#4D95C4"/>
</linearGradient>
<clipPath id="clip0_18_618">
<rect width="5820" height="1080" fill="white"/>
</clipPath>
</defs>
</svg>
