<svg width="5820" height="1080" viewBox="0 0 5820 1080" fill="none" xmlns="http://www.w3.org/2000/svg">
<g clip-path="url(#clip0_20_3)">
<rect width="5820" height="1080" fill="url(#paint0_linear_20_3)"/>
<path d="M-21.4359 -5.80435L584 -5.80435L1008 -5.80435C1008 -5.80435 2016 -138 896 462C-224 1062 1312 1094 1312 1094L-21.4359 1094L-21.4359 -5.80435Z" fill="url(#paint1_linear_20_3)"/>
<path d="M5848.17 230.864C5848.17 230.864 2810.94 454.359 4168.38 781.631C5525.81 1108.9 2050.06 1102.56 2050.06 1102.56L3897.81 1105.93L5856.77 1109.51L5848.17 230.864Z" fill="url(#paint2_linear_20_3)"/>
<path d="M2058.59 2179.68L1804.1 1554.66C1684.24 1260.27 1897.39 978.599 2443.94 709.171C1864.63 898.154 1515.35 845.487 1395.49 551.091L1141 -73.9296L1985.15 -417.636L2290.97 333.473C2318.73 401.652 2383.79 443.336 2486.27 458.81C2588.76 474.283 2697.35 458.67 2812.05 411.968C2926.74 365.267 3020.39 298.539 3082.91 215.88C3145.44 133.222 3162.88 57.9461 3135.12 -10.2328L2829.29 -761.342L3668.41 -1103L3922.9 -477.979C4042.76 -183.583 3831.24 97.7549 3288.09 365.464C3864.57 179.627 4212.46 233.193 4331.51 525.592L4586 1150.61L3746.88 1492.27L3441.06 741.162C3413.3 672.983 3348.24 631.299 3245.76 615.825C3143.27 600.352 3033.18 616.58 2914.95 664.715C2800.26 711.417 2711.64 776.097 2649.12 858.755C2586.59 941.413 2569.27 1016.97 2596.91 1084.87L2902.74 1835.98L2058.59 2179.68Z" fill="url(#paint3_linear_20_3)"/>
<path d="M120.883 371.388L140.122 360.872" stroke="white" stroke-width="3" stroke-linecap="round" stroke-linejoin="round"/>
<path d="M123.954 392.727L159.825 371.388" stroke="white" stroke-width="3" stroke-linecap="round" stroke-linejoin="round"/>
<path d="M126.214 411.003L173.849 380.986" stroke="white" stroke-width="3" stroke-linecap="round" stroke-linejoin="round"/>
<path d="M128.474 431.729L189.264 391.553" stroke="white" stroke-width="3" stroke-linecap="round" stroke-linejoin="round"/>
<path d="M131.545 451.128L205.374 404.673" stroke="white" stroke-width="3" stroke-linecap="round" stroke-linejoin="round"/>
<path d="M134.385 472.314L210.3 424.48" stroke="white" stroke-width="3" stroke-linecap="round" stroke-linejoin="round"/>
<path d="M137.572 496.052L212.328 446.074" stroke="white" stroke-width="3" stroke-linecap="round" stroke-linejoin="round"/>
<path d="M189.264 391.553L196.334 478.134" stroke="white" stroke-width="3" stroke-linecap="round" stroke-linejoin="round"/>
<path d="M166.084 375.676L178.659 490.437" stroke="white" stroke-width="3" stroke-linecap="round" stroke-linejoin="round"/>
<path d="M140.122 360.872L159.304 502.638" stroke="white" stroke-width="3" stroke-linecap="round" stroke-linejoin="round"/>
<path d="M590.336 456.795L657.964 402.478" stroke="white" stroke-width="3" stroke-linecap="round" stroke-linejoin="round"/>
<path d="M588.191 478.236L655.124 424.48" stroke="white" stroke-width="3" stroke-linecap="round" stroke-linejoin="round"/>
<path d="M586.221 499.115L652.458 445.513" stroke="white" stroke-width="3" stroke-linecap="round" stroke-linejoin="round"/>
<path d="M584.367 518.055L649.966 464.708" stroke="white" stroke-width="3" stroke-linecap="round" stroke-linejoin="round"/>
<path d="M582.455 538.22L647.243 486.2" stroke="white" stroke-width="3" stroke-linecap="round" stroke-linejoin="round"/>
<path d="M580.948 557.517L644.635 506.364" stroke="white" stroke-width="3" stroke-linecap="round" stroke-linejoin="round"/>
<path d="M578.861 578.192L641.911 527.55" stroke="white" stroke-width="3" stroke-linecap="round" stroke-linejoin="round"/>
<path d="M576.833 599.275L638.898 549.399" stroke="white" stroke-width="3" stroke-linecap="round" stroke-linejoin="round"/>
<path d="M574.341 620.512L636.406 570.687" stroke="white" stroke-width="3" stroke-linecap="round" stroke-linejoin="round"/>
<path d="M640.868 397.475L614.732 605.759" stroke="white" stroke-width="3" stroke-linecap="round" stroke-linejoin="round"/>
<path d="M614.733 417.435L594.624 623.014" stroke="white" stroke-width="3" stroke-linecap="round" stroke-linejoin="round"/>
<path d="M536.153 35.326L417.065 98.1685" stroke="white" stroke-width="3" stroke-linecap="round" stroke-linejoin="round"/>
<path d="M516.334 27.8727L397.884 90.3579" stroke="white" stroke-width="3" stroke-linecap="round" stroke-linejoin="round"/>
<path d="M497.964 21.083L380.267 83.1598" stroke="white" stroke-width="3" stroke-linecap="round" stroke-linejoin="round"/>
<path d="M384.555 64.8839L462.73 95.2076" stroke="white" stroke-width="3" stroke-linecap="round" stroke-linejoin="round"/>
<path d="M405.997 53.3977L483.823 83.6193" stroke="white" stroke-width="3" stroke-linecap="round" stroke-linejoin="round"/>
<path d="M425.236 43.494L502.136 73.4093" stroke="white" stroke-width="3" stroke-linecap="round" stroke-linejoin="round"/>
<path d="M446.793 32.3651L522.476 61.8209" stroke="white" stroke-width="3" stroke-linecap="round" stroke-linejoin="round"/>
<path d="M465.627 21.5425L541.716 51.1004" stroke="white" stroke-width="3" stroke-linecap="round" stroke-linejoin="round"/>
<path d="M600.709 381.292L607.257 363.629L677.261 311.915L675.29 290.065L664.454 268.829L646.026 250.144L621.513 235.953L597.232 229.622L524.736 278.171L505.265 280.162L492.226 290.423L487.011 308.29L490.546 329.885L501.788 350.713L516.971 366.538L519.463 369.193L542.411 383.691L566.692 391.604L586.627 390.685L600.709 381.292ZM600.709 381.292L622.846 364.803L670.249 329.527L677.261 311.915" stroke="white" stroke-width="3" stroke-linecap="round" stroke-linejoin="round"/>
<path d="M524.736 278.171L549.191 285.165" stroke="white" stroke-width="3" stroke-linecap="round" stroke-linejoin="round"/>
<path d="M549.191 285.165L574.11 300.173L593.118 319.572L604.592 341.422L607.257 363.629" stroke="white" stroke-width="3" stroke-linecap="round" stroke-linejoin="round"/>
<path d="M622.846 364.803L660.571 382.109" stroke="white" stroke-width="3" stroke-linecap="round" stroke-linejoin="round"/>
<path d="M660.571 382.109L592.538 434.231L572.197 642.259" stroke="white" stroke-width="3" stroke-linecap="round" stroke-linejoin="round"/>
<path d="M505.265 280.162L513.204 274.853L577.703 232.022L597.232 229.622" stroke="white" stroke-width="3" stroke-linecap="round" stroke-linejoin="round"/>
<path d="M604.591 341.422L675.29 290.065" stroke="white" stroke-width="3" stroke-linecap="round" stroke-linejoin="round"/>
<path d="M574.11 300.173L646.026 250.144" stroke="white" stroke-width="3" stroke-linecap="round" stroke-linejoin="round"/>
<path d="M593.117 319.572L664.454 268.829" stroke="white" stroke-width="3" stroke-linecap="round" stroke-linejoin="round"/>
<path d="M549.191 285.165L621.513 235.953" stroke="white" stroke-width="3" stroke-linecap="round" stroke-linejoin="round"/>
<path d="M572.197 642.259L481.563 592.384" stroke="white" stroke-width="3" stroke-linecap="round" stroke-linejoin="round"/>
<path d="M490.835 385.019L592.538 434.231" stroke="white" stroke-width="3" stroke-linecap="round" stroke-linejoin="round"/>
<path d="M481.563 592.384L490.836 385.018L516.971 366.538" stroke="white" stroke-width="3" stroke-linecap="round" stroke-linejoin="round"/>
<path d="M660.571 382.109L634.03 589.167L572.197 642.259" stroke="white" stroke-width="3" stroke-linecap="round" stroke-linejoin="round"/>
<path d="M259.151 490.437L252.545 487.68L214.24 466.341" stroke="white" stroke-width="3" stroke-linecap="round" stroke-linejoin="round"/>
<path d="M117.927 348.977L159.825 371.388" stroke="white" stroke-width="3" stroke-linecap="round" stroke-linejoin="round"/>
<path d="M262.86 520.709L214.82 554.198" stroke="white" stroke-width="3" stroke-linecap="round" stroke-linejoin="round"/>
<path d="M200.101 399.006L263.44 375.013" stroke="white" stroke-width="3" stroke-linecap="round" stroke-linejoin="round"/>
<path d="M64.9028 524.028L140.122 515.298L214.24 466.341L208.793 408.297" stroke="white" stroke-width="3" stroke-linecap="round" stroke-linejoin="round"/>
<path d="M252.545 487.68L178.659 538.015L184.917 597.131" stroke="white" stroke-width="3" stroke-linecap="round" stroke-linejoin="round"/>
<path d="M14.1968 226.61L98.3981 182.758L235.102 248.256L345.613 322.686L389.075 369.091L421.527 418.303L441.346 467.771L447.315 514.89L439.492 552.871L419.673 576.711L346.714 633.019" stroke="white" stroke-width="3" stroke-linecap="round" stroke-linejoin="round"/>
<path d="M439.492 552.871L365.316 609.792" stroke="white" stroke-width="3" stroke-linecap="round" stroke-linejoin="round"/>
<path d="M447.315 514.89L371.574 571.964" stroke="white" stroke-width="3" stroke-linecap="round" stroke-linejoin="round"/>
<path d="M151.364 296.6L235.102 248.256" stroke="white" stroke-width="3" stroke-linecap="round" stroke-linejoin="round"/>
<path d="M441.346 467.771L363.867 524.334L264.251 511.469" stroke="white" stroke-width="3" stroke-linecap="round" stroke-linejoin="round"/>
<path d="M421.527 418.303L342.31 473.845L254.805 472.416" stroke="white" stroke-width="3" stroke-linecap="round" stroke-linejoin="round"/>
<path d="M389.075 369.091L308.235 423.204" stroke="white" stroke-width="3" stroke-linecap="round" stroke-linejoin="round"/>
<path d="M232.668 433.771L208.793 408.297L200.1 399.006L159.825 371.388L151.364 296.6" stroke="white" stroke-width="3" stroke-linecap="round" stroke-linejoin="round"/>
<path d="M14.1968 226.61L151.364 296.6L263.44 375.013L308.235 423.204L342.31 473.846L363.867 524.334L371.574 571.964L365.316 609.792L346.714 633.019L317.739 642.566L280.303 639.35L184.918 597.131L64.903 524.028L14.1968 226.61Z" stroke="white" stroke-width="3" stroke-linecap="round" stroke-linejoin="round"/>
<path d="M117.927 348.977L140.122 515.298L178.659 538.015L214.82 554.198L242.462 555.526L259.731 541.487L262.86 520.709L264.251 511.469L259.151 490.437L254.805 472.416L232.668 433.771" stroke="white" stroke-width="3" stroke-linecap="round" stroke-linejoin="round"/>
<path d="M263.44 375.013L345.613 322.686" stroke="white" stroke-width="3" stroke-linecap="round" stroke-linejoin="round"/>
<path d="M312.292 300.275L362.882 76.217L479.303 14.1913L556.551 42.6772L595.725 229.775" stroke="white" stroke-width="3" stroke-linecap="round" stroke-linejoin="round"/>
<path d="M489.271 322.431L445.75 351.989" stroke="white" stroke-width="3" stroke-linecap="round" stroke-linejoin="round"/>
<path d="M494.892 154.528L498.891 152.128" stroke="white" stroke-width="3" stroke-linecap="round" stroke-linejoin="round"/>
<path d="M476.696 226.968L521.723 246.571L525.953 266.327" stroke="white" stroke-width="3" stroke-linecap="round" stroke-linejoin="round"/>
<path d="M521.723 246.571L461.977 285.573" stroke="white" stroke-width="3" stroke-linecap="round" stroke-linejoin="round"/>
<path d="M362.824 76.4723L441.289 108.072L494.892 154.528L476.696 226.968L461.977 285.573L445.751 351.989L433.176 399.517L416.776 410.952" stroke="white" stroke-width="3" stroke-linecap="round" stroke-linejoin="round"/>
<path d="M556.551 42.6772L498.891 152.128L521.723 246.571" stroke="white" stroke-width="3" stroke-linecap="round" stroke-linejoin="round"/>
<path d="M379.166 358.319L441.288 108.072L556.551 42.6772" stroke="white" stroke-width="3" stroke-linecap="round" stroke-linejoin="round"/>
<path d="M5727.73 529.705C5727.73 529.705 5730.38 524.476 5736.07 529.705C5736.07 529.705 5738.26 531.328 5737.53 535.775" stroke="white" stroke-width="3" stroke-linecap="round" stroke-linejoin="round"/>
<path d="M5690.13 652.549C5690.13 652.549 5691.12 652.249 5691.72 651.287" stroke="white" stroke-width="3" stroke-linecap="round" stroke-linejoin="round"/>
<path d="M5687.81 651.888C5687.81 651.888 5689.2 651.528 5689.8 650.566" stroke="white" stroke-width="3" stroke-linecap="round" stroke-linejoin="round"/>
<path d="M5686.35 650.506L5688.34 649.724" stroke="white" stroke-width="3" stroke-linecap="round" stroke-linejoin="round"/>
<path d="M5532.51 391.054L5532.44 391.114V391.234L5534.36 395.261" stroke="white" stroke-width="3" stroke-linecap="round" stroke-linejoin="round"/>
<path d="M5543.63 388.891C5543.63 388.891 5549.25 385.104 5557.66 383.421L5567.06 381.919L5618.57 375.428L5642.6 372.423L5650.94 371.401L5742.69 359.862" stroke="white" stroke-width="3" stroke-linecap="round" stroke-linejoin="round"/>
<path d="M5687.61 648.583L5685.49 649.184" stroke="white" stroke-width="3" stroke-linecap="round" stroke-linejoin="round"/>
<path d="M5304.45 985.503L5308.88 977.209" stroke="white" stroke-width="3" stroke-linecap="round" stroke-linejoin="round"/>
<path d="M5553.62 384.263L5554.75 378.073V378.012" stroke="white" stroke-width="3" stroke-linecap="round" stroke-linejoin="round"/>
<path d="M5294.12 946.078L5294.25 945.597" stroke="white" stroke-width="3" stroke-linecap="round" stroke-linejoin="round"/>
<path d="M5511.92 419.361L5517.41 419.001" stroke="white" stroke-width="3" stroke-linecap="round" stroke-linejoin="round"/>
<path d="M5516.09 422.246L5464.98 545.331" stroke="white" stroke-width="3" stroke-linecap="round" stroke-linejoin="round"/>
<path d="M5356.61 806.225L5303.92 932.976L5301.67 939.226" stroke="white" stroke-width="3" stroke-linecap="round" stroke-linejoin="round"/>
<path d="M5299.28 956.715L5292.93 960.201" stroke="white" stroke-width="3" stroke-linecap="round" stroke-linejoin="round"/>
<path d="M5294.25 945.597L5295.97 938.986V938.866L5296.11 938.385L5298.55 931.714L5352.44 803.881" stroke="white" stroke-width="3" stroke-linecap="round" stroke-linejoin="round"/>
<path d="M5511.12 1040.49L5505.56 1043.44" stroke="white" stroke-width="3" stroke-linecap="round" stroke-linejoin="round"/>
<path d="M5301.14 966.812L5295.25 972.401" stroke="white" stroke-width="3" stroke-linecap="round" stroke-linejoin="round"/>
<path d="M5762.68 380.837L5771.55 377.411" stroke="white" stroke-width="3" stroke-linecap="round" stroke-linejoin="round"/>
<path d="M5312.72 979.073L5308.62 987.667" stroke="white" stroke-width="3" stroke-linecap="round" stroke-linejoin="round"/>
<path d="M5476.1 1046.56L5482.19 1048.13L5482.52 1048.19H5482.66L5488.68 1048.31H5489.54L5496.56 1046.87L5503.71 1044.22L5505.63 1043.44" stroke="white" stroke-width="3" stroke-linecap="round" stroke-linejoin="round"/>
<path d="M5748.78 360.283L5754.14 352.53" stroke="white" stroke-width="3" stroke-linecap="round" stroke-linejoin="round"/>
<path d="M5754.14 352.47L5759.57 354.153" stroke="white" stroke-width="3" stroke-linecap="round" stroke-linejoin="round"/>
<path d="M5761.49 371.221L5769.57 365.812" stroke="white" stroke-width="3" stroke-linecap="round" stroke-linejoin="round"/>
<path d="M5769.57 365.811L5770.1 365.632H5770.23" stroke="white" stroke-width="3" stroke-linecap="round" stroke-linejoin="round"/>
<path d="M5771.49 371.221L5771.55 377.411" stroke="white" stroke-width="3" stroke-linecap="round" stroke-linejoin="round"/>
<path d="M5753.08 361.785L5759.17 354.333H5759.24" stroke="white" stroke-width="3" stroke-linecap="round" stroke-linejoin="round"/>
<path d="M5510.99 1040.37L5517.88 1035.33L5524.1 1029.02L5529.66 1021.74" stroke="white" stroke-width="3" stroke-linecap="round" stroke-linejoin="round"/>
<path d="M5534.43 1013.75L5538.2 1005.22L5716.41 530.847L5718.59 524.717L5768.91 391.415L5771.09 384.323L5771.55 377.472" stroke="white" stroke-width="3" stroke-linecap="round" stroke-linejoin="round"/>
<path d="M5771.49 371.161L5770.49 365.692L5770.3 365.271L5767.71 361.064L5767.52 360.884" stroke="white" stroke-width="3" stroke-linecap="round" stroke-linejoin="round"/>
<path d="M5770.49 365.752L5770.43 365.692L5770.23 365.632" stroke="white" stroke-width="3" stroke-linecap="round" stroke-linejoin="round"/>
<path d="M5764.01 357.038L5759.57 354.153L5759.24 354.333" stroke="white" stroke-width="3" stroke-linecap="round" stroke-linejoin="round"/>
<path d="M5741.7 352.229L5714.03 355.956L5713.89 355.896L5582.69 373.745L5563.55 376.39" stroke="white" stroke-width="3" stroke-linecap="round" stroke-linejoin="round"/>
<path d="M5527.34 396.103H5527.28V396.163L5522.58 401.572L5518.34 407.341" stroke="white" stroke-width="3" stroke-linecap="round" stroke-linejoin="round"/>
<path d="M5292.99 960.201L5292.93 960.321L5293.66 966.752L5293.72 966.992L5295.24 972.522" stroke="white" stroke-width="3" stroke-linecap="round" stroke-linejoin="round"/>
<path d="M5496.56 1046.93L5496.29 1046.26V1045.78L5496.36 1036.53" stroke="white" stroke-width="3" stroke-linecap="round" stroke-linejoin="round"/>
<path d="M5496.56 1046.93L5496.69 1047.05L5496.89 1047.17L5522.97 1056H5523.1L5530.25 1053.48V1053.42H5530.39" stroke="white" stroke-width="3" stroke-linecap="round" stroke-linejoin="round"/>
<path d="M5789.49 408.363L5791.35 401.992L5791.55 401.271L5791.48 401.151L5771.09 384.383" stroke="white" stroke-width="3" stroke-linecap="round" stroke-linejoin="round"/>
<path d="M5534.23 1013.69L5529.53 1021.68" stroke="white" stroke-width="3" stroke-linecap="round" stroke-linejoin="round"/>
<path d="M5475.84 1046.44L5445.58 1035.63L5308.55 987.667" stroke="white" stroke-width="3" stroke-linecap="round" stroke-linejoin="round"/>
<path d="M5300.74 982.318L5297.56 977.931" stroke="white" stroke-width="3" stroke-linecap="round" stroke-linejoin="round"/>
<path d="M5297.56 977.931L5295.31 972.942L5295.25 972.582V972.401" stroke="white" stroke-width="3" stroke-linecap="round" stroke-linejoin="round"/>
<path d="M5292.93 960.261V959.48L5293.19 954.011L5293.26 953.229L5294.12 946.138" stroke="white" stroke-width="3" stroke-linecap="round" stroke-linejoin="round"/>
<path d="M5460.41 542.987L5511.79 419.662L5511.85 419.361L5512.12 418.82L5514.76 413.231" stroke="white" stroke-width="3" stroke-linecap="round" stroke-linejoin="round"/>
<path d="M5484.97 1037.49L5482.52 1047.47" stroke="white" stroke-width="3" stroke-linecap="round" stroke-linejoin="round"/>
<path d="M5482.52 1047.53L5482.59 1047.95L5482.79 1048.25L5485.44 1049.15L5505.43 1055.88L5508.87 1057.02L5509.07 1057.08L5515.82 1057.2H5515.96H5516.09L5523.04 1056.06" stroke="white" stroke-width="3" stroke-linecap="round" stroke-linejoin="round"/>
<path d="M5544.09 1044.4L5544.02 1044.46L5543.89 1044.4L5517.88 1035.33" stroke="white" stroke-width="3" stroke-linecap="round" stroke-linejoin="round"/>
<path d="M5510.39 1039.77L5510.46 1039.83L5510.66 1040.13L5510.79 1040.31L5510.99 1040.43L5511.12 1040.49L5512.31 1040.92L5514.83 1041.82L5537.27 1049.51" stroke="white" stroke-width="3" stroke-linecap="round" stroke-linejoin="round"/>
<path d="M5537.4 1049.51L5544.02 1044.46L5544.09 1044.4L5550.11 1038.21L5550.84 1037.13L5555.74 1031.12L5560.11 1023.73L5560.31 1023.19L5563.88 1014.77L5695.36 661.144L5699.2 650.806L5740.84 538.72L5743.95 530.727L5789.49 408.363V408.303L5789.43 408.183" stroke="white" stroke-width="3" stroke-linecap="round" stroke-linejoin="round"/>
<path d="M5791.55 401.211L5792.47 394.48" stroke="white" stroke-width="3" stroke-linecap="round" stroke-linejoin="round"/>
<path d="M5792.14 388.229L5790.22 386.607L5772.88 372.183L5771.95 371.341L5771.69 371.281L5771.49 371.221" stroke="white" stroke-width="3" stroke-linecap="round" stroke-linejoin="round"/>
<path d="M5771.42 371.221L5762.62 375.789H5762.55" stroke="white" stroke-width="3" stroke-linecap="round" stroke-linejoin="round"/>
<path d="M5490.53 1037.55H5489.74" stroke="white" stroke-width="3" stroke-linecap="round" stroke-linejoin="round"/>
<path d="M5484.97 1037.49L5479.41 1036.23L5312.79 979.072H5312.72L5308.88 977.209L5308.82 977.149L5305.7 974.505V974.445L5303.12 971.019V970.959L5301.47 967.473L5301.2 966.812L5301.14 966.752L5299.88 962.004V961.944L5299.28 956.715V956.355V955.934L5299.35 951.066L5299.42 950.645L5300.21 945.176L5301.67 939.226" stroke="white" stroke-width="3" stroke-linecap="round" stroke-linejoin="round"/>
<path d="M5516.09 422.246L5517.41 419.001L5519.13 415.395L5519.93 413.772L5521.85 410.466L5522.91 408.844L5525.29 405.538L5526.35 404.036L5530.25 399.588L5534.49 395.502L5538.99 391.895L5537.87 386.787L5538.13 386.607L5543.56 383.061L5544.16 382.76L5549.19 380.116L5554.68 378.012L5554.81 377.952L5555.54 377.832L5559.25 376.991L5564.08 376.33" stroke="white" stroke-width="3" stroke-linecap="round" stroke-linejoin="round"/>
<path d="M5764.01 357.037L5767.52 360.884" stroke="white" stroke-width="3" stroke-linecap="round" stroke-linejoin="round"/>
<path d="M5768.84 391.595L5789.43 408.183" stroke="white" stroke-width="3" stroke-linecap="round" stroke-linejoin="round"/>
<path d="M5521.91 410.466L5526.35 409.986L5533.63 409.144L5540.58 408.423L5751.3 385.224L5762.22 384.022" stroke="white" stroke-width="3" stroke-linecap="round" stroke-linejoin="round"/>
<path d="M5690.86 652.489L5691.85 652.189L5692.78 651.648L5693.37 651.287C5693.37 651.287 5694.7 650.205 5695.56 648.583L5737.46 535.715" stroke="white" stroke-width="3" stroke-linecap="round" stroke-linejoin="round"/>
<path d="M5527.28 396.103L5527.34 396.163L5530.25 399.588L5530.06 399.408" stroke="white" stroke-width="3" stroke-linecap="round" stroke-linejoin="round"/>
<path d="M5767.58 360.884L5771.88 364.189L5786.71 376.57L5788.24 377.832L5788.3 377.952V378.073L5790.75 382.7L5790.82 382.76" stroke="white" stroke-width="3" stroke-linecap="round" stroke-linejoin="round"/>
<path d="M5555.74 1031.06V1031.12H5555.68L5555.54 1031.06L5529.66 1021.74L5529.53 1021.68L5529.26 1021.56L5529.06 1021.44L5528.93 1021.32L5528.73 1021.2L5528.67 1021.14L5522.84 1015.91H5522.77" stroke="white" stroke-width="3" stroke-linecap="round" stroke-linejoin="round"/>
<path d="M5519.93 413.772V413.712L5514.83 413.291V413.171L5518.27 407.401L5518.34 407.341H5518.4L5522.91 408.844" stroke="white" stroke-width="3" stroke-linecap="round" stroke-linejoin="round"/>
<path d="M5526.35 404.036L5522.58 401.572L5522.64 401.451" stroke="white" stroke-width="3" stroke-linecap="round" stroke-linejoin="round"/>
<path d="M5527.14 396.283L5527.28 396.102H5527.34L5532.37 391.234L5532.44 391.114L5532.51 391.054L5537.87 386.787" stroke="white" stroke-width="3" stroke-linecap="round" stroke-linejoin="round"/>
<path d="M5548.33 386.126L5549.19 380.176" stroke="white" stroke-width="3" stroke-linecap="round" stroke-linejoin="round"/>
<path d="M5303.92 932.976L5298.62 931.714" stroke="white" stroke-width="3" stroke-linecap="round" stroke-linejoin="round"/>
<path d="M5301.67 939.226L5295.97 938.865" stroke="white" stroke-width="3" stroke-linecap="round" stroke-linejoin="round"/>
<path d="M5300.14 945.176L5294.12 946.077" stroke="white" stroke-width="3" stroke-linecap="round" stroke-linejoin="round"/>
<path d="M5748.78 360.343H5748.85L5753.08 361.785L5753.15 361.846L5753.48 362.086L5756.66 364.189L5759.51 367.315L5761.49 371.221V371.281L5762.42 375.248L5762.55 375.789L5762.68 380.837L5762.29 384.022L5761.95 386.306" stroke="white" stroke-width="3" stroke-linecap="round" stroke-linejoin="round"/>
<path d="M5744.01 359.682V359.742L5748.78 360.343H5748.91L5753.08 361.785V361.845" stroke="white" stroke-width="3" stroke-linecap="round" stroke-linejoin="round"/>
<path d="M5760.1 392.376L5768.84 391.595" stroke="white" stroke-width="3" stroke-linecap="round" stroke-linejoin="round"/>
<path d="M5523.17 1028.35L5518.34 1021.8" stroke="white" stroke-width="3" stroke-linecap="round" stroke-linejoin="round"/>
<path d="M5563.88 1014.77L5538.2 1005.22L5538 1005.16L5537.8 1005.1L5537.6 1004.98L5537.34 1004.92L5537.21 1004.86H5537.14L5529.92 1002.21H5529.86" stroke="white" stroke-width="3" stroke-linecap="round" stroke-linejoin="round"/>
<path d="M5560.31 1023.25L5560.18 1023.19L5534.43 1013.75L5534.23 1013.69L5534.03 1013.57L5533.83 1013.51L5533.63 1013.39" stroke="white" stroke-width="3" stroke-linecap="round" stroke-linejoin="round"/>
<path d="M5533.56 1013.39L5526.68 1009.48" stroke="white" stroke-width="3" stroke-linecap="round" stroke-linejoin="round"/>
<path d="M5537.4 1049.51L5537.27 1049.57L5537.21 1049.63L5530.59 1053.3L5530.39 1053.42" stroke="white" stroke-width="3" stroke-linecap="round" stroke-linejoin="round"/>
<path d="M5792.47 394.48L5792.21 388.65L5792.27 388.47L5792.21 388.35V388.289L5792.14 387.929L5790.82 382.76L5790.75 382.7L5790.69 382.52L5788.3 378.012L5788.24 377.892V377.832L5784.66 373.926L5772.55 363.769L5768.18 360.163L5764.27 357.218L5764.01 357.037" stroke="white" stroke-width="3" stroke-linecap="round" stroke-linejoin="round"/>
<path d="M5764.01 357.037L5763.74 357.157" stroke="white" stroke-width="3" stroke-linecap="round" stroke-linejoin="round"/>
<path d="M5754.14 352.53H5754.01L5748.12 351.809V351.869L5744.01 359.682L5742.76 359.742" stroke="white" stroke-width="3" stroke-linecap="round" stroke-linejoin="round"/>
<path d="M5297.56 977.931L5297.63 977.57" stroke="white" stroke-width="3" stroke-linecap="round" stroke-linejoin="round"/>
<path d="M5293.79 966.512L5299.88 962.004" stroke="white" stroke-width="3" stroke-linecap="round" stroke-linejoin="round"/>
<path d="M5517.88 1035.33L5517.68 1035.21L5517.54 1035.09L5517.35 1034.91L5517.21 1034.79L5517.08 1034.61L5517.01 1034.54L5513.31 1026.91V1026.85" stroke="white" stroke-width="3" stroke-linecap="round" stroke-linejoin="round"/>
<path d="M5503.77 1044.28L5503.64 1044.1L5503.51 1043.86L5503.44 1043.68L5502.19 1034.36" stroke="white" stroke-width="3" stroke-linecap="round" stroke-linejoin="round"/>
<path d="M5510.39 1039.77V1039.71L5507.88 1031.12V1031.06" stroke="white" stroke-width="3" stroke-linecap="round" stroke-linejoin="round"/>
<path d="M5737.46 535.715L5729.78 530.847L5687.94 643.775" stroke="white" stroke-width="3" stroke-linecap="round" stroke-linejoin="round"/>
<path d="M5695.23 649.184C5692.64 652.91 5689.13 650.025 5689.13 650.025C5686.02 647.501 5687.15 643.715 5687.21 643.655" stroke="white" stroke-width="3" stroke-linecap="round" stroke-linejoin="round"/>
<path d="M5729.78 530.847C5729.78 530.847 5733.09 526.279 5736.86 530.666" stroke="white" stroke-width="3" stroke-linecap="round" stroke-linejoin="round"/>
<path d="M5727.73 529.705L5686.75 639.027L5684.9 644.015L5684.77 645.337L5684.83 646.659L5685.03 647.982L5685.49 649.184L5686.09 650.265L5686.88 651.167L5687.81 651.888L5688.74 652.309L5689.8 652.549L5690.86 652.489" stroke="white" stroke-width="3" stroke-linecap="round" stroke-linejoin="round"/>
<path d="M5730.91 527.421L5733.16 528.623" stroke="white" stroke-width="3" stroke-linecap="round" stroke-linejoin="round"/>
<path d="M5729.58 528.022L5731.57 529.104" stroke="white" stroke-width="3" stroke-linecap="round" stroke-linejoin="round"/>
<path d="M5728.39 528.743L5730.31 529.885" stroke="white" stroke-width="3" stroke-linecap="round" stroke-linejoin="round"/>
<path d="M5727.73 529.705L5729.78 530.847" stroke="white" stroke-width="3" stroke-linecap="round" stroke-linejoin="round"/>
<path d="M5685.03 647.921L5687.28 647.441" stroke="white" stroke-width="3" stroke-linecap="round" stroke-linejoin="round"/>
<path d="M5684.83 646.66L5687.02 646.179" stroke="white" stroke-width="3" stroke-linecap="round" stroke-linejoin="round"/>
<path d="M5684.77 645.337L5687.02 644.917" stroke="white" stroke-width="3" stroke-linecap="round" stroke-linejoin="round"/>
<path d="M5684.9 644.015L5687.22 643.655L5687.94 643.775L5691.45 645.998L5695.62 648.583" stroke="white" stroke-width="3" stroke-linecap="round" stroke-linejoin="round"/>
<path d="M5308.62 987.667L5304.45 985.503" stroke="white" stroke-width="3" stroke-linecap="round" stroke-linejoin="round"/>
<path d="M5304.45 985.503L5301 982.498L5300.74 982.318" stroke="white" stroke-width="3" stroke-linecap="round" stroke-linejoin="round"/>
<path d="M5293.66 966.75L5293.79 966.512" stroke="white" stroke-width="3" stroke-linecap="round" stroke-linejoin="round"/>
<path d="M5293.26 953.23L5299.35 951.066" stroke="white" stroke-width="3" stroke-linecap="round" stroke-linejoin="round"/>
<path d="M5539.06 391.895L5543.63 388.89L5543.56 383.121" stroke="white" stroke-width="3" stroke-linecap="round" stroke-linejoin="round"/>
<path d="M5490.54 1037.55L5489.28 1047.29L5489.54 1048.25L5516.09 1057.14" stroke="white" stroke-width="3" stroke-linecap="round" stroke-linejoin="round"/>
<path d="M5297.63 977.57L5297.69 977.51L5303.12 971.019" stroke="white" stroke-width="3" stroke-linecap="round" stroke-linejoin="round"/>
<path d="M5300.74 982.318L5305.77 974.565" stroke="white" stroke-width="3" stroke-linecap="round" stroke-linejoin="round"/>
<path d="M5759.51 367.315L5767.12 361.064L5767.52 360.884" stroke="white" stroke-width="3" stroke-linecap="round" stroke-linejoin="round"/>
<path d="M5756.66 364.189L5763.74 357.158" stroke="white" stroke-width="3" stroke-linecap="round" stroke-linejoin="round"/>
<path d="M5771.02 384.383L5761.96 386.306L5760.1 392.376L5706.94 533.131L5529.86 1002.21L5529.53 1003.11L5526.68 1009.48L5526.42 1009.9L5522.84 1015.91L5518.34 1021.8L5513.24 1026.85L5507.81 1031.12L5502.19 1034.3H5502.12L5496.36 1036.47V1036.53H5496.16L5490.54 1037.55" stroke="white" stroke-width="3" stroke-linecap="round" stroke-linejoin="round"/>
<path d="M5489.74 1037.55L5484.97 1037.49" stroke="white" stroke-width="3" stroke-linecap="round" stroke-linejoin="round"/>
<path d="M5741.7 352.23L5743.68 352.109L5748.12 351.869" stroke="white" stroke-width="3" stroke-linecap="round" stroke-linejoin="round"/>
<path d="M5528.73 1021.14H5528.67" stroke="white" stroke-width="3" stroke-linecap="round" stroke-linejoin="round"/>
<path d="M5523.24 1028.35L5523.37 1028.47L5523.57 1028.66L5523.77 1028.78L5523.97 1028.9L5524.1 1029.02L5550.11 1038.21" stroke="white" stroke-width="3" stroke-linecap="round" stroke-linejoin="round"/>
<path d="M5518.21 662.165L5516.09 701.41L5475.04 740.896" stroke="white" stroke-width="3" stroke-linecap="round" stroke-linejoin="round"/>
<path d="M5520.46 620.155L5518.21 662.165L5475.77 702.192L5475.04 740.896L5432.21 782.125" stroke="white" stroke-width="3" stroke-linecap="round" stroke-linejoin="round"/>
<path d="M5477.43 616.129L5476.57 660.663L5475.77 702.192L5431.48 744.021L5385.21 787.714" stroke="white" stroke-width="3" stroke-linecap="round" stroke-linejoin="round"/>
<path d="M5522.84 575.14L5520.46 620.155L5476.57 660.663L5430.69 703.093L5382.63 747.447" stroke="white" stroke-width="3" stroke-linecap="round" stroke-linejoin="round"/>
<path d="M5279.56 759.167L5228.18 727.734L5220.44 688.85" stroke="white" stroke-width="3" stroke-linecap="round" stroke-linejoin="round"/>
<path d="M5463.46 544.549L5417.45 584.155L5369.26 625.564L5318.81 668.956L5323.78 712.829L5382.63 747.447L5385.21 787.714L5387.53 825.156" stroke="white" stroke-width="3" stroke-linecap="round" stroke-linejoin="round"/>
<path d="M5350.52 486.553L5406 515.04L5463.46 544.549L5522.84 575.14" stroke="white" stroke-width="3" stroke-linecap="round" stroke-linejoin="round"/>
<path d="M5522.84 575.14L5477.43 616.129L5429.83 659.04L5379.85 704.115L5382.63 747.447" stroke="white" stroke-width="3" stroke-linecap="round" stroke-linejoin="round"/>
<path d="M5332.65 791.621L5279.56 759.167L5273.47 720.703L5220.44 688.85L5212.16 647.2" stroke="white" stroke-width="3" stroke-linecap="round" stroke-linejoin="round"/>
<path d="M5303.65 523.454L5359.53 553.264L5417.45 584.155L5477.43 616.129" stroke="white" stroke-width="3" stroke-linecap="round" stroke-linejoin="round"/>
<path d="M5254.6 562.039L5310.93 593.23L5369.26 625.564L5429.83 659.04L5430.69 703.093L5431.48 744.021L5432.21 782.125L5387.53 825.156" stroke="white" stroke-width="3" stroke-linecap="round" stroke-linejoin="round"/>
<path d="M5387.53 825.156L5332.65 791.621L5328.34 753.637L5323.78 712.829L5266.98 679.414L5259.96 635.06L5310.93 593.231L5359.52 553.264L5406 515.04" stroke="white" stroke-width="3" stroke-linecap="round" stroke-linejoin="round"/>
<path d="M5385.21 787.714L5328.34 753.637L5273.46 720.703L5266.98 679.414L5212.16 647.2L5203.29 602.426L5254.6 562.039L5303.65 523.454L5350.52 486.553" stroke="white" stroke-width="3" stroke-linecap="round" stroke-linejoin="round"/>
<path d="M5379.85 704.115L5318.81 668.956L5259.96 635.06L5203.29 602.426" stroke="white" stroke-width="3" stroke-linecap="round" stroke-linejoin="round"/>
<path d="M5097.97 651.167L5082.01 606.753L5081.02 603.988L5077.51 598.279" stroke="white" stroke-width="3" stroke-linecap="round" stroke-linejoin="round"/>
<path d="M5044.15 502.419L5045.27 504.162L5047.19 505.184L5049.78 505.484L5053.02 505.064L5056.73 503.862L5060.76 501.999L5064.94 499.474L5069.17 496.469L5073.28 493.044L5077.05 489.318L5080.29 485.531L5083.01 481.745L5084.99 478.199L5086.19 474.894L5086.58 472.069L5086.12 469.845L5084.86 468.222L5082.88 467.261" stroke="white" stroke-width="3" stroke-linecap="round" stroke-linejoin="round"/>
<path d="M5136.7 482.466L5140.87 484.389L5143.65 487.635L5144.77 492.202L5144.31 497.852L5142.19 504.403L5138.48 511.615L5133.32 519.187L5126.96 526.82L5119.55 534.152L5111.47 540.943L5103 546.893L5094.59 551.761L5086.45 555.367L5079.04 557.471L5072.61 558.132L5067.32 557.291L5063.48 555.007L5061.16 551.401" stroke="white" stroke-width="3" stroke-linecap="round" stroke-linejoin="round"/>
<path d="M5188 496.95L5193.3 498.453L5236.99 510.773L5245.99 514.68" stroke="white" stroke-width="3" stroke-linecap="round" stroke-linejoin="round"/>
<path d="M5105.71 656.576L5086.85 607.715L5067.85 558.613L5067.32 557.291L5047.39 505.845L5047.19 505.184L5026.34 451.334" stroke="white" stroke-width="3" stroke-linecap="round" stroke-linejoin="round"/>
<path d="M5116.31 659.16L5094.73 609.337L5072.61 558.132L5049.78 505.485L5026.34 451.334" stroke="white" stroke-width="3" stroke-linecap="round" stroke-linejoin="round"/>
<path d="M5026.34 451.334L5082.88 467.261L5085.79 468.102L5136.7 482.466L5140.14 483.428L5142.72 484.149L5188 496.95L5194.56 499.835L5197.73 500.737L5245.99 514.68L5252.35 521.291L5255.66 530.426L5255.79 541.785L5252.68 554.947L5246.79 568.229" stroke="white" stroke-width="3" stroke-linecap="round" stroke-linejoin="round"/>
<path d="M5206.27 617.932L5194.22 628.149L5177.41 639.688L5160.53 648.823L5144.24 655.254L5129.28 658.74L5116.31 659.16L5105.71 656.576L5097.97 651.167L5093.14 643.234L5080.29 606.392L5079.04 602.666L5077.51 598.279L5063.02 556.57L5062.16 554.226L5061.16 551.401L5044.61 503.802L5044.15 502.419L5026.34 451.334" stroke="white" stroke-width="3" stroke-linecap="round" stroke-linejoin="round"/>
<path d="M5129.28 658.74L5104.46 608.676L5079.04 557.471L5053.02 505.064L5026.34 451.334" stroke="white" stroke-width="3" stroke-linecap="round" stroke-linejoin="round"/>
<path d="M5144.24 655.254L5115.64 605.791L5086.45 555.368L5056.73 503.862L5026.34 451.334" stroke="white" stroke-width="3" stroke-linecap="round" stroke-linejoin="round"/>
<path d="M5026.34 451.334L5084.86 468.223L5085.85 468.463L5140.87 484.389L5142.92 484.93L5194.56 499.835L5198.99 504.763L5201.18 511.615L5200.84 520.089L5198.06 530.005L5192.9 540.823L5185.49 552.242L5176.09 563.661L5165.16 574.72L5153.11 584.817L5140.47 593.651L5127.83 600.743L5115.64 605.791L5104.46 608.676L5094.73 609.337L5086.85 607.715L5081.02 603.988L5064.14 556.75L5063.48 555.007L5046.33 507.167L5045.61 505.004L5045.27 504.162L5026.34 451.334Z" stroke="white" stroke-width="3" stroke-linecap="round" stroke-linejoin="round"/>
<path d="M5160.53 648.823L5127.83 600.743L5094.59 551.762L5060.76 501.999L5026.34 451.334" stroke="white" stroke-width="3" stroke-linecap="round" stroke-linejoin="round"/>
<path d="M5177.41 639.688L5140.47 593.651L5103 546.893L5064.94 499.475L5026.34 451.334" stroke="white" stroke-width="3" stroke-linecap="round" stroke-linejoin="round"/>
<path d="M5194.22 628.149L5153.11 584.817L5111.47 540.944L5069.17 496.47L5026.34 451.334" stroke="white" stroke-width="3" stroke-linecap="round" stroke-linejoin="round"/>
<path d="M5026.34 451.334L5086.12 469.845L5087.84 470.386L5143.65 487.635L5198.99 504.763L5252.35 521.291" stroke="white" stroke-width="3" stroke-linecap="round" stroke-linejoin="round"/>
<path d="M5026.34 451.334L5086.58 472.069L5144.77 492.202L5201.18 511.615L5255.66 530.426" stroke="white" stroke-width="3" stroke-linecap="round" stroke-linejoin="round"/>
<path d="M5026.34 451.334L5086.19 474.894L5144.31 497.852L5200.84 520.089L5255.79 541.785" stroke="white" stroke-width="3" stroke-linecap="round" stroke-linejoin="round"/>
<path d="M5026.34 451.334L5073.28 493.044L5119.55 534.152L5159.8 569.852L5204.75 609.878" stroke="white" stroke-width="3" stroke-linecap="round" stroke-linejoin="round"/>
<path d="M5026.34 451.334L5077.05 489.318L5126.96 526.82L5166.75 556.69L5215.14 593.05" stroke="white" stroke-width="3" stroke-linecap="round" stroke-linejoin="round"/>
<path d="M5026.34 451.334L5084.99 478.199L5142.19 504.403L5198.06 530.005L5252.68 554.947" stroke="white" stroke-width="3" stroke-linecap="round" stroke-linejoin="round"/>
<path d="M5026.34 451.334L5080.29 485.531L5133.32 519.187L5185.49 552.242L5230.57 580.85" stroke="white" stroke-width="3" stroke-linecap="round" stroke-linejoin="round"/>
<path d="M5026.34 451.334L5083.01 481.745L5138.48 511.615L5192.9 540.823L5245.6 569.13" stroke="white" stroke-width="3" stroke-linecap="round" stroke-linejoin="round"/>
<path d="M5274.66 432.583L5272.14 434.927L5263.53 442.981L5262.14 444.243L5255.92 447.668L5253.67 448.87L5247.65 452.176L5238.71 456.503L5221.3 460.65L5209.25 460.349L5196.87 454.82L5184.96 444.183L5174.43 429.097L5166.09 410.527L5160.73 389.912L5158.67 368.757L5173.44 352.951L5190.78 339.428L5209.25 329.151L5227.39 322.901L5243.94 321.038L5257.58 323.562L5267.57 330.173" stroke="white" stroke-width="3" stroke-linecap="round" stroke-linejoin="round"/>
<path d="M5191.18 459.508L5181.18 455.902L5175.16 453.799L5174.5 453.558L5162.98 448.209L5154.3 438.293L5141.73 428.977L5138.81 416.717L5130.8 406.199L5125.77 393.578L5131.4 385.345L5142.59 376.871L5158.67 368.757L5178.47 361.605L5200.51 356.136L5223.02 352.65L5244.34 351.388L5262.67 352.53L5276.84 355.836L5285.98 361.004L5289.62 367.615L5292 384.323" stroke="white" stroke-width="3" stroke-linecap="round" stroke-linejoin="round"/>
<path d="M5290.15 400.37L5286.57 398.206L5277.5 394.9L5263.27 390.693L5244.8 385.825L5223.48 380.657L5200.78 375.668L5178.6 371.161L5158.67 367.555L5144.24 359.862L5134.51 353.912L5130.14 350.186" stroke="white" stroke-width="3" stroke-linecap="round" stroke-linejoin="round"/>
<path d="M5284.19 418.039L5279.89 417.979L5270.49 415.635L5256.45 410.947L5238.71 404.336L5218.45 396.102L5197.27 386.967L5176.81 377.592L5158.67 368.757L5142.46 366.233L5131.14 365.031L5125.38 365.211" stroke="white" stroke-width="3" stroke-linecap="round" stroke-linejoin="round"/>
<path d="M5178.6 372.363L5179.2 366.894L5178.47 361.605L5176.55 356.857L5173.44 352.951L5169.53 350.186L5164.96 348.744L5160.13 348.684L5155.36 350.006L5150.86 352.65L5147.09 356.436L5144.24 361.064L5142.46 366.233L5141.86 371.642L5142.59 376.87L5144.51 381.558L5147.49 385.465L5151.39 388.229L5155.89 389.792L5160.73 389.912L5165.56 388.59L5169.99 386.006L5173.9 382.279L5176.81 377.592L5178.6 372.363Z" stroke="white" stroke-width="3" stroke-linecap="round" stroke-linejoin="round"/>
<path d="M5262.14 444.243L5255.06 447.608L5244.47 446.647L5231.16 441.358L5215.87 431.862L5199.85 418.82L5184.09 403.134L5169.99 386.006L5158.67 368.757L5164.96 348.744L5174.36 331.315" stroke="white" stroke-width="3" stroke-linecap="round" stroke-linejoin="round"/>
<path d="M5125.9 400.971L5125.77 393.578L5123.92 379.575L5125.38 365.211L5130.14 351.328L5137.82 338.947L5140.47 334.861L5144.57 330.774L5148.02 327.288L5152.78 322.54" stroke="white" stroke-width="3" stroke-linecap="round" stroke-linejoin="round"/>
<path d="M5174.36 331.315L5183.17 334.139L5190.78 339.428L5196.74 346.941L5200.51 356.136L5201.9 366.353L5200.78 376.87L5197.27 386.967L5191.58 395.922L5184.09 403.134L5175.42 408.122L5166.09 410.526L5156.82 410.226L5148.15 407.281L5140.73 401.872L5135.04 394.36L5131.4 385.345L5130.08 375.308L5131.13 365.031L5134.51 355.114L5140.01 346.28L5147.22 339.007L5155.76 333.899L5165.03 331.255L5174.36 331.315ZM5174.36 331.315L5186.01 317.852L5199.06 309.258L5212.49 306.013L5229.31 311.061L5242.55 313.405L5253.14 320.437L5257.38 323.321L5257.84 323.622L5267.57 330.173L5274.86 339.188L5278.76 344.056L5285.98 361.004L5288.69 379.875L5286.57 399.348L5279.89 417.979L5269.1 434.446L5255.06 447.608L5238.71 456.503L5227.46 456.022L5214.55 450.493L5200.91 440.216L5187.54 425.792L5175.42 408.122L5165.56 388.59L5158.67 368.757L5160.13 348.684L5165.03 331.255L5172.91 317.852L5183.1 309.258L5194.75 306.013H5212.49L5225.34 308.176L5232.82 310.46L5242.55 313.405L5257.58 323.562L5269.29 338.046L5276.84 355.835L5279.69 375.668L5277.5 396.102L5270.49 415.635L5259.23 432.884L5244.47 446.647L5227.46 456.022L5209.25 460.349L5191.18 459.508L5179.26 453.979L5169.07 443.461L5161.32 428.556L5156.82 410.226L5155.89 389.792L5158.67 368.757L5155.36 350.006L5155.76 333.899L5159.93 321.578L5172.91 317.852H5186.01L5198.46 321.699L5209.25 329.151L5217.66 339.729L5223.02 352.65L5225.01 367.014L5223.48 381.859L5218.45 396.102L5210.38 408.723L5199.85 418.82L5187.54 425.792L5174.43 429.097L5161.32 428.556L5149.21 424.349L5138.81 416.717L5140.73 401.872L5147.49 385.465L5158.67 368.757L5169.53 350.186L5183.17 334.139L5198.46 321.699L5214.22 313.886L5229.31 311.061L5243.94 321.038L5255.33 335.161L5262.67 352.53L5265.39 371.882L5263.27 391.835L5256.45 410.947L5245.46 427.835L5231.16 441.358L5214.55 450.493L5196.87 454.82L5179.26 453.979L5162.98 448.209L5156.09 443.101L5149.08 437.932L5141.73 428.977L5132.06 416.236L5129.55 409.925L5125.91 400.971L5125.04 394.54L5123.65 384.022L5123.92 379.575L5130.08 375.308L5141.86 371.642L5158.67 368.757L5173.9 382.279L5191.58 395.922L5210.38 408.723L5228.78 419.602L5245.46 427.835L5259.23 432.884L5269.1 434.446L5274.66 432.583L5284.19 418.039L5290.15 401.572L5292 384.323L5288.69 379.875L5279.69 375.668L5265.39 371.882L5246.72 368.937L5225.01 367.014L5201.9 366.353L5179.2 366.894L5158.67 368.757L5147.09 356.436L5140.01 346.28L5137.82 338.947L5147.95 328.79L5152.78 322.54L5161.26 317.432L5167.28 313.826L5183.1 309.258H5199.06L5214.22 313.886L5227.39 322.901L5237.72 335.702L5244.34 351.388L5246.72 368.937L5244.8 387.027L5238.71 404.336L5228.78 419.602L5215.87 431.862L5200.91 440.216L5184.96 444.182L5169.07 443.461L5154.3 438.293L5149.21 424.349L5148.15 407.281L5151.39 388.229L5158.67 368.757L5150.86 352.65L5147.22 339.007L5147.95 328.79L5159.93 321.578L5167.28 313.826" stroke="white" stroke-width="3" stroke-linecap="round" stroke-linejoin="round"/>
<path d="M5132.06 416.236L5130.8 406.199L5135.04 394.36L5144.51 381.558L5158.67 368.757L5176.55 356.857L5196.74 346.941L5217.66 339.729L5237.72 335.702L5255.33 335.161L5269.29 338.046L5278.76 344.056L5283.2 352.59L5285.58 358.179L5287.04 361.605L5289.62 367.615" stroke="white" stroke-width="3" stroke-linecap="round" stroke-linejoin="round"/>
<path d="M5624.72 381.678L5654.71 377.832C5654.71 377.832 5657.36 377.832 5656.3 381.077C5656.3 381.077 5656.5 381.678 5654.98 382.64C5654.05 383.181 5652.99 383.542 5651.93 383.662L5622.8 387.087C5622.8 387.087 5620.68 386.607 5622.07 383.542C5622.07 383.542 5622.8 382.159 5624.79 381.678H5624.72Z" stroke="white" stroke-width="3" stroke-miterlimit="10"/>
<path d="M5231.06 79.376C5228.24 79.824 5225.62 80.048 5223.19 80.048C5220.18 80.048 5217.55 79.728 5215.31 79.088C5215.38 78.896 5215.41 78.416 5215.41 77.648C5214.51 77.52 5213.84 77.36 5213.39 77.168C5213.46 76.976 5213.49 76.56 5213.49 75.92C5213.49 74.576 5213.17 73.68 5212.53 73.232C5211.89 72.784 5210.99 72.56 5209.84 72.56C5208.56 72.56 5207.47 72.944 5206.58 73.712C5205.68 74.48 5205.23 75.6 5205.23 77.072C5205.23 78.096 5205.46 78.768 5205.91 79.088C5206.35 79.344 5206.9 79.504 5207.54 79.568C5208.18 79.632 5208.63 79.696 5208.88 79.76C5212.85 80.336 5216.59 81.872 5220.11 84.368C5223.7 86.8 5226.55 89.776 5228.66 93.296C5230.83 96.752 5231.92 100.272 5231.92 103.856C5231.92 108.144 5230.96 111.92 5229.04 115.184C5227.12 118.448 5224.56 120.944 5221.36 122.672C5218.23 124.464 5214.8 125.36 5211.09 125.36C5206.87 125.36 5202.71 124.4 5198.61 122.48C5194.51 120.624 5191.15 118.064 5188.53 114.8C5185.97 111.472 5184.69 107.856 5184.69 103.952L5184.79 102.704V101.36C5186.51 101.104 5188.37 100.976 5190.35 100.976L5195.92 101.072C5197.2 101.136 5199.03 101.168 5201.39 101.168C5201.39 101.872 5201.49 102.512 5201.68 103.088H5203.31C5203.31 104.688 5203.67 105.808 5204.37 106.448C5205.07 107.024 5206.13 107.312 5207.54 107.312C5208.95 107.312 5210.13 106.928 5211.09 106.16C5212.05 105.392 5212.53 104.304 5212.53 102.896C5212.53 100.912 5211.79 99.536 5210.32 98.768C5208.85 98 5207.35 97.488 5205.81 97.232C5204.27 96.912 5203.28 96.72 5202.83 96.656L5201.39 96.368C5199.47 95.984 5197.87 95.376 5196.59 94.544C5195.31 93.648 5193.94 92.464 5192.47 90.992C5187.99 86.704 5185.75 81.616 5185.75 75.728C5185.75 71.76 5186.74 68.112 5188.72 64.784C5190.71 61.456 5193.39 58.832 5196.79 56.912C5200.24 54.928 5204.05 53.936 5208.21 53.936C5212.5 53.936 5216.47 54.736 5220.11 56.336C5223.83 57.936 5226.8 60.24 5229.04 63.248C5231.28 66.256 5232.4 69.808 5232.4 73.904C5232.4 75.504 5232.21 77.328 5231.83 79.376H5231.06ZM5229.04 76.496C5229.36 74.704 5229.52 73.2 5229.52 71.984C5229.52 66.288 5227.47 62.032 5223.38 59.216C5219.35 56.336 5214.29 54.896 5208.21 54.896C5204.18 54.896 5200.53 55.824 5197.27 57.68C5194 59.536 5191.41 62.064 5189.49 65.264C5187.63 68.464 5186.71 71.952 5186.71 75.728C5186.71 77.968 5187.19 80.4 5188.15 83.024C5189.11 85.584 5190.58 87.856 5192.56 89.84C5194.55 91.824 5196.91 93.04 5199.67 93.488C5200.24 93.616 5201.91 93.968 5204.66 94.544C5207.41 95.056 5209.55 96.016 5211.09 97.424C5212.69 98.832 5213.49 100.656 5213.49 102.896C5213.49 104.688 5212.91 106.032 5211.76 106.928C5210.61 107.824 5209.2 108.272 5207.54 108.272C5205.68 108.272 5204.05 107.76 5202.64 106.736C5201.3 105.648 5200.56 104.112 5200.43 102.128C5198.45 102.128 5196.95 102.096 5195.92 102.032L5190.74 101.936C5188.95 101.936 5187.28 102.032 5185.75 102.224V103.856C5185.75 107.632 5186.9 110.928 5189.2 113.744C5191.51 116.56 5194.45 118.736 5198.03 120.272C5201.68 121.744 5205.43 122.48 5209.27 122.48C5212.79 122.48 5216.05 121.712 5219.06 120.176C5222.07 118.576 5224.47 116.24 5226.26 113.168C5228.11 110.032 5229.04 106.32 5229.04 102.032C5229.04 98.512 5228.11 95.216 5226.26 92.144C5224.4 89.008 5221.91 86.416 5218.77 84.368C5215.7 82.32 5212.37 81.104 5208.79 80.72C5204.5 80.272 5202.35 78.384 5202.35 75.056C5202.35 73.328 5202.9 72.016 5203.99 71.12C5205.07 70.16 5206.39 69.68 5207.92 69.68C5209.71 69.68 5211.28 70.192 5212.63 71.216C5213.97 72.24 5214.64 73.584 5214.64 75.248C5214.64 75.824 5214.61 76.208 5214.55 76.4C5216.66 76.976 5218.87 77.264 5221.17 77.264C5223.15 77.264 5225.75 77.008 5228.95 76.496H5229.04ZM5254.71 73.616C5256.82 73.552 5260.08 73.36 5264.5 73.04L5266.9 72.848C5267.41 73.616 5267.76 74.288 5267.96 74.864L5268.82 74.768C5269.72 75.856 5270.16 77.36 5270.16 79.28C5270.16 79.984 5270.1 81.04 5269.97 82.448C5269.84 83.856 5269.78 84.944 5269.78 85.712C5269.78 86.416 5269.88 87.408 5270.07 88.688H5255C5255 96.688 5255.03 102.576 5255.09 106.352C5256.31 106.928 5257.84 107.376 5259.7 107.696C5261.56 107.952 5263.44 108.08 5265.36 108.08C5266.58 108.08 5267.44 108.048 5267.96 107.984L5268.05 109.616V110C5268.82 110 5269.43 109.968 5269.88 109.904C5269.88 110.992 5269.97 112.208 5270.16 113.552C5270.42 115.6 5270.55 117.328 5270.55 118.736C5270.55 121.104 5270.23 123.152 5269.59 124.88C5268.76 124.944 5267.25 124.976 5265.08 124.976C5259 124.976 5253.65 124.08 5249.04 122.288C5244.5 120.496 5241.4 117.616 5239.73 113.648C5239.09 110 5238.68 106.512 5238.48 103.184C5238.29 99.856 5238.2 95.92 5238.2 91.376V89.072L5233.2 88.976V87.056H5231.28L5231.57 73.424C5233.3 73.488 5235.57 73.52 5238.39 73.52C5238.39 71.28 5238.36 69.584 5238.29 68.432L5238.2 62.768C5238.2 59.824 5238.32 57.296 5238.58 55.184C5239.99 55.056 5241.04 54.992 5241.75 54.992C5242.71 54.992 5244.02 55.056 5245.68 55.184C5246.96 55.376 5248.28 55.472 5249.62 55.472H5250.87C5251.7 55.472 5252.34 55.408 5252.79 55.28V57.392C5253.17 57.392 5253.81 57.328 5254.71 57.2V73.616ZM5251.83 56.336C5251.38 56.4 5250.64 56.432 5249.62 56.432C5248.02 56.432 5246.55 56.336 5245.2 56.144C5243.41 56.016 5242.1 55.952 5241.27 55.952C5240.5 55.952 5239.89 55.984 5239.44 56.048C5239.25 57.84 5239.16 60.048 5239.16 62.672L5239.25 69.104C5239.32 70.384 5239.35 72.176 5239.35 74.48H5236.08C5234.55 74.48 5233.36 74.448 5232.53 74.384L5232.24 86.096H5235.89C5237.36 86.096 5238.45 86.064 5239.16 86V91.376C5239.16 95.856 5239.25 99.76 5239.44 103.088C5239.64 106.416 5240.05 109.904 5240.69 113.552C5241.97 116.688 5244.66 118.896 5248.76 120.176C5252.85 121.456 5257.65 122.096 5263.16 122.096C5264.88 122.096 5266.16 122.064 5267 122C5267.44 120.592 5267.67 118.864 5267.67 116.816C5267.67 115.088 5267.44 112.496 5267 109.04C5266.55 109.104 5265.88 109.136 5264.98 109.136C5262.29 109.136 5259.73 108.848 5257.3 108.272C5254.87 107.632 5253.17 106.608 5252.21 105.2C5252.15 103.216 5252.12 100.144 5252.12 95.984V85.808H5267C5266.93 85.616 5266.9 85.104 5266.9 84.272C5266.9 83.632 5266.96 82.544 5267.09 81.008C5267.22 79.472 5267.28 78.288 5267.28 77.456C5267.28 75.664 5267 74.448 5266.42 73.808L5262.29 74.096L5251.92 74.576L5251.83 69.2V56.336ZM5286.17 102.608C5286.17 104.272 5286.26 105.648 5286.46 106.736C5286.71 107.76 5287.19 108.88 5287.9 110.096V110.288C5288.73 110.736 5289.75 110.96 5290.97 110.96C5292.31 110.96 5293.43 110.352 5294.33 109.136C5295.22 107.856 5295.67 105.968 5295.67 103.472V102.512C5297.08 102.64 5298.14 102.704 5298.84 102.704L5302.2 102.608C5302.9 102.544 5303.99 102.512 5305.46 102.512C5306.55 102.512 5307.99 102.672 5309.78 102.992L5309.69 104.624L5311.7 104.912C5311.7 111.824 5310.94 116.784 5309.4 119.792C5307.93 122.8 5306.01 124.592 5303.64 125.168C5301.34 125.808 5297.78 126.128 5292.98 126.128C5289.14 126.128 5286.07 125.84 5283.77 125.264C5281.53 124.752 5279.61 123.536 5278.01 121.616C5275.06 119.184 5272.89 115.696 5271.48 111.152C5270.07 106.608 5269.37 101.68 5269.37 96.368C5269.37 90.16 5270.1 85.072 5271.58 81.104C5272.92 78.032 5275.26 75.696 5278.58 74.096C5281.91 72.432 5285.62 71.6 5289.72 71.6C5294.65 71.6 5298.78 72.656 5302.1 74.768C5305.5 76.88 5307.99 79.728 5309.59 83.312C5311.26 86.832 5312.09 90.704 5312.09 94.928C5312.09 95.312 5311.99 96.944 5311.8 99.824C5310.58 100.144 5307.35 100.432 5302.1 100.688C5296.92 100.944 5292.31 101.072 5288.28 101.072C5287.32 101.072 5286.62 101.04 5286.17 100.976V102.608ZM5283.29 97.904C5284.06 98.096 5286.26 98.192 5289.91 98.192C5293.43 98.192 5297.24 98.096 5301.34 97.904C5305.43 97.648 5307.99 97.392 5309.02 97.136C5309.14 95.216 5309.21 93.84 5309.21 93.008C5309.21 86.608 5307.77 81.616 5304.89 78.032C5302.07 74.384 5297.02 72.56 5289.72 72.56C5285.88 72.56 5282.33 73.36 5279.06 74.96C5275.86 76.496 5273.66 78.64 5272.44 81.392C5270.97 85.36 5270.23 90.672 5270.23 97.328C5270.23 103.984 5271.35 109.744 5273.59 114.608C5275.83 119.472 5279.32 122.256 5284.06 122.96L5288.28 123.056C5290.46 123.184 5292.15 123.248 5293.37 123.248C5296.38 123.248 5298.94 122.928 5301.05 122.288C5303.22 121.648 5304.92 120.464 5306.14 118.736C5306.97 118.032 5307.54 116.56 5307.86 114.32C5308.18 112.016 5308.5 108.496 5308.82 103.76C5307.86 103.568 5306.62 103.472 5305.08 103.472L5301.34 103.568C5300.57 103.632 5299.51 103.664 5298.17 103.664C5297.4 103.664 5296.92 103.632 5296.73 103.568V104.336C5296.73 106.832 5296.15 108.72 5295 110C5293.91 111.28 5292.57 111.92 5290.97 111.92C5286.04 111.92 5283.48 107.824 5283.29 99.632V97.904ZM5298.65 90.32C5298.65 90.512 5298.42 90.608 5297.98 90.608C5297.66 90.608 5297.02 90.576 5296.06 90.512C5295.1 90.448 5293.94 90.416 5292.6 90.416L5286.36 90.512C5285.14 90.512 5284.34 90.448 5283.96 90.32C5283.58 90.192 5283.38 89.904 5283.38 89.456C5283.38 84.528 5286.1 82.064 5291.54 82.064C5292.76 82.064 5293.88 82.384 5294.9 83.024C5296.06 83.6 5296.95 84.464 5297.59 85.616C5298.3 86.768 5298.65 87.984 5298.65 89.264V90.32ZM5296.34 85.712C5295.51 85.2 5294.55 84.944 5293.46 84.944C5291.22 84.944 5289.59 85.328 5288.57 86.096C5287.61 86.864 5286.94 88.016 5286.55 89.552L5288.38 89.456H5292.6L5296.73 89.552L5297.69 89.648V89.264C5297.69 87.792 5297.27 86.64 5296.44 85.808L5296.34 85.712ZM5348.79 78.896C5351.61 81.2 5353.5 84.336 5354.46 88.304C5355.42 92.208 5356.06 97.2 5356.38 103.28C5356.38 108.272 5355.67 112.656 5354.26 116.432C5352.86 120.144 5350.74 122.544 5347.93 123.632C5345.5 124.592 5342.52 125.072 5339 125.072C5337.34 125.072 5335.7 124.912 5334.1 124.592C5332.5 124.336 5331.19 123.984 5330.17 123.536L5330.36 133.232C5330.36 134.704 5330.3 136.528 5330.17 138.704L5329.88 142.352V143.408C5329.88 143.728 5329.08 144.048 5327.48 144.368C5325.94 144.688 5324.25 144.848 5322.39 144.848C5319.7 144.848 5317.53 144.688 5315.86 144.368V142.736L5313.94 142.448V135.248C5313.94 129.36 5313.82 120.848 5313.56 109.712C5313.5 106.896 5313.43 103.504 5313.37 99.536C5313.3 95.504 5313.27 90.896 5313.27 85.712C5313.27 79.824 5313.3 75.632 5313.37 73.136L5318.84 73.04C5320.06 72.976 5321.82 72.944 5324.12 72.944C5325.46 72.944 5326.49 73.072 5327.19 73.328C5327.96 73.584 5328.34 74.096 5328.34 74.864V75.056C5329.24 75.056 5329.69 75.152 5329.69 75.344C5331.35 73.936 5333.46 73.232 5336.02 73.232C5341.34 73.232 5345.59 75.12 5348.79 78.896ZM5345.72 120.848C5348.41 119.888 5350.36 117.616 5351.58 114.032C5352.86 110.448 5353.5 106.224 5353.5 101.36C5353.3 95.664 5352.82 90.96 5352.06 87.248C5351.29 83.536 5349.62 80.432 5347.06 77.936C5344.5 75.44 5340.66 74.192 5335.54 74.192C5332.15 74.192 5329.78 75.6 5328.44 78.416C5328.25 78.672 5328.12 78.8 5328.06 78.8C5327.8 78.8 5327.54 78.064 5327.29 76.592C5327.1 75.12 5327.1 74.32 5327.29 74.192C5326.65 74.064 5325.72 74 5324.5 74L5314.33 74.096C5314.26 76.4 5314.23 79.92 5314.23 84.656C5314.23 89.904 5314.26 94.544 5314.33 98.576C5314.39 102.608 5314.46 106 5314.52 108.752C5314.78 120.272 5314.9 129.104 5314.9 135.248V141.584C5316.25 141.84 5318.1 141.968 5320.47 141.968C5322.07 141.968 5323.54 141.904 5324.89 141.776C5326.3 141.712 5327 141.616 5327 141.488V140.432L5327.19 137.072C5327.32 135.856 5327.38 133.936 5327.38 131.312V126.896C5327.38 124.08 5327.35 121.68 5327.29 119.696C5327.42 120.4 5328.44 121.008 5330.36 121.52C5332.28 121.968 5334.52 122.192 5337.08 122.192C5340.66 122.192 5343.54 121.744 5345.72 120.848ZM5333.82 86.096C5336.44 86.096 5338.55 87.344 5340.15 89.84C5341.75 92.336 5342.55 95.28 5342.55 98.672C5342.55 101.168 5342.33 103.024 5341.88 104.24C5341.18 108.784 5338.14 111.056 5332.76 111.056C5330.84 111.056 5329.5 110.832 5328.73 110.384C5327.96 109.872 5327.45 108.912 5327.19 107.504C5327 106.096 5326.9 103.6 5326.9 100.016C5326.9 96.816 5327.03 94.256 5327.29 92.336C5327.61 90.416 5328.25 88.912 5329.21 87.824C5330.23 86.672 5331.77 86.096 5333.82 86.096ZM5341.59 98.672C5341.59 96.112 5341.11 93.872 5340.15 91.952C5339.26 89.968 5337.78 88.976 5335.74 88.976C5333.94 88.976 5332.6 89.52 5331.7 90.608C5330.87 91.632 5330.33 93.04 5330.07 94.832C5329.88 96.56 5329.78 98.928 5329.78 101.936C5329.78 103.792 5329.82 105.424 5329.88 106.832C5329.94 108.176 5330.07 109.2 5330.26 109.904C5330.65 110.032 5331.1 110.096 5331.61 110.096C5332.18 110.096 5332.57 110.096 5332.76 110.096C5337.62 110.096 5340.34 108.112 5340.92 104.144L5341.02 103.952C5341.4 103.056 5341.59 102 5341.59 100.784C5341.59 99.568 5341.59 98.864 5341.59 98.672ZM5372.4 53.168C5373.29 53.232 5373.87 53.648 5374.12 54.416C5374.44 55.184 5374.6 56.464 5374.6 58.256L5374.51 64.976L5374.41 76.304C5377.23 74.448 5380.56 73.52 5384.4 73.52C5386.44 73.52 5388.43 73.872 5390.35 74.576C5392.27 75.28 5393.71 76.368 5394.67 77.84L5395.82 78.704C5397.48 79.984 5398.32 85.36 5398.32 94.832C5398.32 97.328 5398.25 101.072 5398.12 106.064C5398 110.928 5397.93 114.48 5397.93 116.72C5397.93 119.28 5398 121.904 5398.12 124.592C5395.82 124.912 5393.13 125.072 5390.06 125.072H5384.3C5384.24 124.624 5384.2 123.984 5384.2 123.152H5382.38C5382.19 121.168 5382.09 117.296 5382.09 111.536V106.736C5382.09 103.28 5382.03 100.496 5381.9 98.384C5381.77 96.208 5381.42 94.384 5380.84 92.912C5380.4 92.72 5379.72 92.624 5378.83 92.624C5376.91 92.624 5375.56 93.264 5374.8 94.544C5374.09 95.824 5373.74 98.288 5373.74 101.936C5373.74 103.664 5373.8 106.064 5373.93 109.136C5374.06 112.336 5374.12 114.672 5374.12 116.144C5374.12 118.896 5374 121.296 5373.74 123.344V124.4C5371.5 124.976 5369.64 125.264 5368.17 125.264C5367.28 125.264 5366.57 125.232 5366.06 125.168L5363.76 125.072H5362.7C5361.74 125.072 5360.81 125.136 5359.92 125.264V123.152L5358 123.344C5358 115.984 5357.96 109.936 5357.9 105.2L5357.8 76.304V65.36C5357.8 58.576 5357.87 53.968 5358 51.536C5359.53 51.728 5360.97 51.824 5362.32 51.824C5362.83 51.824 5363.66 51.728 5364.81 51.536C5366.03 51.344 5367.66 51.248 5369.71 51.248C5371.44 51.248 5372.33 51.632 5372.4 52.4V53.168ZM5371.53 53.36C5371.53 52.848 5371.47 52.528 5371.34 52.4C5371.21 52.208 5370.86 52.112 5370.28 52.112C5368.49 52.112 5366.48 52.272 5364.24 52.592C5363.21 52.72 5362.57 52.784 5362.32 52.784H5361.16C5360.33 52.784 5359.6 52.72 5358.96 52.592C5358.83 60.272 5358.76 67.632 5358.76 74.672V87.92L5358.86 109.424C5358.92 112.752 5358.96 117.04 5358.96 122.288C5359.72 122.224 5360.75 122.192 5362.03 122.192L5366.64 122.288C5367.98 122.288 5369.39 122.096 5370.86 121.712V121.328C5371.12 119.216 5371.24 116.848 5371.24 114.224C5371.24 112.56 5371.18 110.128 5371.05 106.928C5370.92 103.728 5370.86 101.296 5370.86 99.632C5370.86 95.792 5371.34 93.2 5372.3 91.856C5373.26 90.448 5374.8 89.744 5376.91 89.744C5379.21 89.744 5380.68 90.448 5381.32 91.856C5382.03 93.2 5382.44 94.736 5382.57 96.464C5382.7 98.128 5382.8 99.28 5382.86 99.92C5382.99 100.88 5383.05 102.416 5383.05 104.528V107.888V114.992V118.064C5383.05 119.984 5383.12 121.36 5383.24 122.192L5388.81 122.288C5391.12 122.288 5393.26 122.128 5395.24 121.808C5395.12 119.376 5395.05 117.36 5395.05 115.76C5395.05 113.52 5395.12 109.904 5395.24 104.912C5395.37 99.664 5395.44 95.824 5395.44 93.392C5395.44 88.976 5395.28 85.424 5394.96 82.736C5394.64 79.984 5394.06 78.224 5393.23 77.456C5391.05 75.472 5388.08 74.48 5384.3 74.48C5382.25 74.48 5380.43 74.8 5378.83 75.44C5377.23 76.08 5375.72 76.816 5374.32 77.648C5372.91 78.416 5371.98 78.928 5371.53 79.184V55.088V53.36ZM5416.02 80.432C5417.68 90.416 5419.12 97.872 5420.34 102.8L5421.2 95.696C5421.33 94.864 5421.62 92.656 5422.07 89.072C5422.52 85.488 5423.03 82.352 5423.6 79.664C5424.18 76.912 5424.82 74.736 5425.52 73.136L5430.13 73.04C5431.16 72.976 5432.69 72.944 5434.74 72.944C5435.38 72.944 5437.62 73.04 5441.46 73.232C5441.33 73.552 5441.17 74.16 5440.98 75.056L5443.38 75.152C5440.37 86.928 5437.91 97.2 5435.99 105.968C5434.39 113.328 5432.56 119.44 5430.52 124.304C5428.53 129.232 5425.27 133.392 5420.72 136.784C5416.24 140.24 5410.13 141.968 5402.39 141.968H5401.33C5400.31 141.968 5399.35 141.904 5398.45 141.776C5398.39 141.52 5398.32 141.2 5398.26 140.816C5398.2 140.496 5398.04 140.24 5397.78 140.048C5397.52 139.92 5397.11 139.856 5396.53 139.856C5395.7 137.04 5395.28 134.256 5395.28 131.504C5395.28 129.2 5395.47 127.12 5395.86 125.264L5400.08 125.36C5400.72 125.424 5401.65 125.456 5402.87 125.456C5404.66 125.456 5406.04 125.168 5407 124.592C5407.96 124.016 5408.44 122.928 5408.44 121.328C5408.44 120.752 5408.4 120.24 5408.34 119.792V119.888C5406.16 107.984 5402.32 92.272 5396.82 72.752C5398.8 73.072 5400.44 73.232 5401.72 73.232L5405.36 73.136H5408.44C5410.29 73.136 5411.64 73.2 5412.47 73.328L5413.33 74.096C5413.33 74.544 5413.4 74.864 5413.52 75.056C5413.65 75.184 5413.94 75.248 5414.39 75.248L5415.25 76.016L5416.02 80.432ZM5402.39 74.192H5400.66C5399.57 74.192 5398.74 74.128 5398.16 74C5398.87 76.368 5399.41 78.416 5399.8 80.144C5402.1 88.464 5403.99 95.664 5405.46 101.744C5407 107.76 5408.28 113.744 5409.3 119.696C5409.36 120.144 5409.4 120.72 5409.4 121.424C5409.4 123.344 5408.79 124.656 5407.57 125.36C5406.42 126.064 5404.82 126.416 5402.77 126.416C5401.49 126.416 5400.5 126.384 5399.8 126.32L5396.72 126.224C5396.4 127.952 5396.24 129.712 5396.24 131.504C5396.24 134.448 5396.59 136.944 5397.3 138.992C5398 139.056 5399.06 139.088 5400.47 139.088C5408.28 139.088 5414.36 137.392 5418.71 134C5423.12 130.672 5426.26 126.64 5428.12 121.904C5429.97 117.104 5431.7 110.896 5433.3 103.28C5434 99.824 5434.61 97.168 5435.12 95.312L5435.99 91.76C5437.46 85.232 5438.87 79.344 5440.21 74.096C5439.12 74.032 5437.62 74 5435.7 74L5427.44 74.096H5426.2C5425.49 75.824 5424.88 78.096 5424.37 80.912C5423.92 83.664 5423.41 87.44 5422.84 92.24C5422.2 96.912 5421.68 100.432 5421.3 102.8C5420.92 105.168 5420.44 107.184 5419.86 108.848C5418.26 104.432 5416.21 95.344 5413.72 81.584L5412.37 74.288C5410.71 74.16 5409.4 74.096 5408.44 74.096L5402.39 74.192Z" fill="white"/>
<path d="M401.464 991.376C398.648 991.824 396.024 992.048 393.592 992.048C390.584 992.048 387.96 991.728 385.72 991.088C385.784 990.896 385.816 990.416 385.816 989.648C384.92 989.52 384.248 989.36 383.8 989.168C383.864 988.976 383.896 988.56 383.896 987.92C383.896 986.576 383.576 985.68 382.936 985.232C382.296 984.784 381.4 984.56 380.248 984.56C378.968 984.56 377.88 984.944 376.984 985.712C376.088 986.48 375.64 987.6 375.64 989.072C375.64 990.096 375.864 990.768 376.312 991.088C376.76 991.344 377.304 991.504 377.944 991.568C378.584 991.632 379.032 991.696 379.288 991.76C383.256 992.336 387 993.872 390.52 996.368C394.104 998.8 396.952 1001.78 399.064 1005.3C401.24 1008.75 402.328 1012.27 402.328 1015.86C402.328 1020.14 401.368 1023.92 399.448 1027.18C397.528 1030.45 394.968 1032.94 391.768 1034.67C388.632 1036.46 385.208 1037.36 381.496 1037.36C377.272 1037.36 373.112 1036.4 369.016 1034.48C364.92 1032.62 361.56 1030.06 358.936 1026.8C356.376 1023.47 355.096 1019.86 355.096 1015.95L355.192 1014.7V1013.36C356.92 1013.1 358.776 1012.98 360.76 1012.98L366.328 1013.07C367.608 1013.14 369.432 1013.17 371.8 1013.17C371.8 1013.87 371.896 1014.51 372.088 1015.09H373.72C373.72 1016.69 374.072 1017.81 374.776 1018.45C375.48 1019.02 376.536 1019.31 377.944 1019.31C379.352 1019.31 380.536 1018.93 381.496 1018.16C382.456 1017.39 382.936 1016.3 382.936 1014.9C382.936 1012.91 382.2 1011.54 380.728 1010.77C379.256 1010 377.752 1009.49 376.216 1009.23C374.68 1008.91 373.688 1008.72 373.24 1008.66L371.8 1008.37C369.88 1007.98 368.28 1007.38 367 1006.54C365.72 1005.65 364.344 1004.46 362.872 1002.99C358.392 998.704 356.152 993.616 356.152 987.728C356.152 983.76 357.144 980.112 359.128 976.784C361.112 973.456 363.8 970.832 367.192 968.912C370.648 966.928 374.456 965.936 378.616 965.936C382.904 965.936 386.872 966.736 390.52 968.336C394.232 969.936 397.208 972.24 399.448 975.248C401.688 978.256 402.808 981.808 402.808 985.904C402.808 987.504 402.616 989.328 402.232 991.376H401.464ZM399.448 988.496C399.768 986.704 399.928 985.2 399.928 983.984C399.928 978.288 397.88 974.032 393.784 971.216C389.752 968.336 384.696 966.896 378.616 966.896C374.584 966.896 370.936 967.824 367.672 969.68C364.408 971.536 361.816 974.064 359.896 977.264C358.04 980.464 357.112 983.952 357.112 987.728C357.112 989.968 357.592 992.4 358.552 995.024C359.512 997.584 360.984 999.856 362.968 1001.84C364.952 1003.82 367.32 1005.04 370.072 1005.49C370.648 1005.62 372.312 1005.97 375.064 1006.54C377.816 1007.06 379.96 1008.02 381.496 1009.42C383.096 1010.83 383.896 1012.66 383.896 1014.9C383.896 1016.69 383.32 1018.03 382.168 1018.93C381.016 1019.82 379.608 1020.27 377.944 1020.27C376.088 1020.27 374.456 1019.76 373.048 1018.74C371.704 1017.65 370.968 1016.11 370.84 1014.13C368.856 1014.13 367.352 1014.1 366.328 1014.03L361.144 1013.94C359.352 1013.94 357.688 1014.03 356.152 1014.22V1015.86C356.152 1019.63 357.304 1022.93 359.608 1025.74C361.912 1028.56 364.856 1030.74 368.44 1032.27C372.088 1033.74 375.832 1034.48 379.672 1034.48C383.192 1034.48 386.456 1033.71 389.464 1032.18C392.472 1030.58 394.872 1028.24 396.664 1025.17C398.52 1022.03 399.448 1018.32 399.448 1014.03C399.448 1010.51 398.52 1007.22 396.664 1004.14C394.808 1001.01 392.312 998.416 389.176 996.368C386.104 994.32 382.776 993.104 379.192 992.72C374.904 992.272 372.76 990.384 372.76 987.056C372.76 985.328 373.304 984.016 374.392 983.12C375.48 982.16 376.792 981.68 378.328 981.68C380.12 981.68 381.688 982.192 383.032 983.216C384.376 984.24 385.048 985.584 385.048 987.248C385.048 987.824 385.016 988.208 384.952 988.4C387.064 988.976 389.272 989.264 391.576 989.264C393.56 989.264 396.152 989.008 399.352 988.496H399.448ZM405.05 989.84C406.01 987.792 407.898 986.256 410.714 985.232C413.594 984.208 416.826 983.696 420.41 983.696C420.922 983.76 422.106 983.792 423.962 983.792L426.266 983.696C428.698 983.696 431.066 984.08 433.37 984.848C435.674 985.616 437.594 986.736 439.13 988.208H439.034C439.226 988.464 439.514 988.816 439.898 989.264C440.282 989.648 440.634 989.936 440.954 990.128L440.858 990.032C442.586 991.184 443.738 993.488 444.314 996.944C444.954 1000.4 445.274 1004.69 445.274 1009.81C445.274 1014.35 444.986 1019.06 444.41 1023.92C443.834 1028.78 443.034 1031.79 442.01 1032.94C440.666 1034.86 438.842 1036.18 436.538 1036.88C434.234 1037.58 431.546 1037.94 428.474 1037.94C425.21 1037.94 422.554 1037.84 420.506 1037.65C418.522 1037.46 416.538 1036.91 414.554 1036.02C412.634 1035.18 410.778 1033.84 408.986 1031.98L408.122 1031.12C406.138 1029.26 404.794 1026.9 404.09 1024.02C403.386 1021.07 403.034 1017.65 403.034 1013.74V1010.29L403.13 1007.02C403.13 1006.26 403.098 1005.52 403.034 1004.82C402.97 1004.11 402.938 1003.47 402.938 1002.9C402.938 1000.14 403.002 998.064 403.13 996.656C403.258 995.248 403.738 993.552 404.57 991.568H404.474C404.538 991.184 404.602 990.8 404.666 990.416C404.794 990.032 404.922 989.776 405.05 989.648V989.744L404.954 990.032L405.05 989.84ZM403.994 1006.83V1013.94C403.994 1019.57 404.922 1024.24 406.778 1027.95C408.698 1031.6 412.122 1033.84 417.05 1034.67L421.562 1034.77C423.738 1034.9 425.434 1034.96 426.65 1034.96C429.658 1034.96 432.218 1034.64 434.33 1034C436.442 1033.36 438.106 1032.18 439.322 1030.45C440.41 1029.36 441.114 1026.93 441.434 1023.15C441.818 1019.38 442.138 1014.29 442.394 1007.89C442.394 1007.31 442.33 1005.26 442.202 1001.74C442.074 998.16 441.69 995.312 441.05 993.2C440.474 991.024 439.61 989.584 438.458 988.88C435.578 986.064 431.386 984.656 425.882 984.656L422.234 984.752C421.402 984.752 420.762 984.72 420.314 984.656C417.05 984.656 414.042 985.136 411.29 986.096C408.538 987.056 406.746 988.432 405.914 990.224C405.21 992.72 404.698 994.928 404.378 996.848C404.058 998.768 403.898 1000.75 403.898 1002.8L403.994 1006.83ZM423.674 999.152C428.154 999.152 430.394 1002.48 430.394 1009.14C430.394 1011.89 430.266 1014.1 430.01 1015.76C429.754 1017.36 429.082 1018.67 427.994 1019.7C426.906 1020.72 425.242 1021.23 423.002 1021.23C421.082 1021.23 419.514 1020.82 418.298 1019.98C417.082 1019.15 416.474 1017.81 416.474 1015.95C416.538 1015.12 416.57 1013.65 416.57 1011.54C416.57 1008.59 416.634 1006.32 416.762 1004.72C416.954 1003.06 417.338 1002 417.914 1001.55C419.194 999.952 421.114 999.152 423.674 999.152ZM420.41 1004.24C419.898 1004.56 419.578 1006.03 419.45 1008.66C419.386 1011.22 419.354 1014.32 419.354 1017.97C419.354 1018.99 419.674 1019.63 420.314 1019.89C420.954 1020.14 421.85 1020.27 423.002 1020.27C426.906 1020.27 428.858 1018.93 428.858 1016.24C429.242 1012.78 429.434 1010.29 429.434 1008.75C429.434 1006.64 429.178 1005.01 428.666 1003.86C428.218 1002.7 427.13 1002.13 425.402 1002.13C425.018 1002.13 424.314 1002.19 423.29 1002.32H423.386C422.17 1002.64 421.242 1003.22 420.602 1004.05L420.41 1004.24ZM470.737 1033.62C467.345 1035.47 463.985 1036.4 460.657 1036.4C458.609 1036.4 456.561 1036.05 454.513 1035.34C452.465 1034.7 451.089 1033.68 450.385 1032.27C449.041 1031.18 448.081 1029.33 447.505 1026.7C446.993 1024.08 446.737 1020.21 446.737 1015.09C446.737 1012.59 446.801 1008.85 446.929 1003.86C447.057 998.992 447.121 995.44 447.121 993.2C447.121 990.64 447.057 988.016 446.929 985.328C449.169 985.008 451.793 984.848 454.801 984.848H460.753C460.753 985.68 460.785 986.32 460.849 986.768H462.673C462.865 988.752 462.961 992.624 462.961 998.384V1003.18C462.961 1006.9 463.025 1009.78 463.153 1011.82C463.281 1013.81 463.665 1015.57 464.305 1017.1C465.201 1017.23 465.841 1017.3 466.225 1017.3C468.017 1017.3 469.297 1016.72 470.065 1015.57C470.897 1014.42 471.313 1012.27 471.313 1009.14C471.313 1007.6 471.249 1005.17 471.121 1001.84C470.929 999.408 470.833 996.912 470.833 994.352C470.833 991.088 470.993 988.464 471.313 986.48V985.52C473.169 985.008 474.993 984.752 476.785 984.752L481.297 984.848H482.353C483.313 984.848 484.241 984.784 485.137 984.656V986.768L487.057 986.576L487.153 1004.72C487.281 1012.78 487.345 1018.9 487.345 1023.06C487.345 1026.45 487.281 1031.02 487.153 1036.78C484.081 1036.59 482.641 1036.5 482.833 1036.5C482.257 1036.5 481.361 1036.59 480.145 1036.78C478.929 1036.98 477.361 1037.07 475.441 1037.07C474.417 1037.07 473.681 1036.94 473.233 1036.69C472.849 1036.43 472.657 1035.92 472.657 1035.15C471.569 1035.09 470.961 1034.7 470.833 1034L470.737 1033.62ZM472.849 1034.29C474.705 1034.29 476.753 1034.13 478.993 1033.81C480.017 1033.68 480.657 1033.62 480.913 1033.62C481.105 1033.62 482.225 1033.68 484.273 1033.81C484.401 1027.15 484.465 1022.29 484.465 1019.22C484.465 1015.31 484.401 1009.65 484.273 1002.22L484.177 985.712C483.409 985.776 482.385 985.808 481.105 985.808L476.401 985.712C475.121 985.712 473.745 985.904 472.273 986.288V986.672C471.953 988.656 471.793 991.088 471.793 993.968C471.793 995.568 471.857 998.032 471.985 1001.36C472.177 1003.86 472.273 1006.35 472.273 1008.85C472.273 1012.43 471.761 1014.9 470.737 1016.24C469.777 1017.58 468.273 1018.26 466.225 1018.26C464.433 1018.26 463.121 1017.81 462.289 1016.91C461.457 1015.95 460.945 1014.86 460.753 1013.65C460.561 1012.43 460.401 1010.58 460.273 1008.08C460.145 1007.12 460.081 1005.58 460.081 1003.47V1000.21V993.008V989.936C460.081 988.016 460.017 986.64 459.889 985.808L454.321 985.712C452.017 985.712 449.873 985.872 447.889 986.192C447.953 987.408 447.985 989.424 447.985 992.24C447.985 994.416 447.921 998.064 447.793 1003.18C447.665 1008.3 447.601 1012.14 447.601 1014.7C447.601 1023.98 448.369 1029.26 449.905 1030.54C452.081 1032.53 455.025 1033.52 458.737 1033.52C461.105 1033.52 463.121 1033.17 464.785 1032.46C466.449 1031.76 468.721 1030.54 471.601 1028.82L471.505 1031.12C471.505 1033.23 471.953 1034.29 472.849 1034.29ZM511.46 1036.69C510.052 1036.5 508.836 1036.4 507.812 1036.4C506.468 1036.4 505.156 1036.5 503.876 1036.69C502.468 1036.82 501.316 1036.88 500.42 1036.88L498.788 1036.98C498.276 1036.98 497.86 1036.82 497.54 1036.5C497.22 1036.24 497.028 1035.7 496.964 1034.86L495.332 1034.77C495.012 1032.85 494.852 1028.24 494.852 1020.94L494.948 1006.26V1002.8L490.148 1002.9L490.052 1000.88L488.228 1000.98L487.94 987.344H494.756C494.756 983.376 495.588 979.632 497.252 976.112C498.916 972.528 501.636 970.096 505.412 968.816V968.912C509.38 967.568 514.18 966.896 519.812 966.896C522.052 966.896 523.588 966.928 524.42 966.992C524.484 967.248 524.548 967.568 524.612 967.952C524.74 968.336 524.9 968.592 525.092 968.72C525.348 968.848 525.764 968.912 526.34 968.912C526.98 970.64 527.3 972.688 527.3 975.056C527.3 976.528 527.172 978.352 526.916 980.528C526.724 981.872 526.628 982.992 526.628 983.888C526.18 983.824 525.476 983.792 524.516 983.792C522.404 983.792 520.164 983.984 517.796 984.368C515.492 984.688 514.18 984.88 513.86 984.944C513.156 985.072 512.612 985.392 512.228 985.904C511.844 986.416 511.62 986.992 511.556 987.632H524.9C524.644 988.592 524.516 989.232 524.516 989.552H526.82C526.5 991.088 526.34 991.984 526.34 992.24C526.34 992.368 526.34 992.464 526.34 992.528C526.404 992.592 526.436 992.72 526.436 992.912V994.928C526.436 995.76 526.372 996.752 526.244 997.904C526.052 1000.21 525.956 1002.1 525.956 1003.57L520.004 1003.18C516.164 1002.86 513.316 1002.7 511.46 1002.7V1036.69ZM518.948 1000.3L523.076 1000.59C523.396 997.456 523.556 995.504 523.556 994.736V990.032C523.556 989.264 523.588 988.784 523.652 988.592H508.964C508.772 987.824 508.676 987.056 508.676 986.288C508.676 983.728 509.7 982.32 511.748 982.064C516.804 981.296 520.388 980.912 522.5 980.912H523.748C524.196 977.456 524.42 974.864 524.42 973.136C524.42 971.088 524.196 969.36 523.748 967.952C522.788 967.888 521.476 967.856 519.812 967.856C514.18 967.856 509.476 968.496 505.7 969.776C502.116 970.928 499.556 973.072 498.02 976.208C496.484 979.28 495.716 982.672 495.716 986.384C495.716 987.28 495.748 987.952 495.812 988.4C495.108 988.336 494.02 988.304 492.548 988.304H488.9L489.188 1000.02C490.02 999.952 491.204 999.92 492.74 999.92H496.004C496.004 1002.29 495.972 1004.4 495.908 1006.26L495.812 1021.52C495.812 1028.05 495.94 1032.18 496.196 1033.9C496.644 1033.97 497.252 1034 498.02 1034C498.852 1034 500.164 1033.94 501.956 1033.81C503.3 1033.62 504.772 1033.52 506.372 1033.52C507.396 1033.52 508.132 1033.55 508.58 1033.62V999.824L518.948 1000.3ZM542.363 992.432C544.027 1002.42 545.467 1009.87 546.683 1014.8L547.547 1007.7C547.675 1006.86 547.963 1004.66 548.411 1001.07C548.859 997.488 549.371 994.352 549.947 991.664C550.523 988.912 551.163 986.736 551.867 985.136L556.475 985.04C557.499 984.976 559.035 984.944 561.083 984.944C561.723 984.944 563.963 985.04 567.803 985.232C567.675 985.552 567.515 986.16 567.323 987.056L569.723 987.152C566.715 998.928 564.251 1009.2 562.331 1017.97C560.731 1025.33 558.907 1031.44 556.859 1036.3C554.875 1041.23 551.611 1045.39 547.067 1048.78C542.587 1052.24 536.475 1053.97 528.731 1053.97H527.675C526.651 1053.97 525.691 1053.9 524.795 1053.78C524.731 1053.52 524.667 1053.2 524.603 1052.82C524.539 1052.5 524.379 1052.24 524.123 1052.05C523.867 1051.92 523.451 1051.86 522.875 1051.86C522.043 1049.04 521.627 1046.26 521.627 1043.5C521.627 1041.2 521.819 1039.12 522.203 1037.26L526.427 1037.36C527.067 1037.42 527.995 1037.46 529.211 1037.46C531.003 1037.46 532.379 1037.17 533.339 1036.59C534.299 1036.02 534.779 1034.93 534.779 1033.33C534.779 1032.75 534.747 1032.24 534.683 1031.79V1031.89C532.507 1019.98 528.667 1004.27 523.163 984.752C525.147 985.072 526.779 985.232 528.059 985.232L531.707 985.136H534.779C536.635 985.136 537.979 985.2 538.811 985.328L539.675 986.096C539.675 986.544 539.739 986.864 539.867 987.056C539.995 987.184 540.283 987.248 540.731 987.248L541.595 988.016L542.363 992.432ZM528.731 986.192H527.003C525.915 986.192 525.083 986.128 524.507 986C525.211 988.368 525.755 990.416 526.139 992.144C528.443 1000.46 530.331 1007.66 531.803 1013.74C533.339 1019.76 534.619 1025.74 535.643 1031.7C535.707 1032.14 535.739 1032.72 535.739 1033.42C535.739 1035.34 535.131 1036.66 533.915 1037.36C532.763 1038.06 531.163 1038.42 529.115 1038.42C527.835 1038.42 526.843 1038.38 526.139 1038.32L523.067 1038.22C522.747 1039.95 522.587 1041.71 522.587 1043.5C522.587 1046.45 522.939 1048.94 523.643 1050.99C524.347 1051.06 525.403 1051.09 526.811 1051.09C534.619 1051.09 540.699 1049.39 545.051 1046C549.467 1042.67 552.603 1038.64 554.459 1033.9C556.315 1029.1 558.043 1022.9 559.643 1015.28C560.347 1011.82 560.955 1009.17 561.467 1007.31L562.331 1003.76C563.803 997.232 565.211 991.344 566.555 986.096C565.467 986.032 563.963 986 562.043 986L553.787 986.096H552.539C551.835 987.824 551.227 990.096 550.715 992.912C550.267 995.664 549.755 999.44 549.179 1004.24C548.539 1008.91 548.027 1012.43 547.643 1014.8C547.259 1017.17 546.779 1019.18 546.203 1020.85C544.603 1016.43 542.555 1007.34 540.059 993.584L538.715 986.288C537.051 986.16 535.739 986.096 534.779 986.096L528.731 986.192ZM610.774 988.016C610.902 989.04 610.966 989.84 610.966 990.416V991.376C610.902 993.104 610.87 995.6 610.87 998.864L610.966 1009.62C611.03 1012.05 611.062 1015.66 611.062 1020.46C611.062 1024.24 610.966 1028.11 610.774 1032.08V1032.75C610.774 1034.1 610.678 1035.09 610.486 1035.73C610.294 1036.37 609.718 1036.78 608.758 1036.98H607.414C606.518 1036.98 605.366 1036.91 603.958 1036.78L601.174 1036.69C600.726 1036.69 600.054 1036.75 599.158 1036.88L597.046 1036.98C596.022 1036.72 595.35 1036.08 595.03 1035.06C594.198 1034.74 593.686 1034.38 593.494 1034C590.166 1036.05 586.87 1037.07 583.606 1037.07C580.214 1037.07 577.206 1035.6 574.582 1032.66C572.022 1029.71 570.038 1026.03 568.63 1021.62C567.286 1017.14 566.614 1012.75 566.614 1008.46C566.614 1003.6 567.446 999.44 569.11 995.984C570.774 992.464 573.046 989.808 575.926 988.016C578.87 986.224 582.166 985.328 585.814 985.328C587.606 985.328 588.982 985.456 589.942 985.712C590.966 985.968 591.894 986.608 592.726 987.632C592.79 987.312 592.854 986.8 592.918 986.096C592.982 985.392 593.142 984.944 593.398 984.752C593.654 984.56 594.07 984.464 594.646 984.464C595.222 984.464 595.734 984.528 596.182 984.656C596.694 984.72 597.174 984.752 597.622 984.752H598.486C600.15 984.752 603.318 984.912 607.99 985.232L608.854 986.096L608.95 987.152H609.91L610.774 988.016ZM597.43 985.712L594.838 985.616C594.198 985.616 593.814 986.032 593.686 986.864C593.558 987.632 593.494 988.752 593.494 990.224V990.704C592.918 989.296 592.182 988.272 591.286 987.632C590.39 986.992 589.398 986.608 588.31 986.48C587.222 986.352 585.686 986.288 583.702 986.288C580.694 986.352 577.942 987.376 575.446 989.36C573.014 991.28 571.094 993.904 569.686 997.232C568.278 1000.56 567.574 1004.3 567.574 1008.46C567.574 1012.24 568.086 1016.11 569.11 1020.08C570.134 1024.05 571.702 1027.41 573.814 1030.16C575.99 1032.85 578.614 1034.19 581.686 1034.19C583.862 1034.19 586.102 1033.68 588.406 1032.66C590.774 1031.57 592.758 1030.22 594.358 1028.62C594.358 1029.01 594.294 1029.55 594.166 1030.26C594.038 1030.9 593.974 1031.47 593.974 1031.98C593.974 1033.07 594.358 1033.78 595.126 1034.1C595.638 1034.1 596.342 1034.03 597.238 1033.9L599.254 1033.81L602.422 1033.9C603.83 1034.03 604.854 1034.1 605.494 1034.1H606.646C607.158 1033.97 607.478 1033.71 607.606 1033.33C607.798 1032.88 607.894 1032.27 607.894 1031.5V1030.16C608.15 1026.38 608.278 1022.19 608.278 1017.58L608.182 1007.02C608.054 1002.29 607.99 998.704 607.99 996.272C607.99 993.264 608.022 990.992 608.086 989.456V988.496C608.086 987.984 608.022 987.216 607.894 986.192C606.102 986.064 602.966 985.904 598.486 985.712H597.43ZM588.886 999.152C590.486 999.152 591.606 999.312 592.246 999.632C592.95 999.888 593.398 1000.5 593.59 1001.46C593.782 1002.35 593.878 1003.89 593.878 1006.06V1011.34C593.878 1013.65 593.75 1015.44 593.494 1016.72C593.302 1018 592.758 1018.99 591.862 1019.7C591.03 1020.4 589.718 1020.75 587.926 1020.75C585.302 1020.75 583.222 1019.76 581.686 1017.78C580.15 1015.79 579.382 1013.33 579.382 1010.38C579.382 1008.27 579.574 1006.58 579.958 1005.3C580.342 1003.57 581.302 1002.13 582.838 1000.98C584.374 999.76 586.39 999.152 588.886 999.152ZM582.838 1007.5C582.454 1008.78 582.262 1010.38 582.262 1012.3C582.262 1017.3 584.15 1019.79 587.926 1019.79C589.526 1019.79 590.678 1019.44 591.382 1018.74C592.086 1018.03 592.502 1017.07 592.63 1015.86C592.822 1014.64 592.918 1012.78 592.918 1010.29V1007.79L593.014 1004.91C593.014 1003.89 592.854 1003.15 592.534 1002.7C592.278 1002.26 591.702 1002.03 590.806 1002.03C588.566 1002.03 586.774 1002.54 585.43 1003.57C584.086 1004.59 583.222 1005.87 582.838 1007.41V1007.5ZM630.318 988.4C633.454 986.48 636.846 985.52 640.494 985.52C642.542 985.52 644.526 985.872 646.446 986.576C648.366 987.28 649.806 988.368 650.766 989.84L651.918 990.704C653.582 991.984 654.414 997.36 654.414 1006.83C654.414 1009.33 654.35 1013.07 654.222 1018.06C654.094 1022.93 654.03 1026.48 654.03 1028.72C654.03 1031.28 654.094 1033.9 654.222 1036.59C651.918 1036.91 649.23 1037.07 646.158 1037.07H640.398C640.334 1036.62 640.302 1035.98 640.302 1035.15H638.478C638.286 1033.17 638.19 1029.3 638.19 1023.54V1018.74C638.19 1015.02 638.126 1012.14 637.998 1010.1C637.87 1008.05 637.518 1006.32 636.942 1004.91C636.43 1004.72 635.758 1004.62 634.926 1004.62C633.006 1004.62 631.662 1005.26 630.894 1006.54C630.19 1007.82 629.838 1010.29 629.838 1013.94C629.838 1015.66 629.902 1018.06 630.03 1021.14C630.158 1024.34 630.222 1026.67 630.222 1028.14C630.222 1030.9 630.094 1033.3 629.838 1035.34V1036.4C627.598 1036.98 625.742 1037.26 624.27 1037.26C623.374 1037.26 622.67 1037.23 622.158 1037.17L619.854 1037.07H618.798C617.838 1037.07 616.91 1037.14 616.014 1037.26V1035.15L614.094 1035.34L613.998 1017.2C613.87 1009.14 613.806 1003.02 613.806 998.864C613.806 995.472 613.87 990.896 613.998 985.136C615.534 985.328 616.974 985.424 618.318 985.424C618.83 985.424 619.662 985.328 620.814 985.136C622.03 984.944 623.662 984.848 625.71 984.848C627.438 984.848 628.334 985.232 628.398 986C628.398 986.384 628.686 986.736 629.262 987.056C629.902 987.312 630.254 987.6 630.318 987.92V988.4ZM626.286 985.712C624.494 985.712 622.478 985.872 620.238 986.192C619.214 986.32 618.574 986.384 618.318 986.384H617.166C616.334 986.384 615.598 986.32 614.958 986.192C614.83 988.176 614.766 991.088 614.766 994.928V1000.78C614.766 1004.69 614.83 1010.35 614.958 1017.78L615.054 1034.29C615.822 1034.22 616.846 1034.19 618.126 1034.19L622.734 1034.29C624.078 1034.29 625.486 1034.1 626.958 1033.71V1033.33C627.214 1031.22 627.342 1028.85 627.342 1026.22C627.342 1024.56 627.278 1022.13 627.15 1018.93C627.022 1015.73 626.958 1013.3 626.958 1011.63C626.958 1007.79 627.438 1005.2 628.398 1003.86C629.358 1002.45 630.894 1001.74 633.006 1001.74C635.31 1001.74 636.782 1002.45 637.422 1003.86C638.126 1005.2 638.542 1006.74 638.67 1008.46C638.798 1010.13 638.894 1011.28 638.958 1011.92C639.086 1012.88 639.15 1014.42 639.15 1016.53V1019.89V1026.99V1030.06C639.15 1031.98 639.214 1033.36 639.342 1034.19L644.91 1034.29C647.214 1034.29 649.358 1034.13 651.342 1033.81C651.214 1031.38 651.15 1029.36 651.15 1027.76C651.15 1025.52 651.214 1021.9 651.342 1016.91C651.47 1011.66 651.534 1007.82 651.534 1005.39C651.534 1000.98 651.374 997.424 651.054 994.736C650.734 991.984 650.158 990.224 649.326 989.456C647.15 987.472 644.174 986.48 640.398 986.48C638.35 986.48 636.526 986.8 634.926 987.44C633.326 988.08 631.822 988.816 630.414 989.648C629.006 990.416 628.078 990.928 627.63 991.184L627.726 988.976C627.726 986.8 627.246 985.712 626.286 985.712Z" fill="white"/>
</g>
<defs>
<linearGradient id="paint0_linear_20_3" x1="0" y1="540" x2="5820" y2="540" gradientUnits="userSpaceOnUse">
<stop stop-color="#4589BB"/>
<stop offset="1" stop-color="#635195"/>
</linearGradient>
<linearGradient id="paint1_linear_20_3" x1="2662.97" y1="-111.701" x2="2733.39" y2="1207.03" gradientUnits="userSpaceOnUse">
<stop stop-color="#635195"/>
<stop offset="1" stop-color="#4287B9"/>
</linearGradient>
<linearGradient id="paint2_linear_20_3" x1="2375.02" y1="1092.47" x2="5651.16" y2="306.03" gradientUnits="userSpaceOnUse">
<stop stop-color="#635195"/>
<stop offset="1" stop-color="#4287B9"/>
</linearGradient>
<linearGradient id="paint3_linear_20_3" x1="2404.2" y1="-588.26" x2="3321.79" y2="1665.35" gradientUnits="userSpaceOnUse">
<stop stop-color="#5B4687"/>
<stop offset="1" stop-color="#4D95C4"/>
</linearGradient>
<clipPath id="clip0_20_3">
<rect width="5820" height="1080" fill="white"/>
</clipPath>
</defs>
</svg>
