<?xml version="1.0" encoding="UTF-8"?>
<svg id="ff" xmlns="http://www.w3.org/2000/svg" viewBox="0 0 200 200">
  <defs>
    <style>
      .cls-1 {
        fill: #231f20;
      }

      .cls-2 {
        fill: #fff;
      }
    </style>
  </defs>
  <path class="cls-2" d="M171.11,19.68H28.89c-4.91,0-8.89,3.98-8.89,8.89v142.22c0,4.91,3.98,8.89,8.89,8.89h142.22c4.91,0,8.89-3.98,8.89-8.89V28.57c0-4.91-3.98-8.89-8.89-8.89M169.81,148.67H30.15v-63.32h139.66v63.32Z"/>
  <path class="cls-1" d="M43.35,35.54v-3.11c-.71-.19-1.83-.47-3.3-.47-4.63,0-7.04,2.83-7.04,7.68,0,4.41,2.66,7.52,6.63,7.52.95,0,2.22-.11,3.3-.39l.06-4.27h-2.22v-2.28h7.16v2.28h-2l-.05,6.19c-1.3.47-3.86.91-5.94.91-7.07,0-10.37-4.32-10.37-9.85,0-6.05,4.05-10.24,10.51-10.24,2.27,0,4.74.53,6.05,1.06v4.97h-2.78Z"/>
  <path class="cls-1" d="M49.46,46.99h1.92l.11-14.87h-2.03v-2.28h8.63c4,0,5.88,2.3,5.88,5.13,0,3.36-2.16,4.88-4.63,5.13v.05c1.08.09,1.8,1,2.47,2.11l2.11,3.55c.55.92,1.08,1.17,1.72,1.17h.72v2.27h-1.8c-1.64,0-2.39-.16-3.53-2.05l-2.66-4.52c-.8-1.39-1.22-1.69-2.14-1.69h-1.66l-.06,5.99h2.25v2.27h-7.3v-2.27ZM56.98,38.56c2.19,0,3.72-1.16,3.72-3.25s-1.25-3.19-3.5-3.19h-2.58l-.05,6.43h2.41Z"/>
  <path class="cls-1" d="M67.2,46.99h1.66l7.05-17.15h3.44l6.52,17.15h1.72v2.27h-7.1v-2.27h1.78l-1.66-4.83h-6.83l-1.8,4.83h1.99v2.27h-6.77v-2.27ZM77.89,34.23c-.31-.86-.41-1.36-.5-1.78h-.06c-.08.39-.19.91-.53,1.78l-2.13,5.49h5.13l-1.91-5.49Z"/>
  <polygon class="cls-1" points="88.64 46.99 90.59 46.99 90.7 32.12 88.45 32.12 88.45 29.85 102.1 29.85 102.21 34.95 99.63 34.95 99.46 32.12 93.83 32.12 93.78 38.11 99.82 38.11 99.82 40.56 93.78 40.56 93.72 46.99 96.11 46.99 96.11 49.27 88.64 49.27 88.64 46.99"/>
  <polygon class="cls-1" points="104.68 46.99 106.65 46.99 106.76 32.12 104.68 32.12 104.68 29.85 111.84 29.85 111.84 32.12 109.87 32.12 109.76 46.99 111.84 46.99 111.84 49.27 104.68 49.27 104.68 46.99"/>
  <path class="cls-1" d="M117.81,43.89v2.58c.58.31,1.97.69,3.52.69,2.47,0,4.1-1.11,4.1-3.19,0-1.56-.94-2.17-3.03-2.75l-3.44-.97c-2.22-.64-4.22-1.94-4.22-5.05,0-3.83,3.24-5.69,7.32-5.69,2.53,0,4.42.53,5.88.94v4.3h-2.94v-2.33c-.42-.17-1.41-.47-2.92-.47-2.89,0-4.08,1.3-4.08,2.8,0,1.69,1.25,2.28,3,2.72l2.99.78c2.22.58,4.69,1.8,4.69,5.21,0,3.86-2.86,6.13-7.46,6.13-1.41,0-4.85-.36-6.55-1.03v-4.69h3.11Z"/>
  <path class="cls-1" d="M144.67,35.54v-3.11c-.72-.19-1.83-.47-3.3-.47-4.64,0-7.05,2.83-7.05,7.68,0,4.41,2.66,7.52,6.63,7.52,1.34,0,2.75-.14,3.47-.28l.11-3.5h2.77l-.11,5.3c-1.25.41-3.75.91-6.05.91-6.96,0-10.26-4.32-10.26-9.85,0-6.05,4.05-10.24,10.51-10.24,2.44,0,4.74.53,6.05,1.06v4.97h-2.78Z"/>
  <polygon class="cls-1" points="162.64 46.99 164.59 46.99 164.64 40.75 155.63 40.75 155.57 46.99 157.65 46.99 157.65 49.27 150.49 49.27 150.49 46.99 152.43 46.99 152.54 32.12 150.49 32.12 150.49 29.85 157.65 29.85 157.65 32.12 155.68 32.12 155.63 38.31 164.64 38.31 164.69 32.12 162.64 32.12 162.64 29.85 169.8 29.85 169.8 32.12 167.83 32.12 167.72 46.99 169.8 46.99 169.8 49.27 162.64 49.27 162.64 46.99"/>
  <polygon class="cls-1" points="30.15 76.43 32.59 76.43 32.73 58.03 30.15 58.03 30.15 55.21 39.01 55.21 39.01 58.03 36.57 58.03 36.43 76.43 43.57 76.43 43.92 72.38 47.15 72.38 46.8 79.25 30.15 79.25 30.15 76.43"/>
  <path class="cls-1" d="M53.28,76.43h2.4l.14-7.11-8.35-11.3h-2.09v-2.82h8.79v2.82h-2.34c.28.27.48.51.68.82l5.53,7.52,5.46-7.52c.2-.31.45-.55.72-.82h-2.71v-2.82h8.38v2.82h-2.13l-8.11,11.3-.14,7.11h2.54v2.82h-8.79v-2.82Z"/>
  <path class="cls-1" d="M86.28,62.25v-3.85c-.89-.24-2.26-.58-4.08-.58-5.74,0-8.72,3.5-8.72,9.51,0,5.46,3.3,9.31,8.21,9.31,1.65,0,3.4-.17,4.29-.35l.14-4.33h3.43l-.14,6.56c-1.54.51-4.63,1.13-7.48,1.13-8.62,0-12.7-5.35-12.7-12.19,0-7.48,5.02-12.67,13.01-12.67,3.03,0,5.87.65,7.48,1.3v6.15h-3.43Z"/>
  <polygon class="cls-1" points="93.14 76.43 95.54 76.43 95.68 58.03 92.89 58.03 92.89 55.21 109.79 55.21 109.93 61.53 106.73 61.53 106.53 58.03 99.56 58.03 99.49 65.44 106.35 65.44 106.35 68.46 99.49 68.46 99.42 76.43 106.73 76.43 107.01 72.52 110.24 72.52 109.96 79.25 93.14 79.25 93.14 76.43"/>
  <path class="cls-1" d="M112.76,55.21h8.79v2.82h-2.43l-.04,12.05c0,1.85.07,3.81,1.34,5.01,1.1,1.03,2.26,1.34,4.29,1.34,2.34,0,3.54-.28,4.63-1.37,1.1-1.1,1.34-2.58,1.38-4.88l.07-12.15h-2.82v-2.82h8.79v2.82h-2.3l-.07,12.91c0,3.19-1.04,5.35-2.68,6.77-1.55,1.3-4.22,1.96-7.04,1.96-3.6,0-5.67-.69-7.21-1.99-1.75-1.48-2.23-3.54-2.23-6.69,0-4.6.03-8.79.07-12.95h-2.54v-2.82Z"/>
  <path class="cls-1" d="M139.59,76.43h2.44l.14-18.4h-2.72v-2.82h7.9l6.93,17.89c.25.62.38,1.3.55,1.96h.07c.17-.65.31-1.34.55-1.96l6.87-17.89h7.48v2.82h-2.75l.14,18.4h2.61v2.82h-8.76v-2.82h2.37l.14-16.24-.1-.07c-.31,1.06-.51,2.16-.93,3.19l-6.14,15.93h-3.84l-6.01-15.31c-.48-1.2-.73-2.44-1.06-3.67h-.07l-.14,16.17h2.72v2.82h-8.38v-2.82Z"/>
  <path class="cls-1" d="M30.15,167.68h1.53l.09-11.87h-1.62v-1.82h6.89c3.19,0,4.69,1.84,4.69,4.09,0,2.68-1.73,3.9-3.69,4.1v.05c.86.07,1.44.8,1.97,1.68l1.68,2.83c.45.74.86.94,1.38.94h.58v1.81h-1.44c-1.3,0-1.9-.13-2.81-1.64l-2.13-3.61c-.64-1.11-.98-1.35-1.7-1.35h-1.33l-.04,4.78h1.79v1.81h-5.83v-1.81ZM36.15,160.95c1.75,0,2.97-.93,2.97-2.59s-1-2.54-2.79-2.54h-2.06l-.05,5.14h1.93Z"/>
  <path class="cls-1" d="M51.72,153.73c4.47,0,7.17,2.97,7.17,7.75,0,4.1-2.39,8.28-7.62,8.28-4.52,0-7.38-2.99-7.38-7.75s3.04-8.28,7.82-8.28M51.36,167.68c4.1,0,4.78-3.96,4.78-6.07,0-2.77-.93-5.8-4.58-5.8-2.59,0-4.92,1.77-4.92,6.09,0,3.01,1.46,5.78,4.72,5.78"/>
  <polygon class="cls-1" points="63.21 167.68 64.81 167.68 64.89 155.81 61.79 155.81 61.71 158.07 59.49 158.07 59.58 153.99 72.62 153.99 72.71 158.07 70.5 158.07 70.41 155.81 67.37 155.81 67.28 167.68 69.08 167.68 69.08 169.5 63.21 169.5 63.21 167.68"/>
  <polygon class="cls-1" points="77.78 167.68 79.37 167.68 79.46 155.81 76.37 155.81 76.28 158.07 74.06 158.07 74.15 153.99 87.19 153.99 87.28 158.07 85.06 158.07 84.98 155.81 81.95 155.81 81.85 167.68 83.65 167.68 83.65 169.5 77.78 169.5 77.78 167.68"/>
  <polygon class="cls-1" points="89.13 167.68 90.69 167.68 90.77 155.81 88.98 155.81 88.98 153.99 99.88 153.99 99.96 158.07 97.91 158.07 97.77 155.81 93.28 155.81 93.24 160.6 97.66 160.6 97.66 162.55 93.24 162.55 93.19 167.68 97.91 167.68 98.08 165.16 100.16 165.16 99.99 169.5 89.13 169.5 89.13 167.68"/>
  <path class="cls-1" d="M102.21,167.68h1.53l.09-11.87h-1.61v-1.82h6.89c3.19,0,4.69,1.84,4.69,4.09,0,2.68-1.73,3.9-3.7,4.1v.05c.86.07,1.44.8,1.97,1.68l1.69,2.83c.44.74.86.94,1.37.94h.58v1.81h-1.44c-1.31,0-1.9-.13-2.81-1.64l-2.13-3.61c-.64-1.11-.97-1.35-1.7-1.35h-1.33l-.04,4.78h1.79v1.81h-5.82v-1.81ZM108.21,160.95c1.75,0,2.97-.93,2.97-2.59s-1-2.54-2.79-2.54h-2.06l-.05,5.14h1.93Z"/>
  <path class="cls-1" d="M117.44,167.68h1.57l.09-11.87h-1.66v-1.82h7.35c4.98,0,7.84,2.9,7.84,7.4s-2.9,8.11-7.87,8.11h-7.33v-1.81ZM123.98,167.68c3.78,0,5.91-2.31,5.91-6.18,0-3.48-2-5.69-5.8-5.69h-2.5l-.09,11.87h2.48Z"/>
  <path class="cls-1" d="M132.49,167.68h1.33l5.63-13.69h2.74l5.2,13.69h1.37v1.81h-5.67v-1.81h1.42l-1.33-3.85h-5.45l-1.44,3.85h1.6v1.81h-5.41v-1.81ZM141.02,157.49c-.25-.69-.33-1.08-.4-1.42h-.04c-.07.31-.16.73-.42,1.42l-1.71,4.38h4.1l-1.53-4.38Z"/>
  <path class="cls-1" d="M150.31,167.68h1.57l.09-11.87h-1.75v-1.82h5.1l4.47,11.54c.15.4.24.84.35,1.26h.04c.11-.42.2-.86.36-1.26l4.43-11.54h4.83v1.82h-1.77l.09,11.87h1.68v1.81h-5.65v-1.81h1.53l.09-10.48-.06-.04c-.2.69-.33,1.39-.6,2.06l-3.97,10.28h-2.48l-3.88-9.88c-.31-.78-.47-1.57-.69-2.37h-.05l-.09,10.43h1.75v1.81h-5.41v-1.81Z"/>
</svg>