<?xml version="1.0" encoding="UTF-8"?>
<svg id="ff" xmlns="http://www.w3.org/2000/svg" xmlns:xlink="http://www.w3.org/1999/xlink" viewBox="0 0 200 200">
  <defs>
    <style>
      .cls-1 {
        fill: none;
      }

      .cls-2 {
        fill: #231f20;
      }

      .cls-3 {
        fill: url(#linear-gradient);
      }

      .cls-4 {
        clip-path: url(#clippath);
      }
    </style>
    <clipPath id="clippath">
      <path class="cls-1" d="M-286.36-296.34l39.93,172.93c4.93,21.35,1.82,41.38-9.3,60.13-11.12,18.79-27.15,30.56-48.1,35.39-20.35,4.7-39.63,1.08-57.85-10.93-18.22-11.98-29.78-28.63-34.7-49.97l-47.92-207.55h-87.6V-34.27c31.26,49.99,85.48,71.03,162.68,63.14-58.06,21.32-94.95,52.75-110.66,94.32h135.66c.66-12.77,4.47-25.03,11.44-36.81,11.11-18.76,26.85-30.49,47.2-35.18,20.95-4.84,40.52-1.26,58.75,10.72,18.22,12.01,29.8,28.68,34.72,50l2.6,11.27h77.14V8.48c-28.57-13.56-64.21-18.3-106.91-14.23,54.28-19.98,89.92-48.95,106.91-86.9v-129.96l-17.02-73.73h-156.97Z"/>
    </clipPath>
    <linearGradient id="linear-gradient" x1="-945.38" y1="114.13" x2="-944.38" y2="114.13" gradientTransform="translate(88124.78 -732246.12) rotate(-90) scale(774.98 -774.98)" gradientUnits="userSpaceOnUse">
      <stop offset="0" stop-color="#4d95c4"/>
      <stop offset="0" stop-color="#4d95c4"/>
      <stop offset=".59" stop-color="#5b4687"/>
      <stop offset="1" stop-color="#4d95c4"/>
    </linearGradient>
  </defs>
  <g class="cls-4">
    <rect class="cls-3" x="-590.98" y="-355.44" width="537.71" height="537.71" transform="translate(10.19 -115.4) rotate(-20)"/>
  </g>
  <g>
    <polygon class="cls-2" points="20 52.35 20 105.63 48.97 105.63 48.97 99.74 31.6 99.74 31.6 81.98 43.2 81.98 43.2 76.01 31.6 76.01 31.6 58.25 48.97 58.25 48.97 52.35 20 52.35"/>
    <g>
      <path class="cls-2" d="M52.79,118.49v-21.91c0-10.32,5.59-16.18,16.78-17.59-11.19-1.41-16.78-7.27-16.78-17.59v-21.91h16.78v26.33c0,2.39.82,4.44,2.46,6.16,1.64,1.72,3.6,2.58,5.88,2.58s4.34-.86,5.98-2.58c1.64-1.72,2.46-3.77,2.46-6.16v-26.33h16.68v21.91c0,10.32-5.56,16.19-16.68,17.59,11.12,1.47,16.68,7.34,16.68,17.59v21.91h-16.68v-26.33c0-2.39-.82-4.44-2.46-6.16-1.64-1.72-3.63-2.58-5.98-2.58s-4.24.86-5.88,2.58c-1.64,1.72-2.46,3.78-2.46,6.16v26.33h-16.78Z"/>
      <path class="cls-2" d="M106.84,105.63v-53.28h23.2c3.15,0,5.86,1.17,8.13,3.52,2.27,2.34,3.4,5.13,3.4,8.35v5.9c0,3.22-1.13,6-3.4,8.35-2.27,2.34-4.98,3.52-8.13,3.52h-11.6v23.66h-11.6ZM118.44,76.01h5.77c1.62,0,3-.58,4.13-1.74,1.14-1.16,1.7-2.54,1.7-4.15v-5.9c0-1.66-.57-3.07-1.7-4.23-1.14-1.16-2.51-1.74-4.13-1.74h-5.77v17.76Z"/>
      <path class="cls-2" d="M156.87,52.35h11.6c3.15,0,5.86,1.17,8.13,3.52,2.27,2.34,3.4,5.13,3.4,8.35v29.55c0,3.22-1.13,6-3.4,8.35-2.27,2.34-4.98,3.52-8.13,3.52h-11.6c-3.15,0-5.87-1.16-8.16-3.48-2.29-2.32-3.44-5.11-3.44-8.38v-29.55c0-3.27,1.15-6.06,3.44-8.38,2.29-2.32,5.01-3.48,8.16-3.48M156.87,64.21v29.55c0,1.61.57,3.01,1.7,4.19,1.14,1.19,2.49,1.78,4.06,1.78s3-.59,4.13-1.78c1.14-1.18,1.7-2.58,1.7-4.19v-29.55c0-1.66-.57-3.07-1.7-4.23-1.14-1.16-2.51-1.74-4.13-1.74s-2.93.58-4.06,1.74c-1.14,1.16-1.7,2.57-1.7,4.23"/>
      <polygon class="cls-2" points="20.48 151.5 20.48 126.53 37.32 126.53 37.32 129.48 23.78 129.48 23.78 137.21 35.5 137.21 35.5 140.16 23.78 140.16 23.78 151.5 20.48 151.5"/>
      <polygon class="cls-2" points="41.68 151.5 41.68 126.53 59.74 126.53 59.74 129.48 44.99 129.48 44.99 137.13 58.8 137.13 58.8 140.06 44.99 140.06 44.99 148.56 60.32 148.56 60.32 151.5 41.68 151.5"/>
      <path class="cls-2" d="M63.76,143.48l3.12-.27c.15,1.25.49,2.27,1.03,3.07.54.8,1.38,1.45,2.51,1.94,1.14.49,2.41.74,3.83.74,1.26,0,2.37-.19,3.34-.56.97-.38,1.68-.89,2.16-1.54.47-.65.71-1.37.71-2.14s-.23-1.47-.68-2.05c-.45-.58-1.2-1.07-2.25-1.47-.67-.26-2.15-.67-4.45-1.22-2.29-.55-3.9-1.07-4.82-1.56-1.19-.63-2.08-1.4-2.67-2.33-.58-.92-.88-1.96-.88-3.11,0-1.26.36-2.44,1.07-3.54.72-1.09,1.76-1.93,3.14-2.49,1.37-.57,2.9-.85,4.58-.85,1.85,0,3.48.3,4.9.89,1.41.6,2.5,1.47,3.26,2.63.76,1.16,1.17,2.47,1.23,3.94l-3.17.24c-.17-1.58-.75-2.77-1.73-3.58-.98-.81-2.43-1.21-4.35-1.21s-3.45.36-4.37,1.1c-.91.73-1.37,1.61-1.37,2.65,0,.9.32,1.64.97,2.21.64.58,2.3,1.17,4.98,1.78,2.69.61,4.53,1.14,5.53,1.59,1.45.67,2.53,1.52,3.22,2.54.69,1.03,1.04,2.21,1.04,3.55s-.38,2.58-1.14,3.76c-.76,1.18-1.85,2.09-3.28,2.74-1.42.65-3.03.98-4.81.98-2.26,0-4.15-.33-5.68-.99-1.53-.66-2.73-1.65-3.59-2.97-.87-1.32-1.33-2.82-1.37-4.49"/>
      <polygon class="cls-2" points="94.5 151.5 94.5 129.48 86.28 129.48 86.28 126.53 106.07 126.53 106.07 129.48 97.81 129.48 97.81 151.5 94.5 151.5"/>
      <rect class="cls-2" x="110.02" y="126.53" width="3.31" height="24.97"/>
      <path class="cls-2" d="M126.29,151.5l-9.67-24.97h3.58l6.49,18.14c.52,1.45.96,2.82,1.31,4.09.39-1.36.83-2.72,1.35-4.09l6.75-18.14h3.37l-9.78,24.97h-3.39Z"/>
      <path class="cls-2" d="M137.09,151.5l9.59-24.97h3.56l10.22,24.97h-3.76l-2.91-7.56h-10.44l-2.74,7.56h-3.51ZM144.29,141.25h8.47l-2.61-6.92c-.8-2.1-1.39-3.83-1.77-5.18-.32,1.6-.77,3.19-1.35,4.77l-2.74,7.32Z"/>
      <polygon class="cls-2" points="162.96 151.5 162.96 126.53 166.27 126.53 166.27 148.56 178.56 148.56 178.56 151.5 162.96 151.5"/>
    </g>
  </g>
</svg>