<?xml version="1.0" encoding="UTF-8"?>
<svg id="ff" xmlns="http://www.w3.org/2000/svg" xmlns:xlink="http://www.w3.org/1999/xlink" viewBox="0 0 200 200">
  <defs>
    <style>
      .cls-1 {
        fill: url(#linear-gradient-4);
      }

      .cls-2 {
        fill: url(#linear-gradient-3);
      }

      .cls-3 {
        fill: url(#linear-gradient-2);
      }

      .cls-4 {
        fill: #231f20;
      }

      .cls-5 {
        fill: url(#linear-gradient);
      }
    </style>
    <linearGradient id="linear-gradient" x1="37.08" y1="60.67" x2="37.08" y2="113.95" gradientUnits="userSpaceOnUse">
      <stop offset="0" stop-color="#5b4687"/>
      <stop offset="1" stop-color="#4d95c4"/>
    </linearGradient>
    <linearGradient id="linear-gradient-2" x1="80.5" y1="47.81" x2="80.5" y2="126.81" xlink:href="#linear-gradient"/>
    <linearGradient id="linear-gradient-3" x1="126.8" x2="126.8" xlink:href="#linear-gradient"/>
    <linearGradient id="linear-gradient-4" x1="165.22" x2="165.22" xlink:href="#linear-gradient"/>
  </defs>
  <path class="cls-5" d="M22.59,113.95v-53.28h28.97v5.89h-17.37v17.76h11.6v5.97h-11.6v17.76h17.37v5.9h-28.97Z"/>
  <path class="cls-3" d="M55.38,126.81v-21.91c0-10.32,5.59-16.18,16.78-17.59-11.19-1.41-16.78-7.27-16.78-17.59v-21.91s16.78,0,16.78,0v26.33c0,2.39.82,4.44,2.46,6.16,1.64,1.72,3.6,2.58,5.88,2.58s4.34-.86,5.98-2.58c1.64-1.72,2.46-3.77,2.46-6.16v-26.33s16.68,0,16.68,0v21.91c0,10.32-5.56,16.19-16.68,17.59,11.12,1.47,16.68,7.34,16.68,17.59v21.91s-16.68,0-16.68,0v-26.33c0-2.39-.82-4.44-2.46-6.16-1.64-1.72-3.63-2.58-5.98-2.58-2.28,0-4.24.86-5.88,2.58-1.64,1.72-2.46,3.78-2.46,6.16v26.33s-16.78,0-16.78,0Z"/>
  <path class="cls-2" d="M109.43,113.95v-53.28h23.2c3.15,0,5.86,1.17,8.13,3.52,2.27,2.34,3.4,5.13,3.4,8.35v5.9c0,3.22-1.14,6-3.4,8.35-2.27,2.35-4.98,3.52-8.13,3.52h-11.6v23.66h-11.6ZM121.03,84.32h5.77c1.62,0,3-.58,4.13-1.74,1.13-1.16,1.7-2.54,1.7-4.15v-5.9c0-1.66-.57-3.07-1.7-4.23-1.14-1.16-2.51-1.74-4.13-1.74h-5.77v17.76Z"/>
  <path class="cls-1" d="M159.46,60.67h11.6c3.15,0,5.86,1.17,8.13,3.52,2.27,2.34,3.4,5.13,3.4,8.35v29.55c0,3.22-1.14,6-3.4,8.35-2.27,2.34-4.98,3.52-8.13,3.52h-11.6c-3.15,0-5.87-1.16-8.16-3.48-2.29-2.32-3.44-5.11-3.44-8.38v-29.55c0-3.27,1.15-6.06,3.44-8.38,2.29-2.32,5.01-3.48,8.16-3.48ZM159.46,72.53v29.55c0,1.61.57,3.01,1.7,4.19,1.13,1.19,2.49,1.78,4.06,1.78s3-.59,4.13-1.78c1.13-1.18,1.7-2.58,1.7-4.19v-29.55c0-1.66-.57-3.07-1.7-4.23-1.14-1.16-2.51-1.74-4.13-1.74s-2.93.58-4.06,1.74c-1.14,1.16-1.7,2.57-1.7,4.23Z"/>
  <g>
    <path class="cls-4" d="M23.07,159.82v-24.97h16.85v2.95h-13.54v7.73h11.72v2.95h-11.72v11.34h-3.3Z"/>
    <path class="cls-4" d="M44.28,159.82v-24.97h18.06v2.95h-14.75v7.65h13.81v2.93h-13.81v8.5h15.33v2.95h-18.63Z"/>
    <path class="cls-4" d="M66.35,151.8l3.12-.27c.15,1.25.49,2.27,1.03,3.07.54.8,1.38,1.45,2.51,1.94,1.14.49,2.41.74,3.83.74,1.26,0,2.37-.19,3.34-.56s1.68-.89,2.15-1.54c.47-.65.71-1.37.71-2.14s-.23-1.47-.68-2.05c-.45-.58-1.2-1.08-2.25-1.47-.67-.26-2.15-.67-4.45-1.22-2.29-.55-3.9-1.07-4.82-1.56-1.19-.62-2.08-1.4-2.67-2.33-.58-.93-.88-1.96-.88-3.11,0-1.26.36-2.44,1.07-3.54.72-1.1,1.76-1.93,3.13-2.49s2.9-.85,4.58-.85c1.85,0,3.48.3,4.9.89,1.41.6,2.5,1.47,3.26,2.63s1.17,2.47,1.23,3.94l-3.17.24c-.17-1.58-.75-2.77-1.73-3.58-.98-.81-2.43-1.21-4.35-1.21s-3.45.37-4.37,1.1c-.91.73-1.37,1.62-1.37,2.65,0,.9.32,1.64.97,2.21.64.58,2.3,1.17,4.98,1.78,2.69.61,4.53,1.14,5.53,1.59,1.45.67,2.53,1.52,3.22,2.55.69,1.03,1.04,2.21,1.04,3.55s-.38,2.58-1.14,3.76c-.76,1.17-1.85,2.09-3.28,2.74-1.42.65-3.03.98-4.81.98-2.26,0-4.15-.33-5.68-.99-1.53-.66-2.73-1.65-3.59-2.97-.87-1.32-1.33-2.82-1.37-4.49Z"/>
    <path class="cls-4" d="M97.1,159.82v-22.02h-8.23v-2.95h19.79v2.95h-8.26v22.02h-3.31Z"/>
    <path class="cls-4" d="M112.61,159.82v-24.97h3.31v24.97h-3.31Z"/>
    <path class="cls-4" d="M128.88,159.82l-9.67-24.97h3.58l6.49,18.14c.52,1.45.96,2.82,1.31,4.09.39-1.36.83-2.73,1.35-4.09l6.75-18.14h3.37l-9.78,24.97h-3.39Z"/>
    <path class="cls-4" d="M139.68,159.82l9.59-24.97h3.56l10.22,24.97h-3.76l-2.91-7.56h-10.44l-2.74,7.56h-3.51ZM146.88,149.56h8.47l-2.61-6.92c-.79-2.1-1.39-3.83-1.77-5.18-.32,1.6-.77,3.19-1.35,4.77l-2.74,7.32Z"/>
    <path class="cls-4" d="M165.55,159.82v-24.97h3.3v22.02h12.3v2.95h-15.6Z"/>
  </g>
</svg>