<?xml version="1.0" encoding="UTF-8"?>
<svg id="ff" xmlns="http://www.w3.org/2000/svg" xmlns:xlink="http://www.w3.org/1999/xlink" viewBox="0 0 200 200">
  <defs>
    <style>
      .cls-1, .cls-2 {
        fill: none;
      }

      .cls-3 {
        fill: url(#linear-gradient);
      }

      .cls-2 {
        stroke: #000;
        stroke-linecap: round;
        stroke-linejoin: round;
        stroke-width: .35px;
      }

      .cls-4 {
        clip-path: url(#clippath);
      }
    </style>
    <clipPath id="clippath">
      <path class="cls-1" d="M-286.36,0l39.93,172.93c4.93,21.35,1.82,41.38-9.3,60.13-11.12,18.79-27.15,30.56-48.1,35.39-20.35,4.7-39.63,1.08-57.85-10.93-18.22-11.98-29.78-28.63-34.7-49.97L-444.29,0h-87.6v262.08c31.26,49.99,85.48,71.03,162.68,63.14-58.06,21.32-94.95,52.75-110.66,94.32h135.66c.66-12.77,4.47-25.03,11.44-36.81,11.11-18.76,26.85-30.49,47.2-35.18,20.95-4.84,40.52-1.26,58.75,10.72,18.22,12.01,29.8,28.68,34.72,50l2.6,11.27h77.14v-114.7c-28.57-13.56-64.21-18.3-106.91-14.23,54.28-19.98,89.92-48.95,106.91-86.9V73.73L-129.39,0h-156.97Z"/>
    </clipPath>
    <linearGradient id="linear-gradient" x1="-945.38" y1="410.47" x2="-944.38" y2="410.47" gradientTransform="translate(317785.29 -731949.78) rotate(-90) scale(774.98 -774.98)" gradientUnits="userSpaceOnUse">
      <stop offset="0" stop-color="#4d95c4"/>
      <stop offset="0" stop-color="#4d95c4"/>
      <stop offset=".59" stop-color="#5b4687"/>
      <stop offset="1" stop-color="#4d95c4"/>
    </linearGradient>
  </defs>
  <g class="cls-4">
    <rect class="cls-3" x="-590.98" y="-59.09" width="537.71" height="537.71" transform="translate(-91.17 -97.52) rotate(-20)"/>
  </g>
  <g>
    <line class="cls-2" x1="55.89" y1="107.03" x2="59.21" y2="104.97"/>
    <line class="cls-2" x1="56.42" y1="111.21" x2="62.61" y2="107.03"/>
    <line class="cls-2" x1="56.81" y1="114.79" x2="65.03" y2="108.91"/>
    <line class="cls-2" x1="57.2" y1="118.85" x2="67.69" y2="110.98"/>
    <line class="cls-2" x1="57.73" y1="122.65" x2="70.47" y2="113.55"/>
    <line class="cls-2" x1="58.22" y1="126.8" x2="71.32" y2="117.43"/>
    <line class="cls-2" x1="58.77" y1="131.45" x2="71.67" y2="121.66"/>
    <line class="cls-2" x1="67.69" y1="110.98" x2="68.91" y2="127.94"/>
    <line class="cls-2" x1="63.69" y1="107.87" x2="65.86" y2="130.35"/>
    <line class="cls-2" x1="59.21" y1="104.97" x2="62.52" y2="132.74"/>
    <line class="cls-2" x1="136.9" y1="123.76" x2="148.57" y2="113.12"/>
    <line class="cls-2" x1="136.53" y1="127.96" x2="148.08" y2="117.43"/>
    <line class="cls-2" x1="136.19" y1="132.05" x2="147.62" y2="121.55"/>
    <line class="cls-2" x1="135.87" y1="135.76" x2="147.19" y2="125.31"/>
    <line class="cls-2" x1="135.54" y1="139.71" x2="146.72" y2="129.52"/>
    <line class="cls-2" x1="135.28" y1="143.49" x2="146.27" y2="133.47"/>
    <line class="cls-2" x1="134.92" y1="147.54" x2="145.8" y2="137.62"/>
    <line class="cls-2" x1="134.57" y1="151.67" x2="145.28" y2="141.9"/>
    <line class="cls-2" x1="134.14" y1="155.83" x2="144.85" y2="146.07"/>
    <line class="cls-2" x1="145.62" y1="112.14" x2="141.11" y2="152.94"/>
    <line class="cls-2" x1="141.11" y1="116.05" x2="137.64" y2="156.32"/>
    <line class="cls-2" x1="127.55" y1="41.2" x2="107" y2="53.51"/>
    <line class="cls-2" x1="124.13" y1="39.74" x2="103.69" y2="51.98"/>
    <line class="cls-2" x1="120.96" y1="38.41" x2="100.65" y2="50.57"/>
    <line class="cls-2" x1="101.39" y1="46.99" x2="114.88" y2="52.93"/>
    <line class="cls-2" x1="105.09" y1="44.74" x2="118.52" y2="50.66"/>
    <line class="cls-2" x1="108.41" y1="42.8" x2="121.68" y2="48.66"/>
    <line class="cls-2" x1="112.13" y1="40.62" x2="125.19" y2="46.39"/>
    <line class="cls-2" x1="115.38" y1="38.5" x2="128.51" y2="44.29"/>
    <polyline class="cls-2" points="138.69 108.97 139.82 105.51 151.9 95.38 151.56 91.1 149.69 86.94 146.51 83.28 142.28 80.5 138.09 79.26 125.58 88.77 122.22 89.16 119.97 91.17 119.07 94.67 119.68 98.9 121.62 102.98 124.24 106.08 124.67 106.6 128.63 109.44 132.82 110.99 136.26 110.81 138.69 108.97 142.51 105.74 150.69 98.83 151.9 95.38"/>
    <line class="cls-2" x1="125.58" y1="88.77" x2="129.8" y2="90.14"/>
    <polyline class="cls-2" points="129.8 90.14 134.1 93.08 137.38 96.88 139.36 101.16 139.82 105.51"/>
    <line class="cls-2" x1="142.51" y1="105.74" x2="149.02" y2="109.13"/>
    <polyline class="cls-2" points="149.02 109.13 137.28 119.34 133.77 160.09"/>
    <polyline class="cls-2" points="122.22 89.16 123.59 88.12 134.72 79.73 138.09 79.26"/>
    <line class="cls-2" x1="139.36" y1="101.16" x2="151.56" y2="91.1"/>
    <line class="cls-2" x1="134.1" y1="93.08" x2="146.51" y2="83.28"/>
    <line class="cls-2" x1="137.38" y1="96.88" x2="149.69" y2="86.94"/>
    <line class="cls-2" x1="129.8" y1="90.14" x2="142.28" y2="80.5"/>
    <line class="cls-2" x1="133.77" y1="160.09" x2="118.13" y2="150.32"/>
    <line class="cls-2" x1="119.73" y1="109.7" x2="137.28" y2="119.34"/>
    <polyline class="cls-2" points="118.13 150.32 119.73 109.7 124.24 106.08"/>
    <polyline class="cls-2" points="149.02 109.13 144.44 149.69 133.77 160.09"/>
    <polyline class="cls-2" points="79.75 130.35 78.61 129.81 72 125.63"/>
    <line class="cls-2" x1="55.38" y1="102.64" x2="62.61" y2="107.03"/>
    <line class="cls-2" x1="80.39" y1="136.28" x2="72.1" y2="142.84"/>
    <line class="cls-2" x1="69.56" y1="112.44" x2="80.49" y2="107.74"/>
    <polyline class="cls-2" points="46.23 136.93 59.21 135.22 72 125.63 71.06 114.26"/>
    <polyline class="cls-2" points="78.61 129.81 65.86 139.67 66.94 151.25"/>
    <polyline class="cls-2" points="37.48 78.67 52.01 70.08 75.6 82.91 94.67 97.49 102.17 106.58 107.77 116.22 111.19 125.91 112.22 135.14 110.87 142.58 107.45 147.25 94.86 158.28"/>
    <line class="cls-2" x1="110.87" y1="142.58" x2="98.07" y2="153.73"/>
    <line class="cls-2" x1="112.22" y1="135.14" x2="99.15" y2="146.32"/>
    <line class="cls-2" x1="61.15" y1="92.38" x2="75.6" y2="82.91"/>
    <polyline class="cls-2" points="111.19 125.91 97.82 136.99 80.63 134.47"/>
    <polyline class="cls-2" points="107.77 116.22 94.1 127.1 79 126.82"/>
    <line class="cls-2" x1="102.17" y1="106.58" x2="88.22" y2="117.18"/>
    <polyline class="cls-2" points="75.18 119.25 71.06 114.26 69.56 112.44 62.61 107.03 61.15 92.38"/>
    <polygon class="cls-2" points="37.48 78.67 61.15 92.38 80.49 107.74 88.22 117.18 94.1 127.1 97.82 136.99 99.15 146.32 98.07 153.73 94.86 158.28 89.86 160.15 83.4 159.52 66.94 151.25 46.23 136.93 37.48 78.67"/>
    <polyline class="cls-2" points="55.38 102.64 59.21 135.22 65.86 139.67 72.1 142.84 76.87 143.1 79.85 140.35 80.39 136.28 80.63 134.47 79.75 130.35 79 126.82 75.18 119.25"/>
    <line class="cls-2" x1="80.49" y1="107.74" x2="94.67" y2="97.49"/>
    <polyline class="cls-2" points="88.92 93.1 97.65 49.21 117.74 37.06 131.07 42.64 137.83 79.29"/>
    <line class="cls-2" x1="119.46" y1="97.44" x2="111.95" y2="103.23"/>
    <line class="cls-2" x1="120.43" y1="64.55" x2="121.12" y2="64.08"/>
    <polyline class="cls-2" points="117.29 78.74 125.06 82.58 125.79 86.45"/>
    <line class="cls-2" x1="125.06" y1="82.58" x2="114.75" y2="90.22"/>
    <polyline class="cls-2" points="97.64 49.26 111.18 55.45 120.43 64.55 117.29 78.74 114.75 90.22 111.95 103.23 109.78 112.54 106.95 114.78"/>
    <polyline class="cls-2" points="131.07 42.64 121.12 64.08 125.06 82.58"/>
    <polyline class="cls-2" points="100.46 104.47 111.18 55.45 131.07 42.64"/>
  </g>
</svg>