<?xml version="1.0" encoding="UTF-8"?>
<svg id="ff" xmlns="http://www.w3.org/2000/svg" viewBox="0 0 200 200">
  <defs>
    <style>
      .cls-1 {
        stroke-miterlimit: 10;
      }

      .cls-1, .cls-2 {
        fill: none;
        stroke: #000;
        stroke-width: .35px;
      }

      .cls-2 {
        stroke-linecap: round;
        stroke-linejoin: round;
      }
    </style>
  </defs>
  <path class="cls-2" d="M144.37,82.48s.4-.87,1.26,0c0,0,.33.27.22,1.01"/>
  <path class="cls-2" d="M138.69,102.92s.15-.05.24-.21"/>
  <path class="cls-2" d="M138.34,102.81s.21-.06.3-.22"/>
  <line class="cls-2" x1="138.12" y1="102.58" x2="138.42" y2="102.45"/>
  <polyline class="cls-2" points="114.88 59.41 114.87 59.42 114.87 59.44 115.16 60.11"/>
  <path class="cls-2" d="M116.56,59.05s.85-.63,2.12-.91l1.42-.25,7.78-1.08,3.63-.5,1.26-.17,13.86-1.92"/>
  <line class="cls-2" x1="138.31" y1="102.26" x2="137.99" y2="102.36"/>
  <line class="cls-2" x1="80.43" y1="158.32" x2="81.1" y2="156.94"/>
  <polyline class="cls-2" points="118.07 58.28 118.24 57.25 118.24 57.24"/>
  <line class="cls-2" x1="78.87" y1="151.76" x2="78.89" y2="151.68"/>
  <line class="cls-2" x1="111.77" y1="64.12" x2="112.6" y2="64.06"/>
  <line class="cls-2" x1="112.4" y1="64.6" x2="104.68" y2="85.08"/>
  <polyline class="cls-2" points="88.31 128.49 80.35 149.58 80.01 150.62"/>
  <line class="cls-2" x1="79.65" y1="153.53" x2="78.69" y2="154.11"/>
  <polyline class="cls-2" points="78.89 151.68 79.15 150.58 79.15 150.56 79.17 150.48 79.54 149.37 87.68 128.1"/>
  <line class="cls-2" x1="111.65" y1="167.47" x2="110.81" y2="167.96"/>
  <line class="cls-2" x1="79.93" y1="155.21" x2="79.04" y2="156.14"/>
  <line class="cls-2" x1="149.65" y1="57.71" x2="150.99" y2="57.14"/>
  <line class="cls-2" x1="81.68" y1="157.25" x2="81.06" y2="158.68"/>
  <polyline class="cls-2" points="106.36 168.48 107.28 168.74 107.33 168.75 107.35 168.75 108.26 168.77 108.39 168.77 109.45 168.53 110.53 168.09 110.82 167.96"/>
  <line class="cls-2" x1="147.55" y1="54.29" x2="148.36" y2="53"/>
  <line class="cls-2" x1="148.36" y1="52.99" x2="149.18" y2="53.27"/>
  <polyline class="cls-2" points="149.47 56.11 149.47 56.11 150.69 55.21"/>
  <polyline class="cls-2" points="150.69 55.21 150.77 55.18 150.79 55.18"/>
  <line class="cls-2" x1="150.98" y1="56.11" x2="150.99" y2="57.14"/>
  <polyline class="cls-2" points="148.2 54.54 149.12 53.3 149.13 53.3"/>
  <polyline class="cls-2" points="111.63 167.45 112.67 166.61 113.61 165.56 114.45 164.35"/>
  <polyline class="cls-2" points="115.17 163.02 115.74 161.6 142.66 82.67 142.99 81.65 150.59 59.47 150.92 58.29 150.99 57.15"/>
  <polyline class="cls-2" points="150.98 56.1 150.83 55.19 150.8 55.12 150.8 55.12 150.41 54.42 150.38 54.39"/>
  <polyline class="cls-2" points="150.83 55.2 150.82 55.19 150.79 55.18"/>
  <polyline class="cls-2" points="149.85 53.75 149.18 53.27 149.13 53.3"/>
  <polyline class="cls-2" points="146.48 52.95 142.3 53.57 142.28 53.56 122.46 56.53 119.57 56.97"/>
  <polyline class="cls-2" points="114.1 60.25 114.09 60.25 114.09 60.26 113.38 61.16 112.74 62.12"/>
  <polyline class="cls-2" points="78.7 154.11 78.69 154.13 78.8 155.2 78.81 155.24 79.04 156.16"/>
  <polyline class="cls-2" points="109.45 168.54 109.41 168.43 109.41 168.43 109.41 168.35 109.42 166.81"/>
  <polyline class="cls-2" points="109.45 168.54 109.47 168.56 109.5 168.58 113.44 170.05 113.46 170.05 114.54 169.63 114.54 169.62 114.56 169.62"/>
  <polyline class="cls-2" points="153.7 62.29 153.98 61.23 154.01 61.11 154 61.09 150.92 58.3"/>
  <line class="cls-2" x1="115.14" y1="163.01" x2="114.43" y2="164.34"/>
  <polyline class="cls-2" points="106.32 168.46 101.75 166.66 81.05 158.68"/>
  <line class="cls-2" x1="79.87" y1="157.79" x2="79.39" y2="157.06"/>
  <polyline class="cls-2" points="79.39 157.06 79.05 156.23 79.04 156.17 79.04 156.14"/>
  <polyline class="cls-2" points="78.69 154.12 78.69 153.99 78.73 153.08 78.74 152.95 78.87 151.77"/>
  <polyline class="cls-2" points="103.99 84.69 111.75 64.17 111.76 64.12 111.8 64.03 112.2 63.1"/>
  <line class="cls-2" x1="107.7" y1="166.97" x2="107.33" y2="168.63"/>
  <polyline class="cls-2" points="107.33 168.64 107.34 168.71 107.37 168.76 107.77 168.91 110.79 170.03 111.31 170.22 111.34 170.23 111.34 170.23 112.36 170.25 112.38 170.25 112.4 170.25 113.45 170.06"/>
  <polyline class="cls-2" points="116.63 168.12 116.62 168.13 116.6 168.12 112.67 166.61"/>
  <polyline class="cls-2" points="111.54 167.35 111.55 167.36 111.58 167.41 111.6 167.44 111.63 167.46 111.65 167.47 111.83 167.54 112.21 167.69 115.6 168.97"/>
  <polyline class="cls-2" points="115.62 168.97 116.62 168.13 116.63 168.12 117.54 167.09 117.65 166.91 118.39 165.91 118.39 165.91 119.05 164.68 119.08 164.59 119.62 163.19 139.48 104.35 140.06 102.63 146.35 83.98 146.82 82.65 153.7 62.29 153.7 62.28 153.69 62.26"/>
  <line class="cls-2" x1="154.01" y1="61.1" x2="154.15" y2="59.98"/>
  <polyline class="cls-2" points="154.1 58.94 153.81 58.67 151.19 56.27 151.05 56.13 151.01 56.12 150.98 56.11"/>
  <polyline class="cls-2" points="150.97 56.11 149.64 56.87 149.63 56.87"/>
  <line class="cls-2" x1="108.54" y1="166.98" x2="108.42" y2="166.98"/>
  <polyline class="cls-2" points="107.7 166.97 106.86 166.76 81.69 157.25 81.68 157.25 81.1 156.94 81.09 156.93 80.62 156.49 80.62 156.48 80.23 155.91 80.23 155.9 79.98 155.32 79.94 155.21 79.93 155.2 79.74 154.41 79.74 154.4 79.65 153.53 79.65 153.47 79.65 153.4 79.66 152.59 79.67 152.52 79.79 151.61 80.01 150.62"/>
  <polyline class="cls-2" points="112.4 64.6 112.6 64.06 112.86 63.46 112.98 63.19 113.27 62.64 113.43 62.37 113.79 61.82 113.95 61.57 114.54 60.83 115.18 60.15 115.86 59.55 115.69 58.7 115.73 58.67 116.55 58.08 116.64 58.03 117.4 57.59 118.23 57.24 118.25 57.23 118.36 57.21 118.92 57.07 119.65 56.96"/>
  <line class="cls-2" x1="149.85" y1="53.75" x2="150.38" y2="54.39"/>
  <line class="cls-2" x1="150.58" y1="59.5" x2="153.69" y2="62.26"/>
  <polyline class="cls-2" points="113.28 62.64 113.95 62.56 115.05 62.42 116.1 62.3 147.93 58.44 149.58 58.24"/>
  <path class="cls-2" d="M138.8,102.91l.15-.05.14-.09h0s.09-.06.09-.06c0,0,.2-.18.33-.45l6.33-18.78"/>
  <polyline class="cls-2" points="114.09 60.25 114.09 60.25 114.09 60.25 114.1 60.26 114.54 60.83 114.51 60.8"/>
  <polyline class="cls-2" points="150.39 54.39 151.04 54.94 153.28 57 153.51 57.21 153.52 57.23 153.52 57.25 153.89 58.02 153.9 58.03"/>
  <polyline class="cls-2" points="118.39 165.9 118.39 165.91 118.38 165.91 118.36 165.9 114.45 164.35 114.43 164.34 114.39 164.32 114.36 164.3 114.34 164.28 114.31 164.26 114.3 164.25 113.42 163.38 113.41 163.38"/>
  <polyline class="cls-2" points="112.98 63.19 112.98 63.18 112.21 63.11 112.21 63.09 112.73 62.13 112.74 62.12 112.75 62.12 113.43 62.37"/>
  <polyline class="cls-2" points="113.95 61.57 113.95 61.57 113.38 61.16 113.39 61.14"/>
  <polyline class="cls-2" points="114.07 60.28 114.09 60.25 114.1 60.25 114.86 59.44 114.87 59.42 114.88 59.41 115.69 58.7"/>
  <line class="cls-2" x1="117.27" y1="58.59" x2="117.4" y2="57.6"/>
  <polyline class="cls-2" points="80.35 149.58 80.35 149.58 79.55 149.37"/>
  <line class="cls-2" x1="80.01" y1="150.62" x2="79.15" y2="150.56"/>
  <line class="cls-2" x1="79.78" y1="151.61" x2="78.87" y2="151.76"/>
  <polyline class="cls-2" points="147.55 54.3 147.56 54.3 148.2 54.54 148.21 54.55 148.26 54.59 148.74 54.94 148.74 54.94 149.17 55.46 149.47 56.11 149.47 56.12 149.61 56.78 149.63 56.87 149.65 57.71 149.59 58.24 149.54 58.62"/>
  <polyline class="cls-2" points="146.83 54.19 146.83 54.2 147.55 54.3 147.57 54.3 148.2 54.54 148.2 54.55"/>
  <line class="cls-2" x1="149.26" y1="59.63" x2="150.58" y2="59.5"/>
  <line class="cls-2" x1="113.47" y1="165.45" x2="112.74" y2="164.36"/>
  <polyline class="cls-2" points="119.62 163.19 115.74 161.6 115.71 161.59 115.68 161.58 115.65 161.56 115.61 161.55 115.59 161.54 115.58 161.54 114.49 161.1 114.48 161.1"/>
  <polyline class="cls-2" points="119.08 164.6 119.06 164.59 115.17 163.02 115.14 163.01 115.11 162.99 115.08 162.98 115.05 162.96"/>
  <line class="cls-2" x1="115.04" y1="162.96" x2="114" y2="162.31"/>
  <polyline class="cls-2" points="115.62 168.97 115.6 168.98 115.59 168.99 114.59 169.6 114.56 169.62"/>
  <polyline class="cls-2" points="154.15 59.98 154.11 59.01 154.12 58.98 154.11 58.96 154.11 58.95 154.1 58.89 153.9 58.03 153.89 58.02 153.88 57.99 153.52 57.24 153.51 57.22 153.51 57.21 152.97 56.56 151.14 54.87 150.48 54.27 149.89 53.78 149.85 53.75"/>
  <line class="cls-2" x1="149.85" y1="53.75" x2="149.81" y2="53.77"/>
  <polyline class="cls-2" points="148.36 53 148.34 53 147.45 52.88 147.45 52.89 146.83 54.19 146.64 54.2"/>
  <line class="cls-2" x1="79.39" y1="157.06" x2="79.4" y2="157"/>
  <line class="cls-2" x1="78.82" y1="155.16" x2="79.74" y2="154.41"/>
  <polyline class="cls-2" points="112.67 166.61 112.64 166.59 112.62 166.57 112.59 166.54 112.57 166.52 112.55 166.49 112.54 166.48 111.98 165.21 111.98 165.2"/>
  <polyline class="cls-2" points="110.54 168.1 110.52 168.07 110.5 168.03 110.49 168 110.3 166.45"/>
  <polyline class="cls-2" points="111.54 167.35 111.54 167.34 111.16 165.91 111.16 165.9"/>
  <polyline class="cls-2" points="145.84 83.48 144.68 82.67 138.36 101.46"/>
  <path class="cls-2" d="M139.46,102.36c-.39.62-.92.14-.92.14-.47-.42-.3-1.05-.29-1.06"/>
  <path class="cls-2" d="M144.68,82.67s.5-.76,1.07-.03"/>
  <polyline class="cls-2" points="144.37 82.48 138.18 100.67 137.9 101.5 137.88 101.72 137.89 101.94 137.92 102.16 137.99 102.36 138.08 102.54 138.2 102.69 138.34 102.81 138.48 102.88 138.64 102.92 138.8 102.91"/>
  <line class="cls-2" x1="144.85" y1="82.1" x2="145.19" y2="82.3"/>
  <line class="cls-2" x1="144.65" y1="82.2" x2="144.95" y2="82.38"/>
  <line class="cls-2" x1="144.47" y1="82.32" x2="144.76" y2="82.51"/>
  <line class="cls-2" x1="144.37" y1="82.48" x2="144.68" y2="82.67"/>
  <line class="cls-2" x1="137.92" y1="102.15" x2="138.26" y2="102.07"/>
  <line class="cls-2" x1="137.89" y1="101.94" x2="138.22" y2="101.86"/>
  <line class="cls-2" x1="137.88" y1="101.72" x2="138.22" y2="101.65"/>
  <polyline class="cls-2" points="137.9 101.5 138.25 101.44 138.36 101.46 138.89 101.83 139.52 102.26"/>
  <line class="cls-2" x1="81.06" y1="158.68" x2="80.43" y2="158.32"/>
  <polyline class="cls-2" points="80.43 158.32 79.91 157.82 79.87 157.79"/>
  <line class="cls-2" x1="78.8" y1="155.2" x2="78.82" y2="155.16"/>
  <line class="cls-2" x1="78.74" y1="152.95" x2="79.66" y2="152.59"/>
  <polyline class="cls-2" points="115.87 59.55 116.56 59.05 116.55 58.09"/>
  <polyline class="cls-2" points="108.54 166.98 108.54 166.98 108.35 168.6 108.39 168.76 112.4 170.24"/>
  <polyline class="cls-2" points="79.4 157 79.41 156.99 80.23 155.91"/>
  <line class="cls-2" x1="79.87" y1="157.79" x2="80.63" y2="156.5"/>
  <polyline class="cls-2" points="149.17 55.46 150.32 54.42 150.38 54.39"/>
  <line class="cls-2" x1="148.74" y1="54.94" x2="149.81" y2="53.77"/>
  <polyline class="cls-2" points="150.91 58.3 149.54 58.62 149.26 59.63 141.23 83.05 114.48 161.1 114.43 161.25 114 162.31 113.96 162.38 113.42 163.38 112.74 164.36 111.97 165.2 111.15 165.91 110.3 166.44 110.29 166.44 109.42 166.8 109.42 166.81 109.39 166.81 108.54 166.98"/>
  <line class="cls-2" x1="108.42" y1="166.98" x2="107.7" y2="166.97"/>
  <polyline class="cls-2" points="146.48 52.95 146.78 52.93 147.45 52.89"/>
  <line class="cls-2" x1="114.31" y1="164.25" x2="114.3" y2="164.25"/>
  <polyline class="cls-2" points="113.48 165.45 113.5 165.47 113.53 165.5 113.56 165.52 113.59 165.54 113.61 165.56 117.54 167.09"/>
  <polyline class="cls-2" points="112.72 104.52 112.4 111.05 106.2 117.62"/>
  <polyline class="cls-2" points="113.06 97.53 112.72 104.52 106.31 111.18 106.2 117.62 99.73 124.48"/>
  <polyline class="cls-2" points="106.56 96.86 106.43 104.27 106.31 111.18 99.62 118.14 92.63 125.41"/>
  <polyline class="cls-2" points="113.42 90.04 113.06 97.53 106.43 104.27 99.5 111.33 92.24 118.71"/>
  <polyline class="cls-2" points="76.67 120.66 68.91 115.43 67.74 108.96"/>
  <polyline class="cls-2" points="104.45 84.95 97.5 91.54 90.22 98.43 82.6 105.65 83.35 112.95 92.24 118.71 92.63 125.41 92.98 131.64"/>
  <polyline class="cls-2" points="87.39 75.3 95.77 80.04 104.45 84.95 113.42 90.04"/>
  <polyline class="cls-2" points="113.42 90.04 106.56 96.86 99.37 104 91.82 111.5 92.24 118.71"/>
  <polyline class="cls-2" points="84.69 126.06 76.67 120.66 75.75 114.26 67.74 108.96 66.49 102.03"/>
  <polyline class="cls-2" points="80.31 81.44 88.75 86.4 97.5 91.54 106.56 96.86"/>
  <polyline class="cls-2" points="72.9 87.86 81.41 93.05 90.22 98.43 99.37 104 99.5 111.33 99.62 118.14 99.73 124.48 92.98 131.64"/>
  <polyline class="cls-2" points="92.98 131.64 84.69 126.06 84.04 119.74 83.35 112.95 74.77 107.39 73.71 100.01 81.41 93.05 88.75 86.4 95.77 80.04"/>
  <polyline class="cls-2" points="92.63 125.41 84.04 119.74 75.75 114.26 74.77 107.39 66.49 102.03 65.15 94.58 72.9 87.86 80.31 81.44 87.39 75.3"/>
  <polyline class="cls-2" points="91.82 111.5 82.6 105.65 73.71 100.01 65.15 94.58"/>
  <polyline class="cls-2" points="49.24 102.69 46.83 95.3 46.68 94.84 46.15 93.89"/>
  <polyline class="cls-2" points="41.11 77.94 41.28 78.23 41.57 78.4 41.96 78.45 42.45 78.38 43.01 78.18 43.62 77.87 44.25 77.45 44.89 76.95 45.51 76.38 46.08 75.76 46.57 75.13 46.98 74.5 47.28 73.91 47.46 73.36 47.52 72.89 47.45 72.52 47.26 72.25 46.96 72.09"/>
  <polyline class="cls-2" points="55.09 74.62 55.72 74.94 56.14 75.48 56.31 76.24 56.24 77.18 55.92 78.27 55.36 79.47 54.58 80.73 53.62 82 52.5 83.22 51.28 84.35 50 85.34 48.73 86.15 47.5 86.75 46.38 87.1 45.41 87.21 44.61 87.07 44.03 86.69 43.68 86.09"/>
  <polyline class="cls-2" points="62.84 77.03 63.64 77.28 70.24 79.33 71.6 79.98"/>
  <polyline class="cls-2" points="50.41 103.59 47.56 95.46 44.69 87.29 44.61 87.07 41.6 78.51 41.57 78.4 38.42 69.44"/>
  <polyline class="cls-2" points="52.01 104.02 48.75 95.73 45.41 87.21 41.96 78.45 38.42 69.44"/>
  <polyline class="cls-2" points="38.42 69.44 46.96 72.09 47.4 72.23 55.09 74.62 55.61 74.78 56 74.9 62.84 77.03 63.83 77.51 64.31 77.66 71.6 79.98 72.56 81.08 73.06 82.6 73.08 84.49 72.61 86.68 71.72 88.89"/>
  <polyline class="cls-2" points="65.6 97.16 63.78 98.86 61.24 100.78 58.69 102.3 56.23 103.37 53.97 103.95 52.01 104.02 50.41 103.59 49.24 102.69 48.51 101.37 46.57 95.24 46.38 94.62 46.15 93.89 43.96 86.95 43.83 86.56 43.68 86.09 41.18 78.17 41.11 77.94 38.42 69.44"/>
  <polyline class="cls-2" points="53.97 103.95 50.22 95.62 46.38 87.1 42.45 78.38 38.42 69.44"/>
  <polyline class="cls-2" points="56.23 103.37 51.91 95.14 47.5 86.75 43.01 78.18 38.42 69.44"/>
  <polygon class="cls-2" points="38.42 69.44 47.26 72.25 47.41 72.29 55.72 74.94 56.03 75.03 63.83 77.51 64.5 78.33 64.83 79.47 64.78 80.88 64.36 82.53 63.58 84.33 62.46 86.23 61.04 88.13 59.39 89.97 57.57 91.65 55.66 93.12 53.75 94.3 51.91 95.14 50.22 95.62 48.75 95.73 47.56 95.46 46.68 94.84 44.13 86.98 44.03 86.69 41.44 78.73 41.33 78.37 41.28 78.23 38.42 69.44"/>
  <polyline class="cls-2" points="58.69 102.3 53.75 94.3 48.73 86.15 43.62 77.87 38.42 69.44"/>
  <polyline class="cls-2" points="61.24 100.78 55.66 93.12 50 85.34 44.25 77.45 38.42 69.44"/>
  <polyline class="cls-2" points="63.78 98.86 57.57 91.65 51.28 84.35 44.89 76.95 38.42 69.44"/>
  <polyline class="cls-2" points="38.42 69.44 47.45 72.52 47.71 72.61 56.14 75.48 64.5 78.33 72.56 81.08"/>
  <polyline class="cls-2" points="38.42 69.44 47.52 72.89 56.31 76.24 64.83 79.47 73.06 82.6"/>
  <polyline class="cls-2" points="38.42 69.44 47.46 73.36 56.24 77.18 64.78 80.88 73.08 84.49"/>
  <polyline class="cls-2" points="38.42 69.44 45.51 76.38 52.5 83.22 58.58 89.16 65.37 95.82"/>
  <polyline class="cls-2" points="38.42 69.44 46.08 75.76 53.62 82 59.63 86.97 66.94 93.02"/>
  <polyline class="cls-2" points="38.42 69.44 47.28 73.91 55.92 78.27 64.36 82.53 72.61 86.68"/>
  <polyline class="cls-2" points="38.42 69.44 46.57 75.13 54.58 80.73 62.46 86.23 69.27 90.99"/>
  <polyline class="cls-2" points="38.42 69.44 46.98 74.5 55.36 79.47 63.58 84.33 71.54 89.04"/>
  <polyline class="cls-2" points="75.93 66.32 75.55 66.71 74.25 68.05 74.04 68.26 73.1 68.83 72.76 69.03 71.85 69.58 70.5 70.3 67.87 70.99 66.05 70.94 64.18 70.02 62.38 68.25 60.79 65.74 59.53 62.65 58.72 59.22 58.41 55.7 60.64 53.07 63.26 50.82 66.05 49.11 68.79 48.07 71.29 47.76 73.35 48.18 74.86 49.28"/>
  <polyline class="cls-2" points="63.32 70.8 61.81 70.2 60.9 69.85 60.8 69.81 59.06 68.92 57.75 67.27 55.85 65.72 55.41 63.68 54.2 61.93 53.44 59.83 54.29 58.46 55.98 57.05 58.41 55.7 61.4 54.51 64.73 53.6 68.13 53.02 71.35 52.81 74.12 53 76.26 53.55 77.64 54.41 78.19 55.51 78.55 58.29"/>
  <polyline class="cls-2" points="78.27 60.96 77.73 60.6 76.36 60.05 74.21 59.35 71.42 58.54 68.2 57.68 64.77 56.85 61.42 56.1 58.41 55.5 56.23 54.22 54.76 53.23 54.1 52.61"/>
  <polyline class="cls-2" points="77.37 63.9 76.72 63.89 75.3 63.5 73.18 62.72 70.5 61.62 67.44 60.25 64.24 58.73 61.15 57.17 58.41 55.7 55.96 55.28 54.25 55.08 53.38 55.11"/>
  <polygon class="cls-2" points="61.42 56.3 61.51 55.39 61.4 54.51 61.11 53.72 60.64 53.07 60.05 52.61 59.36 52.37 58.63 52.36 57.91 52.58 57.23 53.02 56.66 53.65 56.23 54.42 55.96 55.28 55.87 56.18 55.98 57.05 56.27 57.83 56.72 58.48 57.31 58.94 57.99 59.2 58.72 59.22 59.45 59 60.12 58.57 60.71 57.95 61.15 57.17 61.42 56.3"/>
  <polyline class="cls-2" points="74.04 68.26 72.97 68.82 71.37 68.66 69.36 67.78 67.05 66.2 64.63 64.03 62.25 61.42 60.12 58.57 58.41 55.7 59.36 52.37 60.78 49.47"/>
  <polyline class="cls-2" points="53.46 61.06 53.44 59.83 53.16 57.5 53.38 55.11 54.1 52.8 55.26 50.74 55.66 50.06 56.28 49.38 56.8 48.8 57.52 48.01"/>
  <polyline class="cls-2" points="60.78 49.47 62.11 49.94 63.26 50.82 64.16 52.07 64.73 53.6 64.94 55.3 64.77 57.05 64.24 58.73 63.38 60.22 62.25 61.42 60.94 62.25 59.53 62.65 58.13 62.6 56.82 62.11 55.7 61.21 54.84 59.96 54.29 58.46 54.09 56.79 54.25 55.08 54.76 53.43 55.59 51.96 56.68 50.75 57.97 49.9 59.37 49.46 60.78 49.47 62.54 47.23 64.51 45.8 66.54 45.26 69.08 46.1 71.08 46.49 72.68 47.66 73.32 48.14 73.39 48.19 74.86 49.28 75.96 50.78 76.55 51.59 77.64 54.41 78.05 57.55 77.73 60.79 76.72 63.89 75.09 66.63 72.97 68.82 70.5 70.3 68.8 70.22 66.85 69.3 64.79 67.59 62.77 65.19 60.94 62.25 59.45 59 58.41 55.7 58.63 52.36 59.37 49.46 60.56 47.23 62.1 45.8 63.86 45.26 66.54 45.26 68.48 45.62 69.61 46 71.08 46.49 73.35 48.18 75.12 50.59 76.26 53.55 76.69 56.85 76.36 60.25 75.3 63.5 73.6 66.37 71.37 68.66 68.8 70.22 66.05 70.94 63.32 70.8 61.52 69.88 59.98 68.13 58.81 65.65 58.13 62.6 57.99 59.2 58.41 55.7 57.91 52.58 57.97 49.9 58.6 47.85 60.56 47.23 62.54 47.23 64.42 47.87 66.05 49.11 67.32 50.87 68.13 53.02 68.43 55.41 68.2 57.88 67.44 60.25 66.22 62.35 64.63 64.03 62.77 65.19 60.79 65.74 58.81 65.65 56.98 64.95 55.41 63.68 55.7 61.21 56.72 58.48 58.41 55.7 60.05 52.61 62.11 49.94 64.42 47.87 66.8 46.57 69.08 46.1 71.29 47.76 73.01 50.11 74.12 53 74.53 56.22 74.21 59.54 73.18 62.72 71.52 65.53 69.36 67.78 66.85 69.3 64.18 70.02 61.52 69.88 59.06 68.92 58.02 68.07 56.96 67.21 55.85 65.72 54.39 63.6 54.01 62.55 53.46 61.06 53.33 59.99 53.12 58.24 53.16 57.5 54.09 56.79 55.87 56.18 58.41 55.7 60.71 57.95 63.38 60.22 66.22 62.35 69 64.16 71.52 65.53 73.6 66.37 75.09 66.63 75.93 66.32 77.37 63.9 78.27 61.16 78.55 58.29 78.05 57.55 76.69 56.85 74.53 56.22 71.71 55.73 68.43 55.41 64.94 55.3 61.51 55.39 58.41 55.7 56.66 53.65 55.59 51.96 55.26 50.74 56.79 49.05 57.52 48.01 58.8 47.16 59.71 46.56 62.1 45.8 64.51 45.8 66.8 46.57 68.79 48.07 70.35 50.2 71.35 52.81 71.71 55.73 71.42 58.74 70.5 61.62 69 64.16 67.05 66.2 64.79 67.59 62.38 68.25 59.98 68.13 57.75 67.27 56.98 64.95 56.82 62.11 57.31 58.94 58.41 55.7 57.23 53.02 56.68 50.75 56.79 49.05 58.6 47.85 59.71 46.56"/>
  <polyline class="cls-2" points="54.39 63.6 54.2 61.93 54.84 59.96 56.27 57.83 58.41 55.7 61.11 53.72 64.16 52.07 67.32 50.87 70.35 50.2 73.01 50.11 75.12 50.59 76.55 51.59 77.22 53.01 77.58 53.94 77.8 54.51 78.19 55.51"/>
  <path class="cls-1" d="M128.81,57.85l4.53-.64s.4,0,.24.54c0,0,.03.1-.2.26-.14.09-.3.15-.46.17l-4.4.57s-.32-.08-.11-.59c0,0,.11-.23.41-.31Z"/>
</svg>