<?xml version="1.0" encoding="UTF-8"?>
<svg id="ff" xmlns="http://www.w3.org/2000/svg" xmlns:xlink="http://www.w3.org/1999/xlink" viewBox="0 0 200 200">
  <defs>
    <style>
      .cls-1 {
        fill: url(#linear-gradient);
      }
    </style>
    <linearGradient id="linear-gradient" x1="98.76" y1="60.18" x2="98.76" y2="139.18" gradientUnits="userSpaceOnUse">
      <stop offset="0" stop-color="#5b4687"/>
      <stop offset="1" stop-color="#4d95c4"/>
    </linearGradient>
  </defs>
  <path class="cls-1" d="M73.65,139.18v-21.91c0-10.32,5.59-16.18,16.78-17.59-11.19-1.41-16.78-7.27-16.78-17.59v-21.91s16.78,0,16.78,0v26.33c0,2.39.82,4.44,2.46,6.16,1.64,1.72,3.6,2.58,5.88,2.58s4.34-.86,5.98-2.58c1.64-1.72,2.46-3.77,2.46-6.16v-26.33s16.68,0,16.68,0v21.91c0,10.32-5.56,16.19-16.68,17.59,11.12,1.47,16.68,7.34,16.68,17.59v21.91s-16.68,0-16.68,0v-26.33c0-2.39-.82-4.44-2.46-6.16-1.64-1.72-3.63-2.58-5.98-2.58-2.28,0-4.24.86-5.88,2.58-1.64,1.72-2.46,3.78-2.46,6.16v26.33s-16.78,0-16.78,0Z"/>
</svg>